SplineFontDB: 3.2
FontName: MenomoniaRegular
FullName: Menomonia Regular
FamilyName: Menomonia
Weight: Regular
Copyright: Copyright (c) Chank Co, 2012. All rights reserved. Do not redistribute or alter this font without permission.
Version: 1.000;PS 001.001;hotconv 1.0.56
ItalicAngle: 0
UnderlinePosition: -204
UnderlineWidth: 102
Ascent: 1589
Descent: 459
InvalidEm: 0
sfntRevision: 0x00010000
LayerCount: 2
Layer: 0 1 "Back" 1
Layer: 1 1 "Fore" 0
XUID: [1021 773 -1115407556 1242660]
StyleMap: 0x0040
FSType: 4
OS2Version: 3
OS2_WeightWidthSlopeOnly: 0
OS2_UseTypoMetrics: 0
CreationTime: 1343156400
ModificationTime: 1755386539
PfmFamily: 81
TTFWeight: 400
TTFWidth: 5
LineGap: 0
VLineGap: 0
Panose: 0 0 0 0 0 0 0 0 0 0
OS2TypoAscent: 1589
OS2TypoAOffset: 0
OS2TypoDescent: -459
OS2TypoDOffset: 0
OS2TypoLinegap: 0
OS2WinAscent: 1825
OS2WinAOffset: 0
OS2WinDescent: 470
OS2WinDOffset: 0
HheadAscent: 1825
HheadAOffset: 0
HheadDescent: -470
HheadDOffset: 0
OS2SubXSize: 1331
OS2SubYSize: 1229
OS2SubXOff: 0
OS2SubYOff: 154
OS2SupXSize: 1331
OS2SupYSize: 1229
OS2SupXOff: 0
OS2SupYOff: 717
OS2StrikeYSize: 102
OS2StrikeYPos: 610
OS2CapHeight: 1366
OS2XHeight: 975
OS2Vendor: 'CHNK'
OS2CodePages: 20000001.00000000
OS2UnicodeRanges: 00000003.00000000.00000000.00000000
Lookup: 258 0 0 "'kern' Horizontal Kerning in Latin lookup 0" { "'kern' Horizontal Kerning in Latin lookup 0 subtable"  } ['kern' ('latn' <'dflt' > ) ]
MarkAttachClasses: 1
DEI: 91125
TtTable: prep
PUSHW_1
 511
SCANCTRL
PUSHB_1
 1
SCANTYPE
SVTCA[y-axis]
MPPEM
PUSHB_1
 8
LT
IF
PUSHB_2
 1
 1
INSTCTRL
EIF
PUSHB_2
 70
 6
CALL
IF
POP
PUSHB_1
 16
EIF
MPPEM
PUSHB_1
 20
GT
IF
POP
PUSHB_1
 128
EIF
SCVTCI
PUSHB_1
 6
CALL
NOT
IF
SVTCA[y-axis]
PUSHB_1
 3
DUP
RCVT
PUSHB_1
 3
CALL
WCVTP
PUSHB_1
 6
DUP
RCVT
PUSHB_3
 3
 64
 2
CALL
PUSHB_1
 3
CALL
WCVTP
PUSHB_1
 5
DUP
RCVT
PUSHW_3
 6
 267
 2
CALL
PUSHB_1
 3
CALL
WCVTP
PUSHB_1
 4
DUP
RCVT
PUSHB_3
 5
 46
 2
CALL
PUSHB_1
 3
CALL
WCVTP
PUSHB_1
 7
DUP
RCVT
PUSHW_3
 3
 280
 2
CALL
PUSHB_1
 3

StartChar: exclam
Encoding: 33 33 4
Width: 434
GlyphClass: 2
Flags: W
LayerCount: 2
Fore
SplineSet
35 1366 m 1,0,-1
 281 1366 l 1,1,-1
 242 377 l 1,2,-1
 135 377 l 1,3,-1
 117 1239 l 2,4,5
 116 1277 116 1277 92 1312.5 c 128,-1,6
 68 1348 68 1348 35 1366 c 1,0,-1
98 88 m 0,7,8
 98 128 98 128 126.5 157 c 128,-1,9
 155 186 155 186 195 186 c 0,10,11
 233 186 233 186 259 157 c 128,-1,12
 285 128 285 128 285 88 c 0,13,14
 285 45 285 45 259 16.5 c 128,-1,15
 233 -12 233 -12 195 -12 c 0,16,17
 155 -12 155 -12 126.5 17 c 128,-1,18
 98 46 98 46 98 88 c 0,7,8
EndSplineSet
Validated: 1
EndChar

StartChar: quotedbl
Encoding: 34 34 5
Width: 604
GlyphClass: 2
Flags: W
LayerCount: 2
Fore
SplineSet
80 1370 m 1,0,-1
 240 1370 l 1,1,-1
 213 879 l 1,2,-1
 102 881 l 1,3,-1
 80 1370 l 1,0,-1
375 1370 m 1,4,-1
 535 1370 l 1,5,-1
 508 879 l 1,6,-1
 397 881 l 1,7,-1
 375 1370 l 1,4,-1
EndSplineSet
Validated: 1
EndChar

StartChar: numbersign
Encoding: 35 35 6
Width: 1148
GlyphClass: 2
Flags: W
LayerCount: 2
Fore
SplineSet
33 485 m 1,0,-1
 74 596 l 1,1,-1
 254 596 l 1,2,-1
 317 836 l 1,3,-1
 131 836 l 1,4,-1
 170 952 l 1,5,-1
 348 952 l 1,6,-1
 426 1247 l 1,7,-1
 590 1253 l 1,8,-1
 510 952 l 1,9,-1
 709 952 l 1,10,-1
 786 1247 l 1,11,-1
 950 1253 l 1,12,-1
 870 952 l 1,13,-1
 1055 952 l 1,14,-1
 1018 836 l 1,15,-1
 840 836 l 1,16,-1
 776 596 l 1,17,-1
 971 596 l 1,18,-1
 938 485 l 1,19,-1
 745 485 l 1,20,-1
 662 166 l 1,21,-1
 500 166 l 1,22,-1
 584 485 l 1,23,-1
 385 485 l 1,24,-1
 301 166 l 1,25,-1
 139 166 l 1,26,-1
 223 485 l 1,27,-1
 33 485 l 1,0,-1
416 596 m 1,28,-1
 614 596 l 1,29,-1
 678 836 l 1,30,-1
 479 836 l 1,31,-1
 416 596 l 1,28,-1
EndSplineSet
Validated: 1
EndChar

StartChar: dollar
Encoding: 36 36 7
Width: 956
GlyphClass: 2
Flags: W
LayerCount: 2
Fore
SplineSet
63 406 m 1,0,1
 115 323 115 323 215.5 264.5 c 128,-1,2
 316 206 316 206 418 197 c 1,3,-1
 418 653 l 1,4,5
 409 657 409 657 390 666 c 0,6,7
 349 685 349 685 327.5 695.5 c 128,-1,8
 306 706 306 706 268 727 c 128,-1,9
 230 748 230 748 208.5 764.5 c 128,-1,10
 187 781 187 781 159.5 807.5 c 128,-1,11
 132 834 132 834 117.5 860.5 c 128,-1,12
 103 887 103 887 92.5 922.5 c 128,-1,13
 82 958 82 958 82 997 c 0,14,15
 82 1114 82 1114 176 1192 c 128,-1,16
 270 1270 270 1270 418 1284 c 1,17,-1
 418 1417 l 1,18,-1
 532 1417 l 1,19,-1
 532 1284 l 1,20,21
 670 1277 670 1277 850 1196 c 1,22,23
 857 1168 857 1168 858.5 1107 c 128,-1,24
 860 1046 860 1046 856 1010 c 1,25,26
 763 1155 763 1155 532 1174 c 1,27,-1
 532 770 l 1,28,29
 654 710 654 710 680 696 c 0,30,31
 721 674 721 674 750.5 651 c 128,-1,32
 780 628 780 628 807 595.5 c 128,-1,33
 834 563 834 563 848 519 c 128,-1,34
 862 475 862 475 862 420 c 0,35,36
 862 290 862 290 768.5 201 c 128,-1,37
 675 112 675 112 532 88 c 1,38,-1
 532 -51 l 1,39,-1
 418 -51 l 1,40,-1
 418 84 l 1,41,42
 320 88 320 88 229 125 c 128,-1,43
 138 162 138 162 88 199 c 1,44,-1
 63 406 l 1,0,1
240 1006 m 0,45,46
 240 981 240 981 249 958.5 c 128,-1,47
 258 936 258 936 268 922 c 128,-1,48
 278 908 278 908 302 891 c 128,-1,49
 326 874 326 874 337.5 867.5 c 128,-1,50
 349 861 349 861 380 845.5 c 128,-1,51
 411 830 411 830 418 827 c 1,52,-1
 418 1167 l 1,53,54
 343 1151 343 1151 291.5 1108 c 128,-1,55
 240 1065 240 1065 240 1006 c 0,45,46
532 205 m 1,56,57
 608 228 608 228 655 282.5 c 128,-1,58
 702 337 702 337 702 403 c 0,59,60
 702 461 702 461 677.5 495 c 128,-1,61
 653 529 653 529 598 561 c 0,62,63
 584 567 584 567 560.5 580.5 c 128,-1,64
 537 594 537 594 532 596 c 1,65,-1
 532 205 l 1,56,57
EndSplineSet
Validated: 33
EndChar

StartChar: percent
Encoding: 37 37 8
Width: 1337
GlyphClass: 2
Flags: W
LayerCount: 2
Fore
SplineSet
37 856 m 0,0,1
 37 983 37 983 117 1058 c 128,-1,2
 197 1133 197 1133 295 1133 c 0,3,4
 329 1133 329 1133 369 1118.5 c 128,-1,5
 409 1104 409 1104 450.5 1074.5 c 128,-1,6
 492 1045 492 1045 519.5 990 c 128,-1,7
 547 935 547 935 547 864 c 0,8,9
 547 799 547 799 530.5 746 c 128,-1,10
 514 693 514 693 488.5 660 c 128,-1,11
 463 627 463 627 428.5 605 c 128,-1,12
 394 583 394 583 361 574 c 128,-1,13
 328 565 328 565 295 565 c 0,14,15
 250 565 250 565 205 585 c 128,-1,16
 160 605 160 605 122 640.5 c 128,-1,17
 84 676 84 676 60.5 732.5 c 128,-1,18
 37 789 37 789 37 856 c 0,0,1
188 848 m 0,19,20
 194 769 194 769 229.5 723.5 c 128,-1,21
 265 678 265 678 313 678 c 0,22,23
 355 678 355 678 379.5 723.5 c 128,-1,24
 404 769 404 769 397 838 c 0,25,26
 390 921 390 921 354 973.5 c 128,-1,27
 318 1026 318 1026 270 1026 c 0,28,29
 233 1026 233 1026 207.5 972.5 c 128,-1,30
 182 919 182 919 188 848 c 0,19,20
195 0 m 1,31,-1
 932 1145 l 1,32,-1
 1108 1145 l 1,33,-1
 369 0 l 1,34,-1
 195 0 l 1,31,-1
721 270 m 0,35,36
 721 397 721 397 801.5 476 c 128,-1,37
 882 555 882 555 979 555 c 0,38,39
 1025 555 1025 555 1069.5 537.5 c 128,-1,40
 1114 520 1114 520 1152 486.5 c 128,-1,41
 1190 453 1190 453 1213.5 396.5 c 128,-1,42
 1237 340 1237 340 1237 270 c 0,43,44
 1237 204 1237 204 1213.5 149 c 128,-1,45
 1190 94 1190 94 1152.5 60.5 c 128,-1,46
 1115 27 1115 27 1070 8.5 c 128,-1,47
 1025 -10 1025 -10 979 -10 c 0,48,49
 883 -10 883 -10 802 69 c 128,-1,50
 721 148 721 148 721 270 c 0,35,36
874 270 m 128,-1,52
 880 193 880 193 918 145.5 c 128,-1,53
 956 98 956 98 1004 98 c 0,54,55
 1046 98 1046 98 1069.5 145 c 128,-1,56
 1093 192 1093 192 1087 262 c 0,57,58
 1080 346 1080 346 1044 396 c 128,-1,59
 1008 446 1008 446 958 446 c 0,60,61
 916 446 916 446 892 396.5 c 128,-1,51
 868 347 868 347 874 270 c 128,-1,52
EndSplineSet
Validated: 33
EndChar

StartChar: ampersand
Encoding: 38 38 9
Width: 1261
GlyphClass: 2
Flags: W
LayerCount: 2
Fore
SplineSet
55 330 m 0,0,1
 55 394 55 394 81 457.5 c 128,-1,2
 107 521 107 521 156.5 580 c 128,-1,3
 206 639 206 639 251 682 c 128,-1,4
 296 725 296 725 360 778 c 1,5,-1
 297 860 l 2,6,7
 292 865 292 865 284 875 c 128,-1,8
 276 885 276 885 256 914.5 c 128,-1,9
 236 944 236 944 220.5 973 c 128,-1,10
 205 1002 205 1002 192.5 1043 c 128,-1,11
 180 1084 180 1084 180 1120 c 0,12,13
 180 1219 180 1219 261.5 1298.5 c 128,-1,14
 343 1378 343 1378 467 1378 c 0,15,16
 544 1378 544 1378 602 1355.5 c 128,-1,17
 660 1333 660 1333 692 1294.5 c 128,-1,18
 724 1256 724 1256 739 1212.5 c 128,-1,19
 754 1169 754 1169 754 1120 c 0,20,21
 754 1072 754 1072 721.5 1012.5 c 128,-1,22
 689 953 689 953 652 909.5 c 128,-1,23
 615 866 615 866 549 795 c 1,24,-1
 801 489 l 1,25,-1
 920 696 l 1,26,-1
 1057 696 l 1,27,-1
 879 393 l 1,28,-1
 1194 0 l 1,29,-1
 877 0 l 1,30,31
 896 14 896 14 907.5 32.5 c 128,-1,32
 919 51 919 51 916.5 78.5 c 128,-1,33
 914 106 914 106 891 135 c 2,34,-1
 795 254 l 1,35,36
 755 194 755 194 719.5 151.5 c 128,-1,37
 684 109 684 109 637.5 68.5 c 128,-1,38
 591 28 591 28 536 7 c 128,-1,39
 481 -14 481 -14 418 -14 c 0,40,41
 252 -14 252 -14 153.5 78 c 128,-1,42
 55 170 55 170 55 330 c 0,0,1
213 332 m 0,43,44
 213 232 213 232 275.5 169 c 128,-1,45
 338 106 338 106 440 106 c 0,46,47
 552 106 552 106 721 344 c 1,48,-1
 438 692 l 1,49,50
 390 642 390 642 368 618 c 128,-1,51
 346 594 346 594 309.5 549.5 c 128,-1,52
 273 505 273 505 256.5 475.5 c 128,-1,53
 240 446 240 446 226.5 407 c 128,-1,54
 213 368 213 368 213 332 c 0,43,44
340 1120 m 0,55,56
 340 1048 340 1048 440 928 c 2,57,-1
 475 887 l 1,58,59
 528 944 528 944 564 1010 c 128,-1,60
 600 1076 600 1076 600 1116 c 0,61,62
 600 1178 600 1178 566 1222 c 128,-1,63
 532 1266 532 1266 471 1266 c 0,64,65
 415 1266 415 1266 377.5 1220 c 128,-1,66
 340 1174 340 1174 340 1120 c 0,55,56
EndSplineSet
Validated: 1
EndChar

StartChar: quotesingle
Encoding: 39 39 10
Width: 354
GlyphClass: 2
Flags: W
LayerCount: 2
Fore
SplineSet
80 1370 m 1,0,-1
 240 1370 l 1,1,-1
 213 879 l 1,2,-1
 102 881 l 1,3,-1
 80 1370 l 1,0,-1
EndSplineSet
Validated: 1
EndChar

StartChar: parenleft
Encoding: 40 40 11
Width: 636
GlyphClass: 2
Flags: W
LayerCount: 2
Fore
SplineSet
63 651 m 0,0,1
 63 773 63 773 88 882.5 c 128,-1,2
 113 992 113 992 149 1072.5 c 128,-1,3
 185 1153 185 1153 246.5 1237 c 128,-1,4
 308 1321 308 1321 359 1376 c 128,-1,5
 410 1431 410 1431 487 1505 c 1,6,-1
 555 1421 l 1,7,8
 463 1325 463 1325 409 1255 c 128,-1,9
 355 1185 355 1185 308.5 1094 c 128,-1,10
 262 1003 262 1003 242.5 896 c 128,-1,11
 223 789 223 789 223 649 c 0,12,13
 223 503 223 503 317.5 284.5 c 128,-1,14
 412 66 412 66 555 -129 c 1,15,-1
 489 -209 l 1,16,17
 408 -131 408 -131 336.5 -39 c 128,-1,18
 265 53 265 53 201.5 164 c 128,-1,19
 138 275 138 275 100.5 401.5 c 128,-1,20
 63 528 63 528 63 651 c 0,0,1
EndSplineSet
Validated: 1
EndChar

StartChar: parenright
Encoding: 41 41 12
Width: 636
GlyphClass: 2
Flags: W
LayerCount: 2
Fore
SplineSet
63 -129 m 1,0,1
 206 66 206 66 300.5 284.5 c 128,-1,2
 395 503 395 503 395 649 c 0,3,4
 395 789 395 789 375.5 896 c 128,-1,5
 356 1003 356 1003 309.5 1094 c 128,-1,6
 263 1185 263 1185 209 1255 c 128,-1,7
 155 1325 155 1325 63 1421 c 1,8,-1
 131 1505 l 1,9,10
 208 1431 208 1431 259 1376 c 128,-1,11
 310 1321 310 1321 371.5 1237 c 128,-1,12
 433 1153 433 1153 469 1072.5 c 128,-1,13
 505 992 505 992 530 882.5 c 128,-1,14
 555 773 555 773 555 651 c 0,15,16
 555 528 555 528 517.5 401.5 c 128,-1,17
 480 275 480 275 415.5 164 c 128,-1,18
 351 53 351 53 279.5 -39 c 128,-1,19
 208 -131 208 -131 127 -209 c 1,20,-1
 63 -129 l 1,0,1
EndSplineSet
Validated: 1
EndChar

StartChar: asterisk
Encoding: 42 42 13
Width: 870
GlyphClass: 2
Flags: W
LayerCount: 2
Fore
SplineSet
66 1044 m 1,0,-1
 131 1196 l 1,1,-1
 408 1038 l 1,2,-1
 358 1354 l 1,3,-1
 530 1389 l 1,4,-1
 481 1040 l 1,5,-1
 756 1202 l 1,6,-1
 821 1049 l 1,7,-1
 494 975 l 1,8,-1
 729 743 l 1,9,-1
 596 639 l 1,10,-1
 446 934 l 1,11,-1
 289 647 l 1,12,-1
 158 745 l 1,13,-1
 387 973 l 1,14,-1
 66 1044 l 1,0,-1
EndSplineSet
Validated: 1
EndChar

StartChar: plus
Encoding: 43 43 14
Width: 897
GlyphClass: 2
Flags: W
LayerCount: 2
Fore
SplineSet
76 487 m 1,0,-1
 76 598 l 1,1,-1
 369 598 l 1,2,-1
 369 901 l 1,3,-1
 518 901 l 1,4,-1
 518 598 l 1,5,-1
 813 598 l 1,6,-1
 813 487 l 1,7,-1
 518 487 l 1,8,-1
 518 184 l 1,9,-1
 369 184 l 1,10,-1
 369 487 l 1,11,-1
 76 487 l 1,0,-1
EndSplineSet
Validated: 1
EndChar

StartChar: comma
Encoding: 44 44 15
Width: 344
GlyphClass: 2
Flags: W
LayerCount: 2
Fore
SplineSet
20 -197 m 1,0,1
 53 -146 53 -146 76.5 -68.5 c 128,-1,2
 100 9 100 9 100 47 c 0,3,4
 100 110 100 110 74 143 c 1,5,6
 152 166 152 166 238 166 c 1,7,8
 254 127 254 127 254 61 c 0,9,10
 254 -34 254 -34 129 -215 c 1,11,-1
 20 -197 l 1,0,1
EndSplineSet
Validated: 1
EndChar

StartChar: hyphen
Encoding: 45 45 16
Width: 759
GlyphClass: 2
Flags: W
LayerCount: 2
Fore
SplineSet
94 504 m 1,0,-1
 94 623 l 1,1,-1
 637 623 l 1,2,-1
 637 504 l 1,3,-1
 94 504 l 1,0,-1
EndSplineSet
Validated: 1
EndChar

StartChar: period
Encoding: 46 46 17
Width: 403
GlyphClass: 2
Flags: W
LayerCount: 2
Fore
SplineSet
84 86 m 0,0,1
 84 130 84 130 112 158 c 128,-1,2
 140 186 140 186 180 186 c 128,-1,3
 220 186 220 186 247 157.5 c 128,-1,4
 274 129 274 129 274 86 c 0,5,6
 274 45 274 45 247 16.5 c 128,-1,7
 220 -12 220 -12 180 -12 c 128,-1,8
 140 -12 140 -12 112 16 c 128,-1,9
 84 44 84 44 84 86 c 0,0,1
EndSplineSet
Validated: 1
EndChar

StartChar: slash
Encoding: 47 47 18
Width: 966
GlyphClass: 2
Flags: W
LayerCount: 2
Fore
SplineSet
39 0 m 1,0,-1
 778 1370 l 1,1,-1
 907 1370 l 1,2,-1
 174 0 l 1,3,-1
 39 0 l 1,0,-1
EndSplineSet
Validated: 1
EndChar

StartChar: zero
Encoding: 48 48 19
Width: 1122
GlyphClass: 2
Flags: W
LayerCount: 2
Fore
SplineSet
47 674 m 0,0,1
 47 807 47 807 79.5 931.5 c 128,-1,2
 112 1056 112 1056 173 1157 c 128,-1,3
 234 1258 234 1258 333 1319 c 128,-1,4
 432 1380 432 1380 555 1380 c 0,5,6
 660 1380 660 1380 745 1342 c 128,-1,7
 830 1304 830 1304 887.5 1239 c 128,-1,8
 945 1174 945 1174 983.5 1084.5 c 128,-1,9
 1022 995 1022 995 1039.5 895 c 128,-1,10
 1057 795 1057 795 1057 684 c 0,11,12
 1057 553 1057 553 1026 431.5 c 128,-1,13
 995 310 995 310 935 209.5 c 128,-1,14
 875 109 875 109 776.5 48.5 c 128,-1,15
 678 -12 678 -12 555 -12 c 0,16,17
 445 -12 445 -12 358 24 c 128,-1,18
 271 60 271 60 213 122 c 128,-1,19
 155 184 155 184 117.5 272.5 c 128,-1,20
 80 361 80 361 63.5 460 c 128,-1,21
 47 559 47 559 47 674 c 0,0,1
209 678 m 0,22,23
 209 616 209 616 215 555 c 128,-1,24
 221 494 221 494 235 427 c 128,-1,25
 249 360 249 360 275.5 304 c 128,-1,26
 302 248 302 248 338 202 c 128,-1,27
 374 156 374 156 429 130 c 128,-1,28
 484 104 484 104 551 104 c 0,29,30
 623 104 623 104 682.5 141 c 128,-1,31
 742 178 742 178 780 236.5 c 128,-1,32
 818 295 818 295 844 370 c 128,-1,33
 870 445 870 445 881 517.5 c 128,-1,34
 892 590 892 590 893 659 c 0,35,36
 894 739 894 739 889 805.5 c 128,-1,37
 884 872 884 872 871.5 944.5 c 128,-1,38
 859 1017 859 1017 834 1071.5 c 128,-1,39
 809 1126 809 1126 772.5 1171 c 128,-1,40
 736 1216 736 1216 679.5 1240 c 128,-1,41
 623 1264 623 1264 551 1264 c 0,42,43
 474 1264 474 1264 412.5 1225 c 128,-1,44
 351 1186 351 1186 313.5 1125.5 c 128,-1,45
 276 1065 276 1065 252 984.5 c 128,-1,46
 228 904 228 904 218.5 829 c 128,-1,47
 209 754 209 754 209 678 c 0,22,23
EndSplineSet
Validated: 33
EndChar

StartChar: one
Encoding: 49 49 20
Width: 661
GlyphClass: 2
Flags: W
LayerCount: 2
Fore
SplineSet
121 948 m 1,0,1
 271 1159 271 1159 408 1393 c 1,2,-1
 475 1358 l 1,3,-1
 475 0 l 1,4,-1
 233 0 l 1,5,6
 277 30 277 30 300.5 61.5 c 128,-1,7
 324 93 324 93 324 143 c 2,8,-1
 324 1059 l 1,9,10
 269 964 269 964 172 852 c 1,11,-1
 121 948 l 1,0,1
EndSplineSet
Validated: 1
EndChar

StartChar: two
Encoding: 50 50 21
Width: 1095
GlyphClass: 2
Flags: W
LayerCount: 2
Fore
SplineSet
106 119 m 1,0,-1
 549 602 l 2,1,2
 563 617 563 617 600 655.5 c 128,-1,3
 637 694 637 694 659 717.5 c 128,-1,4
 681 741 681 741 712 780.5 c 128,-1,5
 743 820 743 820 760.5 851.5 c 128,-1,6
 778 883 778 883 791.5 924 c 128,-1,7
 805 965 805 965 805 1004 c 0,8,9
 805 1121 805 1121 735 1192.5 c 128,-1,10
 665 1264 665 1264 553 1264 c 0,11,12
 471 1264 471 1264 383 1235 c 128,-1,13
 295 1206 295 1206 227.5 1153.5 c 128,-1,14
 160 1101 160 1101 141 1040 c 1,15,-1
 141 1251 l 1,16,17
 215 1311 215 1311 329 1343.5 c 128,-1,18
 443 1376 443 1376 561 1376 c 0,19,20
 670 1376 670 1376 761.5 1332 c 128,-1,21
 853 1288 853 1288 909 1204 c 128,-1,22
 965 1120 965 1120 965 1012 c 0,23,24
 965 982 965 982 961 953.5 c 128,-1,25
 957 925 957 925 953 902.5 c 128,-1,26
 949 880 949 880 937 852.5 c 128,-1,27
 925 825 925 825 918.5 809 c 128,-1,28
 912 793 912 793 892.5 765 c 128,-1,29
 873 737 873 737 865 725 c 128,-1,30
 857 713 857 713 830.5 682.5 c 128,-1,31
 804 652 804 652 795.5 642.5 c 128,-1,32
 787 633 787 633 754.5 598 c 128,-1,33
 722 563 722 563 713 553 c 2,34,-1
 313 117 l 1,35,-1
 961 117 l 1,36,-1
 961 0 l 1,37,-1
 156 0 l 1,38,39
 128 50 128 50 106 119 c 1,0,-1
EndSplineSet
Validated: 1
EndChar

StartChar: three
Encoding: 51 51 22
Width: 1040
GlyphClass: 2
Flags: W
LayerCount: 2
Fore
SplineSet
90 268 m 1,0,1
 148 220 148 220 193.5 190 c 128,-1,2
 239 160 239 160 317.5 133 c 128,-1,3
 396 106 396 106 481 106 c 0,4,5
 620 106 620 106 708.5 189.5 c 128,-1,6
 797 273 797 273 797 428 c 0,7,8
 797 486 797 486 779 532.5 c 128,-1,9
 761 579 761 579 730.5 610 c 128,-1,10
 700 641 700 641 669.5 660 c 128,-1,11
 639 679 639 679 604 692 c 1,12,-1
 338 692 l 1,13,-1
 338 811 l 1,14,-1
 604 811 l 1,15,16
 673 825 673 825 726.5 896 c 128,-1,17
 780 967 780 967 780 1057 c 0,18,19
 780 1155 780 1155 711.5 1209.5 c 128,-1,20
 643 1264 643 1264 528 1264 c 0,21,22
 469 1264 469 1264 391.5 1239.5 c 128,-1,23
 314 1215 314 1215 240.5 1163 c 128,-1,24
 167 1111 167 1111 141 1047 c 1,25,-1
 141 1249 l 1,26,27
 211 1309 211 1309 318 1342.5 c 128,-1,28
 425 1376 425 1376 535 1376 c 0,29,30
 716 1376 716 1376 828 1288 c 128,-1,31
 940 1200 940 1200 940 1055 c 0,32,33
 940 1001 940 1001 919.5 951 c 128,-1,34
 899 901 899 901 865.5 864 c 128,-1,35
 832 827 832 827 797 801 c 128,-1,36
 762 775 762 775 727 758 c 1,37,38
 763 742 763 742 798.5 716.5 c 128,-1,39
 834 691 834 691 871.5 652 c 128,-1,40
 909 613 909 613 932.5 556 c 128,-1,41
 956 499 956 499 956 434 c 0,42,43
 956 343 956 343 926 267 c 128,-1,44
 896 191 896 191 847 140 c 128,-1,45
 798 89 798 89 734 53.5 c 128,-1,46
 670 18 670 18 604 2 c 128,-1,47
 538 -14 538 -14 473 -14 c 0,48,49
 275 -14 275 -14 111 102 c 1,50,-1
 90 268 l 1,0,1
EndSplineSet
Validated: 1
EndChar

StartChar: four
Encoding: 52 52 23
Width: 1036
GlyphClass: 2
Flags: W
LayerCount: 2
Fore
SplineSet
47 512 m 1,0,-1
 612 1366 l 1,1,-1
 791 1366 l 1,2,-1
 791 532 l 1,3,-1
 958 532 l 1,4,-1
 958 377 l 1,5,-1
 791 377 l 1,6,-1
 791 0 l 1,7,-1
 547 0 l 1,8,9
 591 30 591 30 614 61.5 c 128,-1,10
 637 93 637 93 637 143 c 2,11,-1
 637 379 l 1,12,-1
 119 381 l 1,13,-1
 47 512 l 1,0,-1
195 532 m 1,14,-1
 637 532 l 1,15,-1
 637 1188 l 1,16,-1
 195 532 l 1,14,-1
EndSplineSet
Validated: 1
EndChar

StartChar: five
Encoding: 53 53 24
Width: 1069
GlyphClass: 2
Flags: W
LayerCount: 2
Fore
SplineSet
100 324 m 1,0,1
 162 233 162 233 264.5 168.5 c 128,-1,2
 367 104 367 104 510 104 c 0,3,4
 635 104 635 104 718 203.5 c 128,-1,5
 801 303 801 303 801 442 c 0,6,7
 801 568 801 568 722.5 651.5 c 128,-1,8
 644 735 644 735 518 735 c 0,9,10
 447 735 447 735 352 713 c 128,-1,11
 257 691 257 691 199 668 c 1,12,-1
 147 717 l 1,13,-1
 147 1366 l 1,14,-1
 899 1366 l 1,15,-1
 899 1165 l 1,16,17
 870 1199 870 1199 814 1226 c 128,-1,18
 758 1253 758 1253 700 1253 c 2,19,-1
 299 1253 l 1,20,-1
 299 807 l 1,21,22
 424 848 424 848 557 848 c 0,23,24
 601 848 601 848 649 839 c 128,-1,25
 697 830 697 830 755 802.5 c 128,-1,26
 813 775 813 775 857.5 733 c 128,-1,27
 902 691 902 691 932.5 616.5 c 128,-1,28
 963 542 963 542 963 446 c 0,29,30
 963 237 963 237 832.5 111.5 c 128,-1,31
 702 -14 702 -14 504 -14 c 0,32,33
 388 -14 388 -14 287 24 c 128,-1,34
 186 62 186 62 127 104 c 1,35,-1
 100 324 l 1,0,1
EndSplineSet
Validated: 1
EndChar

StartChar: six
Encoding: 54 54 25
Width: 1069
GlyphClass: 2
Flags: W
LayerCount: 2
Fore
SplineSet
92 621 m 0,0,1
 92 732 92 732 110 836 c 128,-1,2
 128 940 128 940 170 1040 c 128,-1,3
 212 1140 212 1140 274.5 1214 c 128,-1,4
 337 1288 337 1288 433.5 1333 c 128,-1,5
 530 1378 530 1378 649 1378 c 0,6,7
 787 1378 787 1378 895 1331 c 1,8,-1
 895 1133 l 1,9,10
 867 1161 867 1161 834 1187 c 128,-1,11
 801 1213 801 1213 744.5 1239.5 c 128,-1,12
 688 1266 688 1266 637 1266 c 0,13,14
 562 1266 562 1266 498.5 1229.5 c 128,-1,15
 435 1193 435 1193 392 1134 c 128,-1,16
 349 1075 349 1075 318 998 c 128,-1,17
 287 921 287 921 272.5 841.5 c 128,-1,18
 258 762 258 762 256 684 c 1,19,20
 396 854 396 854 575 854 c 0,21,22
 763 854 763 854 876 733.5 c 128,-1,23
 989 613 989 613 989 426 c 0,24,25
 989 347 989 347 958.5 269 c 128,-1,26
 928 191 928 191 874.5 128 c 128,-1,27
 821 65 821 65 739.5 25.5 c 128,-1,28
 658 -14 658 -14 563 -14 c 0,29,30
 462 -14 462 -14 380.5 22.5 c 128,-1,31
 299 59 299 59 246.5 119.5 c 128,-1,32
 194 180 194 180 158 263 c 128,-1,33
 122 346 122 346 107 435 c 128,-1,34
 92 524 92 524 92 621 c 0,0,1
264 438 m 0,35,36
 264 380 264 380 281.5 323.5 c 128,-1,37
 299 267 299 267 333.5 216.5 c 128,-1,38
 368 166 368 166 429.5 135 c 128,-1,39
 491 104 491 104 571 104 c 0,40,41
 648 104 648 104 709 153.5 c 128,-1,42
 770 203 770 203 800.5 276 c 128,-1,43
 831 349 831 349 831 428 c 0,44,45
 831 566 831 566 752 652.5 c 128,-1,46
 673 739 673 739 569 739 c 0,47,48
 443 739 443 739 353.5 644.5 c 128,-1,49
 264 550 264 550 264 438 c 0,35,36
EndSplineSet
Validated: 1
EndChar

StartChar: seven
Encoding: 55 55 26
Width: 1091
GlyphClass: 2
Flags: W
LayerCount: 2
Fore
SplineSet
106 1163 m 1,0,-1
 106 1366 l 1,1,-1
 969 1366 l 1,2,-1
 997 1268 l 1,3,-1
 424 0 l 1,4,-1
 254 0 l 1,5,-1
 821 1253 l 1,6,-1
 328 1253 l 2,7,8
 193 1253 193 1253 106 1163 c 1,0,-1
EndSplineSet
Validated: 1
EndChar

StartChar: eight
Encoding: 56 56 27
Width: 1040
GlyphClass: 2
Flags: W
LayerCount: 2
Fore
SplineSet
72 346 m 0,0,1
 72 471 72 471 151 573.5 c 128,-1,2
 230 676 230 676 352 723 c 1,3,4
 258 763 258 763 190.5 850.5 c 128,-1,5
 123 938 123 938 123 1044 c 0,6,7
 123 1188 123 1188 240.5 1283 c 128,-1,8
 358 1378 358 1378 528 1378 c 0,9,10
 637 1378 637 1378 725.5 1346 c 128,-1,11
 814 1314 814 1314 872 1241.5 c 128,-1,12
 930 1169 930 1169 930 1065 c 0,13,14
 930 994 930 994 885.5 920.5 c 128,-1,15
 841 847 841 847 784 799.5 c 128,-1,16
 727 752 727 752 676 733 c 1,17,18
 741 704 741 704 788.5 673.5 c 128,-1,19
 836 643 836 643 881 600 c 128,-1,20
 926 557 926 557 949.5 499 c 128,-1,21
 973 441 973 441 973 371 c 0,22,23
 973 256 973 256 914 167.5 c 128,-1,24
 855 79 855 79 757.5 32.5 c 128,-1,25
 660 -14 660 -14 541 -14 c 0,26,27
 437 -14 437 -14 354.5 9 c 128,-1,28
 272 32 272 32 220 68.5 c 128,-1,29
 168 105 168 105 133.5 153.5 c 128,-1,30
 99 202 99 202 85.5 249.5 c 128,-1,31
 72 297 72 297 72 346 c 0,0,1
229 352 m 0,32,33
 229 324 229 324 240.5 291.5 c 128,-1,34
 252 259 252 259 277 225 c 128,-1,35
 302 191 302 191 337.5 164 c 128,-1,36
 373 137 373 137 425.5 119.5 c 128,-1,37
 478 102 478 102 539 102 c 0,38,39
 662 102 662 102 738.5 181.5 c 128,-1,40
 815 261 815 261 815 367 c 0,41,42
 815 392 815 392 808.5 415 c 128,-1,43
 802 438 802 438 787 459 c 128,-1,44
 772 480 772 480 757.5 497 c 128,-1,45
 743 514 743 514 716.5 532 c 128,-1,46
 690 550 690 550 673 562 c 128,-1,47
 656 574 656 574 623 590 c 128,-1,48
 590 606 590 606 574.5 613.5 c 128,-1,49
 559 621 559 621 524 636.5 c 128,-1,50
 489 652 489 652 479 657 c 1,51,52
 358 616 358 616 293.5 536 c 128,-1,53
 229 456 229 456 229 352 c 0,32,33
285 1077 m 0,54,55
 285 977 285 977 349.5 911.5 c 128,-1,56
 414 846 414 846 539 791 c 1,57,58
 644 837 644 837 707 904 c 128,-1,59
 770 971 770 971 770 1030 c 0,60,61
 770 1136 770 1136 699 1201 c 128,-1,62
 628 1266 628 1266 526 1266 c 0,63,64
 435 1266 435 1266 360 1212.5 c 128,-1,65
 285 1159 285 1159 285 1077 c 0,54,55
EndSplineSet
Validated: 1
EndChar

StartChar: nine
Encoding: 57 57 28
Width: 1069
GlyphClass: 2
Flags: W
LayerCount: 2
Fore
SplineSet
82 938 m 0,0,1
 82 1017 82 1017 112.5 1095 c 128,-1,2
 143 1173 143 1173 196.5 1236 c 128,-1,3
 250 1299 250 1299 331.5 1338.5 c 128,-1,4
 413 1378 413 1378 508 1378 c 0,5,6
 609 1378 609 1378 690.5 1341.5 c 128,-1,7
 772 1305 772 1305 824.5 1244.5 c 128,-1,8
 877 1184 877 1184 913 1101 c 128,-1,9
 949 1018 949 1018 964 929 c 128,-1,10
 979 840 979 840 979 743 c 0,11,12
 979 633 979 633 959.5 528 c 128,-1,13
 940 423 940 423 896 324 c 128,-1,14
 852 225 852 225 789 150.5 c 128,-1,15
 726 76 726 76 631 31 c 128,-1,16
 536 -14 536 -14 422 -14 c 0,17,18
 284 -14 284 -14 176 33 c 1,19,-1
 176 231 l 1,20,21
 204 203 204 203 237 177 c 128,-1,22
 270 151 270 151 326.5 124.5 c 128,-1,23
 383 98 383 98 434 98 c 0,24,25
 509 98 509 98 572.5 134.5 c 128,-1,26
 636 171 636 171 679 230 c 128,-1,27
 722 289 722 289 753 366 c 128,-1,28
 784 443 784 443 798.5 522.5 c 128,-1,29
 813 602 813 602 815 680 c 1,30,31
 675 510 675 510 496 510 c 0,32,33
 308 510 308 510 195 630.5 c 128,-1,34
 82 751 82 751 82 938 c 0,0,1
240 936 m 0,35,36
 240 798 240 798 319 711.5 c 128,-1,37
 398 625 398 625 502 625 c 0,38,39
 628 625 628 625 717.5 719.5 c 128,-1,40
 807 814 807 814 807 926 c 0,41,42
 807 984 807 984 789.5 1040.5 c 128,-1,43
 772 1097 772 1097 737.5 1147.5 c 128,-1,44
 703 1198 703 1198 641.5 1229 c 128,-1,45
 580 1260 580 1260 500 1260 c 0,46,47
 423 1260 423 1260 362 1210.5 c 128,-1,48
 301 1161 301 1161 270.5 1088 c 128,-1,49
 240 1015 240 1015 240 936 c 0,35,36
EndSplineSet
Validated: 1
EndChar

StartChar: colon
Encoding: 58 58 29
Width: 372
GlyphClass: 2
Flags: W
LayerCount: 2
Fore
SplineSet
74 864 m 0,0,1
 74 908 74 908 102 936.5 c 128,-1,2
 130 965 130 965 170 965 c 128,-1,3
 210 965 210 965 237 936 c 128,-1,4
 264 907 264 907 264 864 c 0,5,6
 264 823 264 823 237 794.5 c 128,-1,7
 210 766 210 766 170 766 c 128,-1,8
 130 766 130 766 102 794 c 128,-1,9
 74 822 74 822 74 864 c 0,0,1
78 88 m 0,10,11
 78 128 78 128 106 157 c 128,-1,12
 134 186 134 186 174 186 c 0,13,14
 212 186 212 186 238 157 c 128,-1,15
 264 128 264 128 264 88 c 0,16,17
 264 45 264 45 238 16.5 c 128,-1,18
 212 -12 212 -12 174 -12 c 0,19,20
 134 -12 134 -12 106 17 c 128,-1,21
 78 46 78 46 78 88 c 0,10,11
EndSplineSet
Validated: 1
EndChar

StartChar: semicolon
Encoding: 59 59 30
Width: 391
GlyphClass: 2
Flags: W
LayerCount: 2
Fore
SplineSet
20 -197 m 1,0,1
 53 -146 53 -146 76.5 -68.5 c 128,-1,2
 100 9 100 9 100 47 c 0,3,4
 100 110 100 110 74 143 c 1,5,6
 152 166 152 166 238 166 c 1,7,8
 254 127 254 127 254 61 c 0,9,10
 254 -34 254 -34 129 -215 c 1,11,-1
 20 -197 l 1,0,1
74 864 m 0,12,13
 74 908 74 908 102 936.5 c 128,-1,14
 130 965 130 965 170 965 c 128,-1,15
 210 965 210 965 237 936 c 128,-1,16
 264 907 264 907 264 864 c 0,17,18
 264 823 264 823 237 794.5 c 128,-1,19
 210 766 210 766 170 766 c 128,-1,20
 130 766 130 766 102 794 c 128,-1,21
 74 822 74 822 74 864 c 0,12,13
EndSplineSet
Validated: 1
EndChar

StartChar: less
Encoding: 60 60 31
Width: 923
GlyphClass: 2
Flags: W
LayerCount: 2
Fore
SplineSet
72 535 m 2,0,-1
 72 600 l 2,1,2
 72 623 72 623 84 629 c 2,3,-1
 754 983 l 2,4,5
 764 988 764 988 784 983 c 1,6,-1
 801 967 l 2,7,8
 810 955 810 955 808.5 938 c 128,-1,9
 807 921 807 921 797 915 c 2,10,-1
 211 567 l 1,11,12
 313 511 313 511 518.5 394 c 128,-1,13
 724 277 724 277 782 244 c 0,14,15
 826 220 826 220 809 182 c 0,16,17
 802 163 802 163 786.5 158 c 128,-1,18
 771 153 771 153 760 160 c 2,19,-1
 88 504 l 2,20,21
 72 509 72 509 72 535 c 2,0,-1
EndSplineSet
Validated: 33
EndChar

StartChar: equal
Encoding: 61 61 32
Width: 962
GlyphClass: 2
Flags: W
LayerCount: 2
Fore
SplineSet
66 307 m 1,0,-1
 66 426 l 1,1,-1
 850 426 l 1,2,-1
 850 307 l 1,3,-1
 66 307 l 1,0,-1
66 717 m 1,4,-1
 66 829 l 1,5,-1
 850 829 l 1,6,-1
 850 717 l 1,7,-1
 66 717 l 1,4,-1
EndSplineSet
Validated: 1
EndChar

StartChar: greater
Encoding: 62 62 33
Width: 927
GlyphClass: 2
Flags: W
LayerCount: 2
Fore
SplineSet
74.5 935.5 m 128,-1,1
 73 952 73 952 84 965 c 0,2,3
 107 988 107 988 129 979 c 0,4,5
 275 891 275 891 799 623 c 0,6,7
 811 617 811 617 811 594 c 2,8,-1
 811 532 l 2,9,10
 811 513 811 513 797 502 c 1,11,-1
 799 502 l 1,12,-1
 717 459 l 2,13,14
 641 419 641 419 426.5 309.5 c 128,-1,15
 212 200 212 200 123 152 c 0,16,17
 119 148 119 148 110.5 149.5 c 128,-1,18
 102 151 102 151 96 158 c 1,19,-1
 100 158 l 1,20,21
 97 164 97 164 88 179.5 c 128,-1,22
 79 195 79 195 76 201 c 0,23,24
 76 219 76 219 88 225 c 0,25,26
 203 288 203 288 382.5 392.5 c 128,-1,27
 562 497 562 497 670 565 c 1,28,29
 437 715 437 715 86 911 c 0,30,0
 76 919 76 919 74.5 935.5 c 128,-1,1
EndSplineSet
Validated: 1
EndChar

StartChar: question
Encoding: 63 63 34
Width: 808
GlyphClass: 2
Flags: W
LayerCount: 2
Fore
SplineSet
53 1063 m 1,0,-1
 53 1255 l 1,1,2
 115 1310 115 1310 212.5 1345 c 128,-1,3
 310 1380 310 1380 395 1380 c 0,4,5
 545 1380 545 1380 639 1298.5 c 128,-1,6
 733 1217 733 1217 733 1069 c 0,7,8
 733 995 733 995 691.5 926 c 128,-1,9
 650 857 650 857 591 806 c 128,-1,10
 532 755 532 755 473.5 708.5 c 128,-1,11
 415 662 415 662 373.5 615 c 128,-1,12
 332 568 332 568 332 526 c 0,13,14
 332 495 332 495 348 477 c 128,-1,15
 364 459 364 459 393 459 c 0,16,17
 418 459 418 459 455 473 c 1,18,-1
 455 369 l 1,19,20
 424 346 424 346 375 346 c 0,21,22
 295 346 295 346 237.5 395.5 c 128,-1,23
 180 445 180 445 180 524 c 0,24,25
 180 591 180 591 220.5 656 c 128,-1,26
 261 721 261 721 319 772.5 c 128,-1,27
 377 824 377 824 434.5 871.5 c 128,-1,28
 492 919 492 919 532.5 971 c 128,-1,29
 573 1023 573 1023 573 1071 c 0,30,31
 573 1164 573 1164 526.5 1217 c 128,-1,32
 480 1270 480 1270 389 1270 c 0,33,34
 286 1270 286 1270 189 1212 c 128,-1,35
 92 1154 92 1154 53 1063 c 1,0,-1
244 90 m 128,-1,37
 244 131 244 131 271.5 160.5 c 128,-1,38
 299 190 299 190 340 190 c 128,-1,39
 381 190 381 190 408.5 161 c 128,-1,40
 436 132 436 132 436 90 c 128,-1,41
 436 48 436 48 408.5 19 c 128,-1,42
 381 -10 381 -10 340 -10 c 128,-1,43
 299 -10 299 -10 271.5 19.5 c 128,-1,36
 244 49 244 49 244 90 c 128,-1,37
EndSplineSet
Validated: 1
EndChar

StartChar: at
Encoding: 64 64 35
Width: 1542
GlyphClass: 2
Flags: W
LayerCount: 2
Fore
SplineSet
55 655 m 128,-1,1
 55 864 55 864 148 1028 c 128,-1,2
 241 1192 241 1192 409 1284 c 128,-1,3
 577 1376 577 1376 791 1376 c 0,4,5
 919 1376 919 1376 1040 1325 c 128,-1,6
 1161 1274 1161 1274 1250.5 1188.5 c 128,-1,7
 1340 1103 1340 1103 1394 984 c 128,-1,8
 1448 865 1448 865 1448 737 c 0,9,10
 1448 670 1448 670 1437.5 603 c 128,-1,11
 1427 536 1427 536 1403.5 470.5 c 128,-1,12
 1380 405 1380 405 1345.5 355.5 c 128,-1,13
 1311 306 1311 306 1258.5 275 c 128,-1,14
 1206 244 1206 244 1143 244 c 0,15,16
 1066 244 1066 244 1006.5 278 c 128,-1,17
 947 312 947 312 918 373 c 1,18,19
 886 331 886 331 828.5 294.5 c 128,-1,20
 771 258 771 258 727 258 c 0,21,22
 554 258 554 258 469.5 366.5 c 128,-1,23
 385 475 385 475 385 659 c 0,24,25
 385 828 385 828 476 938.5 c 128,-1,26
 567 1049 567 1049 725 1049 c 0,27,28
 781 1049 781 1049 841.5 1021 c 128,-1,29
 902 993 902 993 926 963 c 1,30,-1
 1053 1032 l 1,31,-1
 1053 481 l 2,32,33
 1053 350 1053 350 1139 350 c 0,34,35
 1233 350 1233 350 1286 462.5 c 128,-1,36
 1339 575 1339 575 1339 731 c 0,37,38
 1339 871 1339 871 1259.5 995 c 128,-1,39
 1180 1119 1180 1119 1052.5 1191.5 c 128,-1,40
 925 1264 925 1264 786 1264 c 0,41,42
 609 1264 609 1264 467.5 1188 c 128,-1,43
 326 1112 326 1112 246 974 c 128,-1,44
 166 836 166 836 166 662 c 0,45,46
 166 531 166 531 210 416.5 c 128,-1,47
 254 302 254 302 332.5 220.5 c 128,-1,48
 411 139 411 139 523.5 92 c 128,-1,49
 636 45 636 45 768 45 c 0,50,51
 859 45 859 45 942 77 c 128,-1,52
 1025 109 1025 109 1075 147 c 1,53,-1
 1098 33 l 1,54,55
 1053 0 1053 0 959.5 -33 c 128,-1,56
 866 -66 866 -66 768 -66 c 0,57,58
 558 -66 558 -66 395 26 c 128,-1,59
 232 118 232 118 143.5 282 c 128,-1,0
 55 446 55 446 55 655 c 128,-1,1
545 666 m 0,60,61
 545 614 545 614 555.5 564 c 128,-1,62
 566 514 566 514 587 469.5 c 128,-1,63
 608 425 608 425 646 398 c 128,-1,64
 684 371 684 371 733 371 c 0,65,66
 786 371 786 371 832 407.5 c 128,-1,67
 878 444 878 444 899 496 c 1,68,-1
 899 782 l 2,69,70
 899 838 899 838 843.5 887 c 128,-1,71
 788 936 788 936 713 936 c 0,72,73
 668 936 668 936 633.5 908 c 128,-1,74
 599 880 599 880 581 837 c 128,-1,75
 563 794 563 794 554 750 c 128,-1,76
 545 706 545 706 545 666 c 0,60,61
EndSplineSet
Validated: 1
EndChar

StartChar: A
Encoding: 65 65 36
Width: 1185
GlyphClass: 2
Flags: W
LayerCount: 2
Fore
SplineSet
31 0 m 1,0,-1
 559 1366 l 1,1,-1
 592 1366 l 1,2,-1
 1124 0 l 1,3,-1
 842 0 l 1,4,5
 877 14 877 14 899 52 c 0,6,7
 911 72 911 72 911 95 c 0,8,9
 911 116 911 116 901 141 c 2,10,-1
 821 350 l 1,11,-1
 289 350 l 1,12,-1
 154 0 l 1,13,-1
 31 0 l 1,0,-1
330 463 m 1,14,-1
 776 463 l 1,15,-1
 553 1042 l 1,16,-1
 330 463 l 1,14,-1
EndSplineSet
Validated: 1
EndChar

StartChar: B
Encoding: 66 66 37
Width: 1161
GlyphClass: 2
Flags: W
LayerCount: 2
Fore
SplineSet
41 0 m 1,0,1
 73 18 73 18 103 64 c 128,-1,2
 133 110 133 110 133 164 c 2,3,-1
 133 1366 l 1,4,-1
 657 1366 l 2,5,6
 790 1366 790 1366 887.5 1272.5 c 128,-1,7
 985 1179 985 1179 985 1042 c 0,8,9
 985 956 985 956 938.5 873.5 c 128,-1,10
 892 791 892 791 823 743 c 1,11,12
 914 704 914 704 977 613 c 128,-1,13
 1040 522 1040 522 1040 412 c 0,14,15
 1040 331 1040 331 1005 253.5 c 128,-1,16
 970 176 970 176 915.5 121 c 128,-1,17
 861 66 861 66 792.5 33 c 128,-1,18
 724 0 724 0 659 0 c 2,19,-1
 41 0 l 1,0,1
287 113 m 1,20,-1
 590 113 l 2,21,22
 693 113 693 113 789 201 c 128,-1,23
 885 289 885 289 885 401 c 0,24,25
 885 507 885 507 805 585.5 c 128,-1,26
 725 664 725 664 643 664 c 2,27,-1
 287 664 l 1,28,-1
 287 113 l 1,20,-1
287 776 m 1,29,-1
 578 776 l 2,30,31
 679 776 679 776 752 851 c 128,-1,32
 825 926 825 926 825 1024 c 0,33,34
 825 1119 825 1119 759.5 1186 c 128,-1,35
 694 1253 694 1253 598 1253 c 2,36,-1
 287 1253 l 1,37,-1
 287 776 l 1,29,-1
EndSplineSet
Validated: 1
EndChar

StartChar: C
Encoding: 67 67 38
Width: 1302
GlyphClass: 2
Flags: W
LayerCount: 2
Fore
SplineSet
92 713 m 0,0,1
 92 858 92 858 140.5 983 c 128,-1,2
 189 1108 189 1108 272 1194 c 128,-1,3
 355 1280 355 1280 469.5 1329 c 128,-1,4
 584 1378 584 1378 713 1378 c 0,5,6
 807 1378 807 1378 893 1363 c 128,-1,7
 979 1348 979 1348 1037 1325 c 128,-1,8
 1095 1302 1095 1302 1131 1282.5 c 128,-1,9
 1167 1263 1167 1263 1186 1247 c 1,10,-1
 1186 1055 l 1,11,12
 1156 1093 1156 1093 1115 1127.5 c 128,-1,13
 1074 1162 1074 1162 1016.5 1194.5 c 128,-1,14
 959 1227 959 1227 881 1246.5 c 128,-1,15
 803 1266 803 1266 717 1266 c 128,-1,16
 631 1266 631 1266 548 1228 c 128,-1,17
 465 1190 465 1190 398.5 1123 c 128,-1,18
 332 1056 332 1056 291 954 c 128,-1,19
 250 852 250 852 250 733 c 0,20,21
 250 607 250 607 279 500.5 c 128,-1,22
 308 394 308 394 356.5 321.5 c 128,-1,23
 405 249 405 249 468 197.5 c 128,-1,24
 531 146 531 146 597.5 122 c 128,-1,25
 664 98 664 98 731 98 c 0,26,27
 868 98 868 98 958.5 136 c 128,-1,28
 1049 174 1049 174 1124 244 c 0,29,30
 1165 282 1165 282 1188 324 c 1,31,-1
 1157 102 l 1,32,33
 1040 37 1040 37 956.5 11.5 c 128,-1,34
 873 -14 873 -14 721 -14 c 0,35,36
 588 -14 588 -14 474 32.5 c 128,-1,37
 360 79 360 79 274.5 167.5 c 128,-1,38
 189 256 189 256 140.5 396 c 128,-1,39
 92 536 92 536 92 713 c 0,0,1
EndSplineSet
Validated: 1
EndChar

StartChar: D
Encoding: 68 68 39
Width: 1286
GlyphClass: 2
Flags: W
LayerCount: 2
Fore
SplineSet
41 0 m 1,0,1
 74 19 74 19 103.5 68 c 128,-1,2
 133 117 133 117 133 164 c 2,3,-1
 133 1366 l 1,4,-1
 602 1366 l 2,5,6
 866 1366 866 1366 1021 1176 c 128,-1,7
 1176 986 1176 986 1176 682 c 0,8,9
 1176 541 1176 541 1135.5 418 c 128,-1,10
 1095 295 1095 295 1018 201.5 c 128,-1,11
 941 108 941 108 820 54 c 128,-1,12
 699 0 699 0 549 0 c 2,13,-1
 41 0 l 1,0,1
287 113 m 1,14,-1
 602 113 l 2,15,16
 701 113 701 113 797 188.5 c 128,-1,17
 893 264 893 264 955.5 397.5 c 128,-1,18
 1018 531 1018 531 1018 684 c 0,19,20
 1018 788 1018 788 988 890.5 c 128,-1,21
 958 993 958 993 907 1073 c 128,-1,22
 856 1153 856 1153 782.5 1203 c 128,-1,23
 709 1253 709 1253 629 1253 c 2,24,-1
 287 1253 l 1,25,-1
 287 113 l 1,14,-1
EndSplineSet
Validated: 1
EndChar

StartChar: E
Encoding: 69 69 40
Width: 1021
GlyphClass: 2
Flags: W
LayerCount: 2
Fore
SplineSet
133 0 m 1,0,-1
 133 1366 l 1,1,-1
 899 1366 l 1,2,-1
 899 1163 l 1,3,4
 859 1207 859 1207 807.5 1230 c 128,-1,5
 756 1253 756 1253 657 1253 c 2,6,-1
 287 1253 l 1,7,-1
 287 776 l 1,8,-1
 793 776 l 1,9,-1
 793 573 l 1,10,11
 721 664 721 664 549 664 c 2,12,-1
 287 664 l 1,13,-1
 287 113 l 1,14,-1
 901 113 l 1,15,-1
 899 0 l 1,16,-1
 133 0 l 1,0,-1
EndSplineSet
Validated: 1
EndChar

StartChar: F
Encoding: 70 70 41
Width: 1001
GlyphClass: 2
Flags: W
LayerCount: 2
Fore
SplineSet
133 0 m 1,0,-1
 133 1366 l 1,1,-1
 899 1366 l 1,2,-1
 899 1163 l 1,3,4
 859 1207 859 1207 807.5 1230 c 128,-1,5
 756 1253 756 1253 657 1253 c 2,6,-1
 287 1253 l 1,7,-1
 287 776 l 1,8,-1
 793 776 l 1,9,-1
 793 573 l 1,10,11
 721 664 721 664 549 664 c 2,12,-1
 287 664 l 1,13,-1
 287 0 l 1,14,-1
 133 0 l 1,0,-1
EndSplineSet
Validated: 1
EndChar

StartChar: G
Encoding: 71 71 42
Width: 1325
GlyphClass: 2
Flags: W
LayerCount: 2
Fore
SplineSet
92 692 m 0,0,1
 92 872 92 872 155.5 1012 c 128,-1,2
 219 1152 219 1152 332 1243 c 0,3,4
 498 1378 498 1378 723 1378 c 0,5,6
 877 1378 877 1378 995.5 1340 c 128,-1,7
 1114 1302 1114 1302 1186 1251 c 1,8,-1
 1186 1057 l 1,9,10
 1131 1134 1131 1134 1003.5 1201 c 128,-1,11
 876 1268 876 1268 721 1268 c 0,12,13
 553 1268 553 1268 420 1147 c 0,14,15
 250 991 250 991 250 702 c 0,16,17
 250 442 250 442 399 258 c 0,18,19
 455 190 455 190 540.5 145 c 128,-1,20
 626 100 626 100 705 100 c 0,21,22
 943 100 943 100 1055 274 c 1,23,-1
 1055 625 l 2,24,25
 1055 700 1055 700 930 786 c 1,26,-1
 1208 786 l 1,27,-1
 1208 270 l 1,28,29
 1201 247 1201 247 1144 187 c 128,-1,30
 1087 127 1087 127 1065 113 c 0,31,32
 1011 76 1011 76 969 53 c 128,-1,33
 927 30 927 30 854 9 c 128,-1,34
 781 -12 781 -12 702 -12 c 0,35,36
 479 -12 479 -12 317 129 c 0,37,38
 212 222 212 222 152 365 c 128,-1,39
 92 508 92 508 92 692 c 0,0,1
EndSplineSet
Validated: 1
EndChar

StartChar: H
Encoding: 72 72 43
Width: 1255
GlyphClass: 2
Flags: W
LayerCount: 2
Fore
SplineSet
133 0 m 1,0,-1
 133 1366 l 1,1,-1
 377 1366 l 1,2,3
 333 1336 333 1336 310 1304.5 c 128,-1,4
 287 1273 287 1273 287 1223 c 2,5,-1
 287 776 l 1,6,-1
 938 776 l 1,7,-1
 938 1366 l 1,8,-1
 1092 1366 l 1,9,-1
 1092 0 l 1,10,-1
 848 0 l 1,11,12
 892 30 892 30 915 61.5 c 128,-1,13
 938 93 938 93 938 143 c 2,14,-1
 938 664 l 1,15,-1
 287 664 l 1,16,-1
 287 0 l 1,17,-1
 133 0 l 1,0,-1
EndSplineSet
Validated: 1
EndChar

StartChar: I
Encoding: 73 73 44
Width: 526
GlyphClass: 2
Flags: W
LayerCount: 2
Fore
SplineSet
74 0 m 1,0,1
 118 30 118 30 141 61.5 c 128,-1,2
 164 93 164 93 164 143 c 2,3,-1
 164 1366 l 1,4,-1
 317 1366 l 1,5,-1
 317 0 l 1,6,-1
 74 0 l 1,0,1
EndSplineSet
Validated: 1
EndChar

StartChar: J
Encoding: 74 74 45
Width: 569
GlyphClass: 2
Flags: W
LayerCount: 2
Fore
SplineSet
-82 -195 m 1,0,1
 -58 -199 -58 -199 -35 -199 c 0,2,3
 15 -199 15 -199 61 -180 c 0,4,5
 129 -153 129 -153 164 -94 c 0,6,7
 219 -1 219 -1 219 137 c 2,8,-1
 219 1239 l 2,9,10
 219 1277 219 1277 194.5 1312 c 128,-1,11
 170 1347 170 1347 137 1366 c 1,12,-1
 373 1366 l 1,13,-1
 373 164 l 2,14,15
 373 -26 373 -26 283 -152 c 0,16,17
 232 -223 232 -223 147 -260 c 0,18,19
 72 -292 72 -292 -9 -292 c 0,20,21
 -20 -292 -20 -292 -31 -291 c 1,22,-1
 -82 -195 l 1,0,1
EndSplineSet
Validated: 1
EndChar

StartChar: K
Encoding: 75 75 46
Width: 1136
GlyphClass: 2
Flags: W
LayerCount: 2
Fore
SplineSet
133 0 m 1,0,-1
 133 1366 l 1,1,-1
 377 1366 l 1,2,3
 333 1336 333 1336 310 1304.5 c 128,-1,4
 287 1273 287 1273 287 1223 c 2,5,-1
 287 668 l 1,6,-1
 289 659 l 1,7,-1
 891 1366 l 1,8,-1
 1036 1366 l 1,9,-1
 582 829 l 1,10,-1
 1096 0 l 1,11,-1
 780 0 l 1,12,13
 834 32 834 32 834 70 c 0,14,15
 834 128 834 128 733 285 c 2,16,-1
 471 696 l 1,17,-1
 287 483 l 1,18,-1
 287 0 l 1,19,-1
 133 0 l 1,0,-1
EndSplineSet
Validated: 1
EndChar

StartChar: L
Encoding: 76 76 47
Width: 1011
GlyphClass: 2
Flags: W
LayerCount: 2
Fore
SplineSet
133 0 m 1,0,-1
 133 1366 l 1,1,-1
 287 1366 l 1,2,-1
 287 113 l 1,3,-1
 631 113 l 2,4,5
 703 113 703 113 782 143 c 128,-1,6
 861 173 861 173 899 215 c 1,7,8
 901 195 901 195 901 141.5 c 128,-1,9
 901 88 901 88 900 44 c 2,10,-1
 899 0 l 1,11,-1
 133 0 l 1,0,-1
EndSplineSet
Validated: 1
EndChar

StartChar: M
Encoding: 77 77 48
Width: 1677
GlyphClass: 2
Flags: W
LayerCount: 2
Fore
SplineSet
39 1366 m 1,0,-1
 299 1366 l 1,1,-1
 829 270 l 1,2,-1
 1346 1366 l 1,3,-1
 1509 1366 l 1,4,-1
 1509 0 l 1,5,-1
 1266 0 l 1,6,7
 1310 30 1310 30 1333 61.5 c 128,-1,8
 1356 93 1356 93 1356 143 c 2,9,-1
 1356 1102 l 1,10,-1
 1346 1106 l 1,11,-1
 829 0 l 1,12,-1
 784 0 l 1,13,-1
 258 1096 l 1,14,-1
 246 1092 l 1,15,-1
 246 0 l 1,16,-1
 133 0 l 1,17,-1
 133 1219 l 2,18,19
 133 1258 133 1258 102.5 1305 c 128,-1,20
 72 1352 72 1352 39 1366 c 1,0,-1
EndSplineSet
Validated: 1
EndChar

StartChar: N
Encoding: 78 78 49
Width: 1282
GlyphClass: 2
Flags: W
LayerCount: 2
Fore
SplineSet
41 1366 m 1,0,-1
 260 1366 l 1,1,-1
 1020 258 l 1,2,-1
 1020 1366 l 1,3,-1
 1130 1366 l 1,4,-1
 1133 0 l 1,5,-1
 1014 0 l 1,6,-1
 248 1112 l 1,7,-1
 248 0 l 1,8,-1
 133 0 l 1,9,-1
 133 1239 l 2,10,11
 133 1276 133 1276 103.5 1312.5 c 128,-1,12
 74 1349 74 1349 41 1366 c 1,0,-1
EndSplineSet
Validated: 1
EndChar

StartChar: O
Encoding: 79 79 50
Width: 1388
GlyphClass: 2
Flags: W
LayerCount: 2
Fore
SplineSet
61 676 m 0,0,1
 61 838 61 838 109 972 c 128,-1,2
 157 1106 157 1106 240.5 1194 c 128,-1,3
 324 1282 324 1282 435.5 1330 c 128,-1,4
 547 1378 547 1378 674 1378 c 0,5,6
 775 1378 775 1378 868.5 1345.5 c 128,-1,7
 962 1313 962 1313 1038 1250.5 c 128,-1,8
 1114 1188 1114 1188 1171 1103 c 128,-1,9
 1228 1018 1228 1018 1259 908 c 128,-1,10
 1290 798 1290 798 1290 676 c 0,11,12
 1290 511 1290 511 1240.5 378 c 128,-1,13
 1191 245 1191 245 1105.5 160.5 c 128,-1,14
 1020 76 1020 76 909.5 31 c 128,-1,15
 799 -14 799 -14 674 -14 c 0,16,17
 406 -14 406 -14 233.5 178 c 128,-1,18
 61 370 61 370 61 676 c 0,0,1
223 731 m 0,19,20
 223 439 223 439 352.5 269.5 c 128,-1,21
 482 100 482 100 694 100 c 0,22,23
 779 100 779 100 857.5 139 c 128,-1,24
 936 178 936 178 996 247.5 c 128,-1,25
 1056 317 1056 317 1092 421.5 c 128,-1,26
 1128 526 1128 526 1128 649 c 0,27,28
 1128 739 1128 739 1109.5 826.5 c 128,-1,29
 1091 914 1091 914 1052 993.5 c 128,-1,30
 1013 1073 1013 1073 958 1133.5 c 128,-1,31
 903 1194 903 1194 824.5 1230 c 128,-1,32
 746 1266 746 1266 655 1266 c 0,33,34
 570 1266 570 1266 493 1230.5 c 128,-1,35
 416 1195 416 1195 355.5 1129 c 128,-1,36
 295 1063 295 1063 259 960 c 128,-1,37
 223 857 223 857 223 731 c 0,19,20
EndSplineSet
Validated: 1
EndChar

StartChar: P
Encoding: 80 80 51
Width: 1064
GlyphClass: 2
Flags: W
LayerCount: 2
Fore
SplineSet
41 1366 m 1,0,-1
 557 1366 l 2,1,2
 758 1366 758 1366 872.5 1252.5 c 128,-1,3
 987 1139 987 1139 987 973 c 0,4,5
 987 870 987 870 950.5 790.5 c 128,-1,6
 914 711 914 711 851 663.5 c 128,-1,7
 788 616 788 616 711 592.5 c 128,-1,8
 634 569 634 569 547 569 c 2,9,-1
 287 569 l 1,10,-1
 287 0 l 1,11,-1
 133 0 l 1,12,-1
 133 1219 l 2,13,14
 133 1258 133 1258 104 1303 c 128,-1,15
 75 1348 75 1348 41 1366 c 1,0,-1
287 682 m 1,16,-1
 514 682 l 2,17,18
 569 682 569 682 621.5 698.5 c 128,-1,19
 674 715 674 715 720 747.5 c 128,-1,20
 766 780 766 780 794.5 836.5 c 128,-1,21
 823 893 823 893 823 965 c 0,22,23
 823 1089 823 1089 742.5 1171 c 128,-1,24
 662 1253 662 1253 528 1253 c 2,25,-1
 287 1253 l 1,26,-1
 287 682 l 1,16,-1
EndSplineSet
Validated: 1
EndChar

StartChar: Q
Encoding: 81 81 52
Width: 1402
GlyphClass: 2
Flags: W
LayerCount: 2
Fore
SplineSet
82 676 m 0,0,1
 82 838 82 838 130 972 c 128,-1,2
 178 1106 178 1106 261.5 1194 c 128,-1,3
 345 1282 345 1282 456 1330 c 128,-1,4
 567 1378 567 1378 694 1378 c 0,5,6
 820 1378 820 1378 933.5 1326.5 c 128,-1,7
 1047 1275 1047 1275 1130 1184 c 128,-1,8
 1213 1093 1213 1093 1262 961 c 128,-1,9
 1311 829 1311 829 1311 676 c 0,10,11
 1311 525 1311 525 1268.5 399.5 c 128,-1,12
 1226 274 1226 274 1152 189 c 128,-1,13
 1078 104 1078 104 981.5 53 c 128,-1,14
 885 2 885 2 774 -10 c 1,15,16
 786 -129 786 -129 827 -197 c 0,17,18
 862 -256 862 -256 920 -282.5 c 128,-1,19
 978 -309 978 -309 1071 -309 c 1,20,21
 1032 -397 1032 -397 1022 -397 c 0,22,23
 1014 -397 1014 -397 1006 -397 c 0,24,25
 924 -397 924 -397 847 -360 c 0,26,27
 762 -320 762 -320 709 -248 c 0,28,29
 675 -203 675 -203 648 -122 c 128,-1,30
 621 -41 621 -41 623 -10 c 1,31,32
 382 12 382 12 232 202 c 128,-1,33
 82 392 82 392 82 676 c 0,0,1
246 731 m 0,34,35
 246 439 246 439 374.5 269.5 c 128,-1,36
 503 100 503 100 715 100 c 0,37,38
 800 100 800 100 878 139 c 128,-1,39
 956 178 956 178 1016 247.5 c 128,-1,40
 1076 317 1076 317 1111.5 421.5 c 128,-1,41
 1147 526 1147 526 1147 649 c 0,42,43
 1147 739 1147 739 1128.5 826.5 c 128,-1,44
 1110 914 1110 914 1071.5 993.5 c 128,-1,45
 1033 1073 1033 1073 978.5 1133.5 c 128,-1,46
 924 1194 924 1194 845.5 1230 c 128,-1,47
 767 1266 767 1266 676 1266 c 0,48,49
 591 1266 591 1266 514.5 1230.5 c 128,-1,50
 438 1195 438 1195 377.5 1129 c 128,-1,51
 317 1063 317 1063 281.5 960 c 128,-1,52
 246 857 246 857 246 731 c 0,34,35
EndSplineSet
Validated: 33
EndChar

StartChar: R
Encoding: 82 82 53
Width: 1128
GlyphClass: 2
Flags: W
LayerCount: 2
Fore
SplineSet
43 1366 m 1,0,-1
 549 1366 l 2,1,2
 750 1366 750 1366 866.5 1251.5 c 128,-1,3
 983 1137 983 1137 983 971 c 0,4,5
 983 807 983 807 893.5 710.5 c 128,-1,6
 804 614 804 614 659 582 c 1,7,-1
 1028 0 l 1,8,-1
 842 0 l 1,9,-1
 489 569 l 1,10,-1
 287 569 l 1,11,-1
 287 143 l 2,12,13
 287 93 287 93 310 61.5 c 128,-1,14
 333 30 333 30 377 0 c 1,15,-1
 133 0 l 1,16,-1
 133 1223 l 2,17,18
 133 1273 133 1273 110 1304.5 c 128,-1,19
 87 1336 87 1336 43 1366 c 1,0,-1
287 682 m 1,20,-1
 512 682 l 2,21,22
 567 682 567 682 619.5 698 c 128,-1,23
 672 714 672 714 718 746.5 c 128,-1,24
 764 779 764 779 792.5 835 c 128,-1,25
 821 891 821 891 821 963 c 0,26,27
 821 1088 821 1088 740.5 1170.5 c 128,-1,28
 660 1253 660 1253 526 1253 c 2,29,-1
 287 1253 l 1,30,-1
 287 682 l 1,20,-1
EndSplineSet
Validated: 1
EndChar

StartChar: S
Encoding: 83 83 54
Width: 1093
GlyphClass: 2
Flags: W
LayerCount: 2
Fore
SplineSet
84 217 m 0,0,1
 81 240 81 240 81 267 c 128,-1,2
 81 294 81 294 84 326 c 1,3,4
 138 229 138 229 259.5 163.5 c 128,-1,5
 381 98 381 98 516 98 c 0,6,7
 635 98 635 98 721 176 c 128,-1,8
 807 254 807 254 807 356 c 0,9,10
 807 426 807 426 776 471 c 128,-1,11
 745 516 745 516 682 555 c 0,12,13
 625 590 625 590 496.5 650.5 c 128,-1,14
 368 711 368 711 313 743 c 0,15,16
 213 801 213 801 157.5 870 c 128,-1,17
 102 939 102 939 102 1044 c 0,18,19
 102 1202 102 1202 223.5 1294 c 128,-1,20
 345 1386 345 1386 537 1386 c 0,21,22
 654 1386 654 1386 750.5 1362 c 128,-1,23
 847 1338 847 1338 954 1286 c 1,24,25
 958 1268 958 1268 959 1231 c 0,26,27
 959 1213 959 1213 960 1187 c 0,28,29
 960 1160 960 1160 959 1128 c 0,30,31
 958 1062 958 1062 958 1059 c 1,32,33
 946 1097 946 1097 922 1129 c 128,-1,34
 898 1161 898 1161 866.5 1184.5 c 128,-1,35
 835 1208 835 1208 797.5 1225.5 c 128,-1,36
 760 1243 760 1243 718 1253.5 c 128,-1,37
 676 1264 676 1264 633.5 1269 c 128,-1,38
 591 1274 591 1274 547 1274 c 0,39,40
 479 1274 479 1274 414 1248 c 128,-1,41
 349 1222 349 1222 304.5 1172.5 c 128,-1,42
 260 1123 260 1123 260 1063 c 0,43,44
 260 1004 260 1004 289.5 963.5 c 128,-1,45
 319 923 319 923 371 891 c 0,46,47
 407 868 407 868 453 843.5 c 128,-1,48
 499 819 499 819 538 799.5 c 128,-1,49
 577 780 577 780 635 751 c 128,-1,50
 693 722 693 722 739 698 c 0,51,52
 781 675 781 675 812 654.5 c 128,-1,53
 843 634 843 634 874.5 605 c 128,-1,54
 906 576 906 576 925.5 544 c 128,-1,55
 945 512 945 512 957 469 c 128,-1,56
 969 426 969 426 969 375 c 0,57,58
 969 284 969 284 931.5 209 c 128,-1,59
 894 134 894 134 829.5 86 c 128,-1,60
 765 38 765 38 682 12 c 128,-1,61
 599 -14 599 -14 506 -14 c 0,62,63
 421 -14 421 -14 335 8.5 c 128,-1,64
 249 31 249 31 197.5 56 c 128,-1,65
 146 81 146 81 111 106 c 1,66,67
 90 171 90 171 84 217 c 0,0,1
EndSplineSet
Validated: 1
EndChar

StartChar: T
Encoding: 84 84 55
Width: 1292
GlyphClass: 2
Flags: W
LayerCount: 2
Fore
SplineSet
55 1163 m 1,0,-1
 55 1366 l 1,1,-1
 1217 1366 l 1,2,-1
 1214 1251 l 1,3,-1
 713 1251 l 1,4,-1
 713 0 l 1,5,-1
 469 0 l 1,6,7
 513 30 513 30 536 61.5 c 128,-1,8
 559 93 559 93 559 143 c 2,9,-1
 559 1251 l 1,10,-1
 246 1251 l 2,11,12
 194 1251 194 1251 154 1235.5 c 128,-1,13
 114 1220 114 1220 97 1205.5 c 128,-1,14
 80 1191 80 1191 55 1163 c 1,0,-1
EndSplineSet
Validated: 1
EndChar

StartChar: U
Encoding: 85 85 56
Width: 1220
GlyphClass: 2
Flags: W
LayerCount: 2
Fore
SplineSet
133 602 m 2,0,-1
 133 1366 l 1,1,-1
 379 1366 l 1,2,3
 343 1350 343 1350 315 1313.5 c 128,-1,4
 287 1277 287 1277 287 1239 c 2,5,-1
 287 567 l 2,6,7
 287 455 287 455 304 372 c 128,-1,8
 321 289 321 289 351 237 c 128,-1,9
 381 185 381 185 428 153.5 c 128,-1,10
 475 122 475 122 528 110 c 128,-1,11
 581 98 581 98 651 98 c 0,12,13
 744 98 744 98 819.5 159 c 128,-1,14
 895 220 895 220 937 321.5 c 128,-1,15
 979 423 979 423 979 541 c 2,16,-1
 979 1366 l 1,17,-1
 1092 1366 l 1,18,-1
 1092 549 l 2,19,20
 1092 385 1092 385 1040 258.5 c 128,-1,21
 988 132 988 132 887 60 c 128,-1,22
 786 -12 786 -12 649 -12 c 0,23,24
 505 -12 505 -12 404 28.5 c 128,-1,25
 303 69 303 69 244 150.5 c 128,-1,26
 185 232 185 232 159 342 c 128,-1,27
 133 452 133 452 133 602 c 2,0,-1
EndSplineSet
Validated: 1
EndChar

StartChar: V
Encoding: 86 86 57
Width: 1155
GlyphClass: 2
Flags: W
LayerCount: 2
Fore
SplineSet
0 1366 m 1,0,-1
 266 1366 l 1,1,2
 236 1350 236 1350 224 1302 c 0,3,4
 218 1277 218 1277 218 1255 c 0,5,6
 218 1236 218 1236 223 1221 c 2,7,-1
 573 299 l 1,8,-1
 993 1366 l 1,9,-1
 1112 1366 l 1,10,-1
 578 0 l 1,11,-1
 526 0 l 1,12,-1
 0 1366 l 1,0,-1
EndSplineSet
Validated: 1
EndChar

StartChar: W
Encoding: 87 87 58
Width: 2004
GlyphClass: 2
Flags: W
LayerCount: 2
Fore
SplineSet
0 1366 m 1,0,-1
 268 1366 l 1,1,2
 238 1344 238 1344 226 1296 c 0,3,4
 219 1270 219 1270 220 1248 c 0,5,6
 220 1229 220 1229 225 1214 c 2,7,-1
 535 315 l 1,8,-1
 909 1366 l 1,9,-1
 1135 1366 l 1,10,11
 1106 1340 1106 1340 1088 1292 c 0,12,13
 1077 1261 1077 1261 1077 1238 c 0,14,15
 1077 1225 1077 1225 1081 1214 c 2,16,-1
 1382 328 l 1,17,18
 1634 1031 1634 1031 1757 1366 c 1,19,-1
 1878 1366 l 1,20,-1
 1384 0 l 1,21,-1
 1331 0 l 1,22,-1
 948 1124 l 1,23,-1
 549 0 l 1,24,-1
 496 0 l 1,25,-1
 0 1366 l 1,0,-1
EndSplineSet
Validated: 1
EndChar

StartChar: X
Encoding: 88 88 59
Width: 1142
GlyphClass: 2
Flags: W
LayerCount: 2
Fore
SplineSet
23 0 m 1,0,-1
 471 666 l 1,1,-1
 23 1366 l 1,2,-1
 309 1366 l 1,3,4
 283 1345 283 1345 281 1309 c 0,5,6
 281 1303 281 1303 281 1298 c 0,7,8
 281 1269 281 1269 290 1245 c 0,9,10
 301 1217 301 1217 317 1192 c 2,11,-1
 565 807 l 1,12,-1
 942 1366 l 1,13,-1
 1079 1366 l 1,14,-1
 633 702 l 1,15,-1
 1083 0 l 1,16,-1
 797 0 l 1,17,18
 827 23 827 23 827 63 c 0,19,20
 827 97 827 97 805 143 c 1,21,-1
 539 561 l 1,22,-1
 160 0 l 1,23,-1
 23 0 l 1,0,-1
EndSplineSet
Validated: 1
EndChar

StartChar: Y
Encoding: 89 89 60
Width: 1142
GlyphClass: 2
Flags: W
LayerCount: 2
Fore
SplineSet
23 1366 m 1,0,-1
 285 1366 l 1,1,2
 259 1344 259 1344 259 1310 c 0,3,4
 259 1270 259 1270 295 1214 c 2,5,-1
 596 715 l 1,6,-1
 981 1366 l 1,7,-1
 1112 1366 l 1,8,-1
 647 580 l 1,9,-1
 647 0 l 1,10,-1
 494 0 l 1,11,-1
 494 578 l 1,12,-1
 23 1366 l 1,0,-1
EndSplineSet
Validated: 1
EndChar

StartChar: Z
Encoding: 90 90 61
Width: 1196
GlyphClass: 2
Flags: W
LayerCount: 2
Fore
SplineSet
82 70 m 1,0,-1
 852 1253 l 1,1,-1
 344 1253 l 2,2,3
 245 1253 245 1253 193.5 1230 c 128,-1,4
 142 1207 142 1207 102 1163 c 1,5,-1
 102 1366 l 1,6,-1
 1059 1366 l 1,7,-1
 1075 1313 l 1,8,-1
 295 113 l 1,9,-1
 1079 113 l 1,10,-1
 1079 0 l 1,11,-1
 98 0 l 1,12,-1
 82 70 l 1,0,-1
EndSplineSet
Validated: 1
EndChar

StartChar: bracketleft
Encoding: 91 91 62
Width: 677
GlyphClass: 2
Flags: W
LayerCount: 2
Fore
SplineSet
106 -18 m 1,0,-1
 111 1386 l 1,1,-1
 537 1386 l 1,2,-1
 543 1292 l 1,3,-1
 250 1264 l 1,4,-1
 250 111 l 1,5,-1
 553 82 l 1,6,-1
 555 -18 l 1,7,-1
 106 -18 l 1,0,-1
EndSplineSet
Validated: 1
EndChar

StartChar: backslash
Encoding: 92 92 63
Width: 987
GlyphClass: 2
Flags: W
LayerCount: 2
Fore
SplineSet
39 1372 m 1,0,-1
 174 1372 l 1,1,2
 298 1144 298 1144 542.5 686 c 128,-1,3
 787 228 787 228 911 0 c 1,4,-1
 776 0 l 1,5,-1
 39 1372 l 1,0,-1
EndSplineSet
Validated: 1
EndChar

StartChar: bracketright
Encoding: 93 93 64
Width: 677
GlyphClass: 2
Flags: W
LayerCount: 2
Fore
SplineSet
106 -18 m 1,0,-1
 109 82 l 1,1,-1
 412 111 l 1,2,-1
 412 1264 l 1,3,-1
 119 1292 l 1,4,-1
 125 1386 l 1,5,-1
 551 1386 l 1,6,-1
 555 -18 l 1,7,-1
 106 -18 l 1,0,-1
EndSplineSet
Validated: 1
EndChar

StartChar: asciicircum
Encoding: 94 94 65
Width: 923
GlyphClass: 2
Flags: W
LayerCount: 2
Fore
SplineSet
72 885 m 1,0,-1
 471 1407 l 1,1,-1
 872 885 l 1,2,-1
 692 885 l 1,3,-1
 477 1178 l 1,4,-1
 256 885 l 1,5,-1
 72 885 l 1,0,-1
EndSplineSet
Validated: 1
EndChar

StartChar: underscore
Encoding: 95 95 66
Width: 2113
GlyphClass: 2
Flags: W
LayerCount: 2
Fore
SplineSet
-45 -221 m 2,0,1
 -45 -197 -45 -197 -23 -197 c 2,2,-1
 2146 -197 l 2,3,4
 2157 -197 2157 -197 2163 -204.5 c 128,-1,5
 2169 -212 2169 -212 2169 -221 c 2,6,-1
 2169 -264 l 2,7,8
 2169 -273 2169 -273 2163 -281 c 128,-1,9
 2157 -289 2157 -289 2146 -289 c 2,10,-1
 -23 -289 l 2,11,12
 -34 -289 -34 -289 -39.5 -281 c 128,-1,13
 -45 -273 -45 -273 -45 -264 c 2,14,-1
 -45 -221 l 2,0,1
EndSplineSet
Validated: 1
EndChar

StartChar: grave
Encoding: 96 96 67
Width: 866
GlyphClass: 2
Flags: W
LayerCount: 2
Fore
SplineSet
367 1366 m 1,0,-1
 539 1366 l 1,1,-1
 813 1092 l 1,2,-1
 702 1094 l 1,3,-1
 367 1366 l 1,0,-1
EndSplineSet
Validated: 1
EndChar

StartChar: a
Encoding: 97 97 68
Width: 1040
GlyphClass: 2
Flags: W
LayerCount: 2
Fore
SplineSet
94 266 m 0,0,1
 94 402 94 402 198 492.5 c 128,-1,2
 302 583 302 583 479 623 c 2,3,-1
 700 674 l 1,4,5
 700 679 700 679 700 684 c 0,6,7
 700 770 700 770 654 820 c 0,8,9
 604 872 604 872 514 872 c 0,10,11
 427 872 427 872 335 830 c 128,-1,12
 243 788 243 788 166 717 c 1,13,14
 165 728 165 728 165 739 c 0,15,16
 165 789 165 789 180 840 c 1,17,18
 224 890 224 890 329 937.5 c 128,-1,19
 434 985 434 985 516 985 c 0,20,21
 848 985 848 985 848 682 c 2,22,-1
 848 164 l 2,23,24
 848 125 848 125 877 72.5 c 128,-1,25
 906 20 906 20 938 0 c 1,26,-1
 694 0 l 1,27,-1
 694 96 l 1,28,29
 540 -12 540 -12 385 -12 c 0,30,31
 253 -10 253 -10 173.5 64 c 128,-1,32
 94 138 94 138 94 266 c 0,0,1
248 270 m 0,33,34
 248 202 248 202 294 148 c 0,35,36
 334 101 334 101 401 101 c 0,37,38
 411 101 411 101 422 102 c 0,39,40
 485 108 485 108 564 137 c 128,-1,41
 643 166 643 166 694 205 c 1,42,-1
 694 557 l 1,43,-1
 535 520 l 2,44,45
 248 456 248 456 248 270 c 0,33,34
EndSplineSet
Validated: 1
EndChar

StartChar: b
Encoding: 98 98 69
Width: 1052
GlyphClass: 2
Flags: W
LayerCount: 2
Fore
SplineSet
123 6 m 1,0,-1
 123 1405 l 1,1,-1
 340 1487 l 1,2,3
 318 1455 318 1455 297 1386 c 128,-1,4
 276 1317 276 1317 276 1280 c 2,5,-1
 276 913 l 1,6,7
 398 985 398 985 528 985 c 0,8,9
 728 985 728 985 844.5 853.5 c 128,-1,10
 961 722 961 722 961 487 c 0,11,12
 961 272 961 272 834 131 c 128,-1,13
 707 -10 707 -10 512 -10 c 0,14,15
 249 -10 249 -10 123 6 c 1,0,-1
276 123 m 1,16,17
 361 104 361 104 520 104 c 0,18,19
 632 104 632 104 717.5 209 c 128,-1,20
 803 314 803 314 803 481 c 0,21,22
 803 667 803 667 731 769.5 c 128,-1,23
 659 872 659 872 522 872 c 0,24,25
 456 872 456 872 387.5 845 c 128,-1,26
 319 818 319 818 276 772 c 1,27,-1
 276 123 l 1,16,17
EndSplineSet
Validated: 1
EndChar

StartChar: c
Encoding: 99 99 70
Width: 989
GlyphClass: 2
Flags: W
LayerCount: 2
Fore
SplineSet
90 498 m 0,0,1
 90 651 90 651 153.5 763.5 c 128,-1,2
 217 876 217 876 319.5 930.5 c 128,-1,3
 422 985 422 985 547 985 c 0,4,5
 660 985 660 985 746.5 955 c 128,-1,6
 833 925 833 925 881 889 c 1,7,-1
 881 698 l 1,8,9
 837 771 837 771 743 822.5 c 128,-1,10
 649 874 649 874 547 874 c 0,11,12
 416 874 416 874 333 768.5 c 128,-1,13
 250 663 250 663 250 508 c 0,14,15
 250 321 250 321 330.5 210.5 c 128,-1,16
 411 100 411 100 555 100 c 0,17,18
 645 100 645 100 736 136.5 c 128,-1,19
 827 173 827 173 887 213 c 1,20,21
 866 111 866 111 854 86 c 1,22,23
 801 48 801 48 713 19 c 128,-1,24
 625 -10 625 -10 539 -10 c 0,25,26
 335 -10 335 -10 212.5 118 c 128,-1,27
 90 246 90 246 90 498 c 0,0,1
EndSplineSet
Validated: 1
EndChar

StartChar: d
Encoding: 100 100 71
Width: 1062
GlyphClass: 2
Flags: W
LayerCount: 2
Fore
SplineSet
92 487 m 0,0,1
 92 722 92 722 208 853.5 c 128,-1,2
 324 985 324 985 524 985 c 0,3,4
 654 985 654 985 776 913 c 1,5,-1
 776 1405 l 1,6,-1
 993 1487 l 1,7,8
 970 1450 970 1450 950 1387 c 128,-1,9
 930 1324 930 1324 930 1280 c 2,10,-1
 930 8 l 1,11,12
 771 -10 771 -10 524 -10 c 0,13,14
 330 -10 330 -10 211 129.5 c 128,-1,15
 92 269 92 269 92 487 c 0,0,1
250 481 m 0,16,17
 250 314 250 314 333.5 210 c 128,-1,18
 417 106 417 106 526 106 c 0,19,20
 698 106 698 106 776 127 c 1,21,-1
 776 772 l 1,22,23
 733 818 733 818 664.5 845 c 128,-1,24
 596 872 596 872 530 872 c 0,25,26
 393 872 393 872 321.5 770 c 128,-1,27
 250 668 250 668 250 481 c 0,16,17
EndSplineSet
Validated: 1
EndChar

StartChar: e
Encoding: 101 101 72
Width: 1062
GlyphClass: 2
Flags: W
LayerCount: 2
Fore
SplineSet
92 496 m 0,0,1
 92 713 92 713 216 849 c 128,-1,2
 340 985 340 985 526 985 c 0,3,4
 724 985 724 985 847.5 862.5 c 128,-1,5
 971 740 971 740 971 520 c 2,6,-1
 971 449 l 1,7,-1
 252 449 l 1,8,9
 266 283 266 283 345.5 191.5 c 128,-1,10
 425 100 425 100 563 100 c 0,11,12
 649 100 649 100 748.5 146 c 128,-1,13
 848 192 848 192 905 236 c 1,14,-1
 928 150 l 1,15,16
 753 -10 753 -10 543 -10 c 0,17,18
 338 -10 338 -10 215 125 c 128,-1,19
 92 260 92 260 92 496 c 0,0,1
254 561 m 1,20,-1
 809 561 l 1,21,22
 803 704 803 704 729 788 c 128,-1,23
 655 872 655 872 528 872 c 0,24,25
 415 872 415 872 342 780 c 128,-1,26
 269 688 269 688 254 561 c 1,20,-1
EndSplineSet
Validated: 1
EndChar

StartChar: f
Encoding: 102 102 73
Width: 710
GlyphClass: 2
Flags: W
LayerCount: 2
Fore
SplineSet
41 862 m 1,0,-1
 41 975 l 1,1,-1
 205 975 l 1,2,-1
 205 1219 l 2,3,4
 205 1290 205 1290 229 1344 c 128,-1,5
 253 1398 253 1398 292 1427.5 c 128,-1,6
 331 1457 331 1457 372.5 1471 c 128,-1,7
 414 1485 414 1485 457 1485 c 0,8,9
 550 1485 550 1485 614 1452 c 1,10,-1
 614 1274 l 1,11,12
 583 1321 583 1321 550.5 1346.5 c 128,-1,13
 518 1372 518 1372 471 1372 c 0,14,15
 444 1372 444 1372 423.5 1363.5 c 128,-1,16
 403 1355 403 1355 391.5 1336 c 128,-1,17
 380 1317 380 1317 372.5 1299.5 c 128,-1,18
 365 1282 365 1282 362 1251.5 c 128,-1,19
 359 1221 359 1221 358.5 1203.5 c 128,-1,20
 358 1186 358 1186 358 1153 c 2,21,-1
 358 975 l 1,22,-1
 614 975 l 1,23,-1
 614 862 l 1,24,-1
 358 862 l 1,25,-1
 358 0 l 1,26,-1
 205 0 l 1,27,-1
 205 862 l 1,28,-1
 41 862 l 1,0,-1
EndSplineSet
Validated: 1
EndChar

StartChar: g
Encoding: 103 103 74
Width: 1052
GlyphClass: 2
Flags: W
LayerCount: 2
Fore
SplineSet
68 -113 m 1,0,1
 134 -192 134 -192 235.5 -236.5 c 128,-1,2
 337 -281 337 -281 451 -281 c 0,3,4
 493 -281 493 -281 546.5 -270.5 c 128,-1,5
 600 -260 600 -260 652 -241.5 c 128,-1,6
 704 -223 704 -223 739 -192 c 128,-1,7
 774 -161 774 -161 774 -125 c 0,8,9
 774 -101 774 -101 762.5 -83.5 c 128,-1,10
 751 -66 751 -66 728.5 -56.5 c 128,-1,11
 706 -47 706 -47 682.5 -41 c 128,-1,12
 659 -35 659 -35 626 -33 c 128,-1,13
 593 -31 593 -31 571 -31 c 128,-1,14
 549 -31 549 -31 518.5 -32 c 128,-1,15
 488 -33 488 -33 479 -33 c 0,16,17
 388 -33 388 -33 322 -26 c 128,-1,18
 256 -19 256 -19 196 -1 c 128,-1,19
 136 17 136 17 105 53.5 c 128,-1,20
 74 90 74 90 74 145 c 0,21,22
 74 228 74 228 246 344 c 0,23,24
 250 348 250 348 252 348 c 1,25,26
 190 397 190 397 159.5 468.5 c 128,-1,27
 129 540 129 540 129 621 c 0,28,29
 129 764 129 764 235 868.5 c 128,-1,30
 341 973 341 973 506 973 c 0,31,32
 538 973 538 973 596 965 c 1,33,-1
 670 1051 l 2,34,35
 698 1085 698 1085 764 1118 c 128,-1,36
 830 1151 830 1151 897 1151 c 1,37,-1
 897 965 l 1,38,39
 869 999 869 999 827 1000 c 0,40,41
 825 1000 825 1000 823 1000 c 0,42,43
 783 1000 783 1000 748 982 c 0,44,45
 712 963 712 963 682 934 c 1,46,47
 775 890 775 890 826 804.5 c 128,-1,48
 877 719 877 719 877 627 c 0,49,50
 877 478 877 478 775 376 c 128,-1,51
 673 274 673 274 506 274 c 0,52,53
 429 274 429 274 367 293 c 1,54,55
 321 283 321 283 270 244 c 128,-1,56
 219 205 219 205 219 168 c 0,57,58
 219 141 219 141 324.5 130 c 128,-1,59
 430 119 430 119 532 119 c 0,60,61
 584 119 584 119 625.5 116.5 c 128,-1,62
 667 114 667 114 717 106.5 c 128,-1,63
 767 99 767 99 803.5 83.5 c 128,-1,64
 840 68 840 68 872 44.5 c 128,-1,65
 904 21 904 21 921 -16 c 128,-1,66
 938 -53 938 -53 938 -102 c 0,67,68
 938 -165 938 -165 904 -216.5 c 128,-1,69
 870 -268 870 -268 817.5 -300 c 128,-1,70
 765 -332 765 -332 697.5 -354.5 c 128,-1,71
 630 -377 630 -377 567 -386 c 128,-1,72
 504 -395 504 -395 446 -395 c 0,73,74
 360 -395 360 -395 264.5 -370.5 c 128,-1,75
 169 -346 169 -346 92 -307 c 1,76,77
 79 -286 79 -286 73 -238 c 0,78,79
 68 -196 68 -196 68 -162 c 0,80,81
 68 -156 68 -156 68 -151 c 2,82,-1
 68 -113 l 1,0,1
283 616 m 128,-1,84
 283 516 283 516 343 450.5 c 128,-1,85
 403 385 403 385 502 385 c 0,86,87
 616 385 616 385 669.5 451.5 c 128,-1,88
 723 518 723 518 723 621 c 0,89,90
 723 717 723 717 664 788.5 c 128,-1,91
 605 860 605 860 502 860 c 0,92,93
 401 860 401 860 342 788 c 128,-1,83
 283 716 283 716 283 616 c 128,-1,84
EndSplineSet
Validated: 1
EndChar

StartChar: h
Encoding: 104 104 75
Width: 1050
GlyphClass: 2
Flags: W
LayerCount: 2
Fore
SplineSet
133 0 m 1,0,-1
 133 1405 l 1,1,-1
 350 1487 l 1,2,3
 327 1450 327 1450 307 1392.5 c 128,-1,4
 287 1335 287 1335 287 1300 c 2,5,-1
 287 915 l 1,6,7
 470 985 470 985 582 985 c 0,8,9
 730 985 730 985 808.5 908 c 128,-1,10
 887 831 887 831 887 711 c 2,11,-1
 887 0 l 1,12,-1
 733 0 l 1,13,-1
 733 692 l 2,14,15
 733 757 733 757 690.5 815.5 c 128,-1,16
 648 874 648 874 573 874 c 0,17,18
 449 874 449 874 287 795 c 1,19,-1
 287 0 l 1,20,-1
 133 0 l 1,0,-1
EndSplineSet
Validated: 1
EndChar

StartChar: i
Encoding: 105 105 76
Width: 501
GlyphClass: 2
Flags: W
LayerCount: 2
Fore
SplineSet
156 1292 m 128,-1,1
 156 1332 156 1332 183.5 1360.5 c 128,-1,2
 211 1389 211 1389 250 1389 c 0,3,4
 290 1389 290 1389 318 1360.5 c 128,-1,5
 346 1332 346 1332 346 1292 c 128,-1,6
 346 1252 346 1252 318 1225 c 128,-1,7
 290 1198 290 1198 250 1198 c 128,-1,8
 210 1198 210 1198 183 1225 c 128,-1,0
 156 1252 156 1252 156 1292 c 128,-1,1
174 0 m 1,9,-1
 174 932 l 1,10,-1
 391 1014 l 1,11,12
 368 977 368 977 348 919.5 c 128,-1,13
 328 862 328 862 328 827 c 2,14,-1
 328 0 l 1,15,-1
 174 0 l 1,9,-1
EndSplineSet
Validated: 1
EndChar

StartChar: j
Encoding: 106 106 77
Width: 548
GlyphClass: 2
Flags: W
LayerCount: 2
Fore
SplineSet
-113 -319 m 1,0,1
 -103 -319 -103 -319 -92 -319 c 0,2,3
 31 -319 31 -319 104 -252 c 0,4,5
 182 -179 182 -179 182 -4 c 2,6,-1
 184 932 l 1,7,-1
 401 1014 l 1,8,9
 378 977 378 977 358 919.5 c 128,-1,10
 338 862 338 862 338 827 c 2,11,-1
 338 0 l 2,12,13
 338 -187 338 -187 222 -301.5 c 128,-1,14
 106 -416 106 -416 -66 -416 c 1,15,-1
 -113 -319 l 1,0,1
166 1292 m 128,-1,17
 166 1332 166 1332 193.5 1360.5 c 128,-1,18
 221 1389 221 1389 260 1389 c 0,19,20
 300 1389 300 1389 328 1360.5 c 128,-1,21
 356 1332 356 1332 356 1292 c 128,-1,22
 356 1252 356 1252 328 1225 c 128,-1,23
 300 1198 300 1198 260 1198 c 128,-1,24
 220 1198 220 1198 193 1225 c 128,-1,16
 166 1252 166 1252 166 1292 c 128,-1,17
EndSplineSet
Validated: 1
EndChar

StartChar: k
Encoding: 107 107 78
Width: 1034
GlyphClass: 2
Flags: W
LayerCount: 2
Fore
SplineSet
123 0 m 1,0,-1
 123 1405 l 1,1,-1
 340 1487 l 1,2,3
 317 1449 317 1449 296.5 1392 c 128,-1,4
 276 1335 276 1335 276 1300 c 2,5,-1
 276 618 l 1,6,-1
 743 975 l 1,7,-1
 928 975 l 1,8,-1
 492 639 l 1,9,-1
 942 0 l 1,10,-1
 758 0 l 1,11,-1
 373 545 l 1,12,-1
 276 471 l 1,13,-1
 276 0 l 1,14,-1
 123 0 l 1,0,-1
EndSplineSet
Validated: 1
EndChar

StartChar: l
Encoding: 108 108 79
Width: 483
GlyphClass: 2
Flags: W
LayerCount: 2
Fore
SplineSet
160 0 m 1,0,-1
 160 1405 l 1,1,-1
 377 1487 l 1,2,3
 354 1449 354 1449 333.5 1392 c 128,-1,4
 313 1335 313 1335 313 1300 c 2,5,-1
 313 0 l 1,6,-1
 160 0 l 1,0,-1
EndSplineSet
Validated: 1
EndChar

StartChar: m
Encoding: 109 109 80
Width: 1615
GlyphClass: 2
Flags: W
LayerCount: 2
Fore
SplineSet
27 874 m 1,0,1
 31 874 31 874 96 904 c 128,-1,2
 161 934 161 934 224 964 c 2,3,-1
 287 995 l 1,4,-1
 287 915 l 1,5,6
 438 985 438 985 582 985 c 0,7,8
 757 985 757 985 823 889 c 1,9,10
 1007 985 1007 985 1178 985 c 0,11,12
 1326 985 1326 985 1406.5 908 c 128,-1,13
 1487 831 1487 831 1487 711 c 2,14,-1
 1487 0 l 1,15,-1
 1333 0 l 1,16,-1
 1333 692 l 2,17,18
 1333 757 1333 757 1291 815.5 c 128,-1,19
 1249 874 1249 874 1174 874 c 0,20,21
 1107 874 1107 874 1016 848.5 c 128,-1,22
 925 823 925 823 872 793 c 1,23,24
 887 766 887 766 887 711 c 2,25,-1
 887 0 l 1,26,-1
 733 0 l 1,27,-1
 733 692 l 2,28,29
 733 757 733 757 690.5 815.5 c 128,-1,30
 648 874 648 874 573 874 c 0,31,32
 463 874 463 874 287 795 c 1,33,-1
 287 0 l 1,34,-1
 133 0 l 1,35,-1
 133 750 l 2,36,37
 133 787 133 787 97 829 c 128,-1,38
 61 871 61 871 27 874 c 1,0,1
EndSplineSet
Validated: 1
EndChar

StartChar: n
Encoding: 110 110 81
Width: 1032
GlyphClass: 2
Flags: W
LayerCount: 2
Fore
SplineSet
27 874 m 1,0,-1
 287 995 l 1,1,-1
 287 915 l 1,2,3
 441 985 441 985 582 985 c 0,4,5
 730 985 730 985 808.5 908 c 128,-1,6
 887 831 887 831 887 711 c 2,7,-1
 887 0 l 1,8,-1
 733 0 l 1,9,-1
 733 692 l 2,10,11
 733 732 733 732 718 771.5 c 128,-1,12
 703 811 703 811 666 841.5 c 128,-1,13
 629 872 629 872 578 872 c 0,14,15
 459 872 459 872 287 795 c 1,16,-1
 287 0 l 1,17,-1
 133 0 l 1,18,-1
 133 750 l 2,19,20
 133 787 133 787 97 829 c 128,-1,21
 61 871 61 871 27 874 c 1,0,-1
EndSplineSet
Validated: 1
EndChar

StartChar: o
Encoding: 111 111 82
Width: 1075
GlyphClass: 2
Flags: W
LayerCount: 2
Fore
SplineSet
92 481 m 128,-1,1
 92 601 92 601 127.5 697.5 c 128,-1,2
 163 794 163 794 224 856.5 c 128,-1,3
 285 919 285 919 366 952 c 128,-1,4
 447 985 447 985 539 985 c 0,5,6
 739 985 739 985 861 856 c 128,-1,7
 983 727 983 727 983 481 c 0,8,9
 983 362 983 362 944.5 266 c 128,-1,10
 906 170 906 170 841 111 c 128,-1,11
 776 52 776 52 696 21 c 128,-1,12
 616 -10 616 -10 528 -10 c 0,13,14
 437 -10 437 -10 359 21 c 128,-1,15
 281 52 281 52 221 112 c 128,-1,16
 161 172 161 172 126.5 266.5 c 128,-1,0
 92 361 92 361 92 481 c 128,-1,1
248 498 m 0,17,18
 248 311 248 311 329.5 205.5 c 128,-1,19
 411 100 411 100 545 100 c 0,20,21
 594 100 594 100 643 123.5 c 128,-1,22
 692 147 692 147 733.5 191 c 128,-1,23
 775 235 775 235 801 308 c 128,-1,24
 827 381 827 381 827 471 c 0,25,26
 827 658 827 658 753 765 c 128,-1,27
 679 872 679 872 522 872 c 0,28,29
 410 872 410 872 329 773 c 128,-1,30
 248 674 248 674 248 498 c 0,17,18
EndSplineSet
Validated: 1
EndChar

StartChar: p
Encoding: 112 112 83
Width: 1071
GlyphClass: 2
Flags: W
LayerCount: 2
Fore
SplineSet
27 868 m 1,0,-1
 287 995 l 1,1,-1
 287 913 l 1,2,3
 409 985 409 985 539 985 c 0,4,5
 739 985 739 985 855 853.5 c 128,-1,6
 971 722 971 722 971 487 c 0,7,8
 971 271 971 271 849.5 130.5 c 128,-1,9
 728 -10 728 -10 539 -10 c 0,10,11
 440 -10 440 -10 287 27 c 1,12,-1
 287 -410 l 1,13,-1
 133 -410 l 1,14,-1
 133 750 l 2,15,16
 133 786 133 786 97 825.5 c 128,-1,17
 61 865 61 865 27 868 c 1,0,-1
287 158 m 1,18,19
 440 104 440 104 547 104 c 0,20,21
 648 104 648 104 730.5 209.5 c 128,-1,22
 813 315 813 315 813 481 c 0,23,24
 813 667 813 667 741 769.5 c 128,-1,25
 669 872 669 872 532 872 c 0,26,27
 466 872 466 872 398 845 c 128,-1,28
 330 818 330 818 287 772 c 1,29,-1
 287 158 l 1,18,19
EndSplineSet
Validated: 1
EndChar

StartChar: q
Encoding: 113 113 84
Width: 1075
GlyphClass: 2
Flags: W
LayerCount: 2
Fore
SplineSet
92 487 m 0,0,1
 92 725 92 725 209.5 855 c 128,-1,2
 327 985 327 985 545 985 c 0,3,4
 738 985 738 985 930 969 c 1,5,-1
 930 -174 l 2,6,7
 930 -225 930 -225 964 -262 c 128,-1,8
 998 -299 998 -299 1040 -299 c 1,9,-1
 776 -430 l 1,10,-1
 776 47 l 1,11,12
 648 -10 648 -10 520 -10 c 0,13,14
 331 -10 331 -10 211.5 128 c 128,-1,15
 92 266 92 266 92 487 c 0,0,1
250 481 m 0,16,17
 250 315 250 315 331 209.5 c 128,-1,18
 412 104 412 104 512 104 c 0,19,20
 653 104 653 104 776 176 c 1,21,-1
 776 852 l 1,22,23
 667 868 667 868 532 868 c 0,24,25
 395 868 395 868 322.5 767.5 c 128,-1,26
 250 667 250 667 250 481 c 0,16,17
EndSplineSet
Validated: 1
EndChar

StartChar: r
Encoding: 114 114 85
Width: 688
GlyphClass: 2
Flags: W
LayerCount: 2
Fore
SplineSet
135 0 m 1,0,-1
 135 975 l 1,1,-1
 287 975 l 1,2,-1
 287 866 l 1,3,4
 383 937 383 937 418 955 c 0,5,6
 479 986 479 986 565 986 c 0,7,8
 579 986 579 986 594 985 c 1,9,-1
 594 799 l 1,10,11
 588 811 588 811 557.5 822.5 c 128,-1,12
 527 834 527 834 506 834 c 0,13,14
 468 834 468 834 403 803.5 c 128,-1,15
 338 773 338 773 287 713 c 1,16,-1
 287 0 l 1,17,-1
 135 0 l 1,0,-1
EndSplineSet
Validated: 1
EndChar

StartChar: s
Encoding: 115 115 86
Width: 897
GlyphClass: 2
Flags: W
LayerCount: 2
Fore
SplineSet
84 733 m 0,0,1
 84 809 84 809 135.5 868 c 128,-1,2
 187 927 187 927 263 956 c 128,-1,3
 339 985 339 985 422 985 c 0,4,5
 520 985 520 985 605.5 960.5 c 128,-1,6
 691 936 691 936 739 903 c 1,7,-1
 739 741 l 1,8,9
 678 805 678 805 590.5 839.5 c 128,-1,10
 503 874 503 874 418 874 c 0,11,12
 350 874 350 874 290.5 842 c 128,-1,13
 231 810 231 810 231 756 c 0,14,15
 231 716 231 716 254.5 688 c 128,-1,16
 278 660 278 660 330 635 c 0,17,18
 368 616 368 616 426.5 592.5 c 128,-1,19
 485 569 485 569 529 552.5 c 128,-1,20
 573 536 573 536 622 509 c 128,-1,21
 671 482 671 482 702.5 452 c 128,-1,22
 734 422 734 422 755 375 c 128,-1,23
 776 328 776 328 776 268 c 0,24,25
 776 209 776 209 755 161 c 128,-1,26
 734 113 734 113 699 81.5 c 128,-1,27
 664 50 664 50 617 29 c 128,-1,28
 570 8 570 8 521 -1 c 128,-1,29
 472 -10 472 -10 420 -10 c 0,30,31
 287 -10 287 -10 109 63 c 1,32,-1
 88 246 l 1,33,34
 164 179 164 179 253.5 139.5 c 128,-1,35
 343 100 343 100 422 100 c 0,36,37
 460 100 460 100 505 117 c 128,-1,38
 550 134 550 134 586.5 172 c 128,-1,39
 623 210 623 210 623 258 c 0,40,41
 623 340 623 340 545 381 c 0,42,43
 517 395 517 395 462 416.5 c 128,-1,44
 407 438 407 438 361 455.5 c 128,-1,45
 315 473 315 473 261.5 501.5 c 128,-1,46
 208 530 208 530 171 560.5 c 128,-1,47
 134 591 134 591 109 636 c 128,-1,48
 84 681 84 681 84 733 c 0,0,1
EndSplineSet
Validated: 1
EndChar

StartChar: t
Encoding: 116 116 87
Width: 710
GlyphClass: 2
Flags: W
LayerCount: 2
Fore
SplineSet
41 862 m 1,0,-1
 41 975 l 1,1,-1
 205 975 l 1,2,-1
 205 1217 l 1,3,-1
 422 1298 l 1,4,5
 399 1260 399 1260 378.5 1203.5 c 128,-1,6
 358 1147 358 1147 358 1112 c 2,7,-1
 358 975 l 1,8,-1
 614 975 l 1,9,-1
 614 862 l 1,10,-1
 358 862 l 1,11,-1
 358 362 l 2,12,13
 358 213 358 213 432 144.5 c 128,-1,14
 506 76 506 76 655 74 c 1,15,-1
 604 -23 l 1,16,17
 425 -23 425 -23 314 67 c 128,-1,18
 203 157 203 157 203 342 c 2,19,-1
 203 862 l 1,20,-1
 41 862 l 1,0,-1
EndSplineSet
Validated: 1
EndChar

StartChar: u
Encoding: 117 117 88
Width: 1024
GlyphClass: 2
Flags: W
LayerCount: 2
Fore
SplineSet
25 868 m 1,0,-1
 287 995 l 1,1,-1
 287 274 l 2,2,3
 287 209 287 209 329 150.5 c 128,-1,4
 371 92 371 92 446 92 c 0,5,6
 544 92 544 92 733 172 c 1,7,-1
 733 975 l 1,8,-1
 887 975 l 1,9,-1
 887 0 l 1,10,-1
 733 0 l 1,11,-1
 733 51 l 1,12,13
 576 -18 576 -18 438 -18 c 0,14,15
 290 -18 290 -18 211.5 59 c 128,-1,16
 133 136 133 136 133 256 c 2,17,-1
 133 764 l 2,18,19
 133 792 133 792 98.5 828 c 128,-1,20
 64 864 64 864 25 868 c 1,0,-1
EndSplineSet
Validated: 1
EndChar

StartChar: v
Encoding: 118 118 89
Width: 995
GlyphClass: 2
Flags: W
LayerCount: 2
Fore
SplineSet
37 975 m 1,0,-1
 207 975 l 1,1,-1
 489 250 l 1,2,-1
 719 795 l 2,3,4
 732 831 732 831 732 862 c 0,5,6
 732 884 732 884 726 904 c 0,7,8
 711 952 711 952 672 975 c 1,9,-1
 913 975 l 1,10,-1
 510 0 l 1,11,-1
 422 0 l 1,12,-1
 37 975 l 1,0,-1
EndSplineSet
Validated: 1
EndChar

StartChar: w
Encoding: 119 119 90
Width: 1617
GlyphClass: 2
Flags: W
LayerCount: 2
Fore
SplineSet
37 975 m 1,0,-1
 207 975 l 1,1,-1
 489 250 l 1,2,-1
 719 795 l 2,3,4
 732 830 732 830 732 861 c 0,5,6
 732 884 732 884 726 904 c 0,7,8
 710 952 710 952 670 975 c 1,9,-1
 864 975 l 1,10,-1
 1147 250 l 1,11,-1
 1376 795 l 2,12,13
 1389 830 1389 830 1389 861 c 0,14,15
 1388 884 1388 884 1382 904 c 0,16,17
 1366 952 1366 952 1327 975 c 1,18,-1
 1571 975 l 1,19,-1
 1167 0 l 1,20,-1
 1079 0 l 1,21,-1
 801 705 l 1,22,-1
 510 0 l 1,23,-1
 422 0 l 1,24,-1
 37 975 l 1,0,-1
EndSplineSet
Validated: 1
EndChar

StartChar: x
Encoding: 120 120 91
Width: 1054
GlyphClass: 2
Flags: W
LayerCount: 2
Fore
SplineSet
59 975 m 1,0,-1
 334 975 l 1,1,2
 316 960 316 960 313 939 c 128,-1,3
 310 918 310 918 321 893 c 128,-1,4
 332 868 332 868 342 851 c 128,-1,5
 352 834 352 834 369 811 c 2,6,-1
 524 602 l 1,7,8
 566 658 566 658 614 722.5 c 128,-1,9
 662 787 662 787 718.5 862 c 128,-1,10
 775 937 775 937 803 975 c 1,11,-1
 946 975 l 1,12,-1
 594 506 l 1,13,-1
 969 0 l 1,14,-1
 666 0 l 1,15,16
 692 18 692 18 693 50.5 c 128,-1,17
 694 83 694 83 680.5 112.5 c 128,-1,18
 667 142 667 142 645 174 c 2,19,-1
 498 377 l 1,20,-1
 215 0 l 1,21,-1
 70 0 l 1,22,23
 233 216 233 216 426 473 c 1,24,-1
 59 975 l 1,0,-1
EndSplineSet
Validated: 1
EndChar

StartChar: y
Encoding: 121 121 92
Width: 987
GlyphClass: 2
Flags: W
LayerCount: 2
Fore
SplineSet
37 975 m 1,0,-1
 207 975 l 1,1,-1
 489 250 l 1,2,-1
 715 784 l 2,3,4
 729 820 729 820 729 854 c 0,5,6
 729 876 729 876 722 898 c 0,7,8
 707 952 707 952 668 975 c 1,9,-1
 915 975 l 1,10,-1
 344 -410 l 1,11,-1
 215 -410 l 1,12,-1
 403 49 l 1,13,-1
 37 975 l 1,0,-1
EndSplineSet
Validated: 1
EndChar

StartChar: z
Encoding: 122 122 93
Width: 966
GlyphClass: 2
Flags: W
LayerCount: 2
Fore
SplineSet
82 70 m 1,0,-1
 596 862 l 1,1,-1
 301 862 l 2,2,3
 164 862 164 862 109 780 c 1,4,-1
 109 975 l 1,5,-1
 803 975 l 1,6,-1
 819 922 l 1,7,-1
 295 113 l 1,8,-1
 795 113 l 1,9,-1
 793 0 l 1,10,-1
 98 0 l 1,11,-1
 82 70 l 1,0,-1
EndSplineSet
Validated: 1
EndChar

StartChar: braceleft
Encoding: 123 123 94
Width: 618
GlyphClass: 2
Flags: W
LayerCount: 2
Fore
SplineSet
27 592 m 1,0,-1
 27 692 l 1,1,-1
 90 694 l 1,2,3
 159 706 159 706 191.5 750 c 128,-1,4
 224 794 224 794 221 860 c 2,5,-1
 207 1200 l 2,6,7
 205 1244 205 1244 215.5 1291 c 128,-1,8
 226 1338 226 1338 246.5 1381.5 c 128,-1,9
 267 1425 267 1425 304.5 1453 c 128,-1,10
 342 1481 342 1481 389 1481 c 0,11,12
 411 1481 411 1481 435 1477 c 128,-1,13
 459 1473 459 1473 489.5 1467 c 128,-1,14
 520 1461 520 1461 537 1458 c 1,15,-1
 526 1376 l 1,16,17
 510 1376 510 1376 498.5 1377 c 128,-1,18
 487 1378 487 1378 485 1378 c 0,19,20
 420 1378 420 1378 379 1344 c 128,-1,21
 338 1310 338 1310 338 1239 c 0,22,23
 338 1166 338 1166 343 1030 c 128,-1,24
 348 894 348 894 348 817 c 0,25,26
 348 776 348 776 346 753.5 c 128,-1,27
 344 731 344 731 329 697.5 c 128,-1,28
 314 664 314 664 285 637 c 1,29,30
 326 599 326 599 337.5 566 c 128,-1,31
 349 533 349 533 348 446 c 2,32,-1
 338 39 l 2,33,34
 337 -40 337 -40 381.5 -71 c 128,-1,35
 426 -102 426 -102 494 -98 c 2,36,-1
 530 -96 l 1,37,-1
 539 -180 l 1,38,39
 465 -203 465 -203 397 -203 c 0,40,41
 341 -203 341 -203 301 -173.5 c 128,-1,42
 261 -144 261 -144 241.5 -96 c 128,-1,43
 222 -48 222 -48 213.5 -1 c 128,-1,44
 205 46 205 46 205 94 c 0,45,46
 205 108 205 108 209 158 c 0,47,48
 221 323 221 323 221 428 c 0,49,50
 221 570 221 570 90 592 c 1,51,-1
 27 592 l 1,0,-1
EndSplineSet
Validated: 33
EndChar

StartChar: bar
Encoding: 124 124 95
Width: 485
GlyphClass: 2
Flags: W
LayerCount: 2
Fore
SplineSet
166 -174 m 1,0,-1
 166 1579 l 1,1,-1
 283 1579 l 1,2,-1
 283 -174 l 1,3,-1
 166 -174 l 1,0,-1
EndSplineSet
Validated: 1
EndChar

StartChar: braceright
Encoding: 125 125 96
Width: 626
GlyphClass: 2
Flags: W
LayerCount: 2
Fore
SplineSet
47 -180 m 1,0,-1
 55 -96 l 1,1,-1
 92 -98 l 2,2,3
 160 -102 160 -102 204.5 -71 c 128,-1,4
 249 -40 249 -40 248 39 c 2,5,-1
 238 446 l 2,6,7
 237 533 237 533 248.5 566 c 128,-1,8
 260 599 260 599 301 637 c 1,9,10
 272 664 272 664 257 697.5 c 128,-1,11
 242 731 242 731 240 753.5 c 128,-1,12
 238 776 238 776 238 817 c 0,13,14
 238 895 238 895 243 1030.5 c 128,-1,15
 248 1166 248 1166 248 1239 c 0,16,17
 248 1310 248 1310 206.5 1344 c 128,-1,18
 165 1378 165 1378 100 1378 c 0,19,20
 98 1378 98 1378 86.5 1377 c 128,-1,21
 75 1376 75 1376 59 1376 c 1,22,-1
 49 1458 l 1,23,24
 66 1461 66 1461 96.5 1467 c 128,-1,25
 127 1473 127 1473 151 1477 c 128,-1,26
 175 1481 175 1481 197 1481 c 0,27,28
 244 1481 244 1481 281.5 1453 c 128,-1,29
 319 1425 319 1425 339.5 1381.5 c 128,-1,30
 360 1338 360 1338 370.5 1291 c 128,-1,31
 381 1244 381 1244 379 1200 c 2,32,-1
 365 860 l 2,33,34
 362 794 362 794 394.5 750 c 128,-1,35
 427 706 427 706 496 694 c 1,36,-1
 559 692 l 1,37,-1
 559 592 l 1,38,-1
 496 592 l 1,39,40
 365 570 365 570 365 428 c 0,41,42
 365 323 365 323 377 158 c 0,43,44
 381 108 381 108 381 94 c 0,45,46
 381 56 381 56 376.5 19 c 128,-1,47
 372 -18 372 -18 358.5 -59 c 128,-1,48
 345 -100 345 -100 324.5 -131 c 128,-1,49
 304 -162 304 -162 268.5 -182.5 c 128,-1,50
 233 -203 233 -203 188 -203 c 0,51,52
 158 -203 158 -203 122.5 -197.5 c 128,-1,53
 87 -192 87 -192 67 -186 c 2,54,-1
 47 -180 l 1,0,-1
EndSplineSet
Validated: 33
EndChar

StartChar: asciitilde
Encoding: 126 126 97
Width: 1052
GlyphClass: 2
Flags: W
LayerCount: 2
Fore
SplineSet
76 1012 m 1,0,1
 89 1048 89 1048 98 1070.5 c 128,-1,2
 107 1093 107 1093 126.5 1137.5 c 128,-1,3
 146 1182 146 1182 166 1211 c 128,-1,4
 186 1240 186 1240 212 1271.5 c 128,-1,5
 238 1303 238 1303 270 1319 c 128,-1,6
 302 1335 302 1335 336 1335 c 0,7,8
 386 1335 386 1335 433 1316 c 128,-1,9
 480 1297 480 1297 515 1269.5 c 128,-1,10
 550 1242 550 1242 582 1214.5 c 128,-1,11
 614 1187 614 1187 646.5 1168 c 128,-1,12
 679 1149 679 1149 709 1149 c 0,13,14
 782 1149 782 1149 885 1321 c 1,15,16
 894 1315 894 1315 918.5 1307 c 128,-1,17
 943 1299 943 1299 950 1296 c 1,18,19
 852 993 852 993 680 993 c 0,20,21
 640 993 640 993 598 1013 c 128,-1,22
 556 1033 556 1033 521.5 1061.5 c 128,-1,23
 487 1090 487 1090 455 1119 c 128,-1,24
 423 1148 423 1148 393 1168 c 128,-1,25
 363 1188 363 1188 340 1188 c 0,26,27
 293 1188 293 1188 229.5 1116 c 128,-1,28
 166 1044 166 1044 137 981 c 1,29,30
 129 986 129 986 105.5 997 c 128,-1,31
 82 1008 82 1008 76 1012 c 1,0,1
EndSplineSet
Validated: 1
EndChar

StartChar: exclamdown
Encoding: 161 161 99
Width: 434
GlyphClass: 2
Flags: W
LayerCount: 2
Fore
SplineSet
96 1143 m 0,0,1
 96 1186 96 1186 122 1214.5 c 128,-1,2
 148 1243 148 1243 186 1243 c 0,3,4
 226 1243 226 1243 254.5 1214 c 128,-1,5
 283 1185 283 1185 283 1143 c 0,6,7
 283 1103 283 1103 254.5 1073.5 c 128,-1,8
 226 1044 226 1044 186 1044 c 0,9,10
 148 1044 148 1044 122 1073.5 c 128,-1,11
 96 1103 96 1103 96 1143 c 0,0,1
100 -135 m 1,12,-1
 139 854 l 1,13,-1
 246 854 l 1,14,-1
 264 -8 l 2,15,16
 265 -46 265 -46 289 -81.5 c 128,-1,17
 313 -117 313 -117 346 -135 c 1,18,-1
 100 -135 l 1,12,-1
EndSplineSet
Validated: 1
EndChar

StartChar: cent
Encoding: 162 162 100
Width: 870
GlyphClass: 2
Flags: W
LayerCount: 2
Fore
SplineSet
121 700 m 0,0,1
 121 862 121 862 222.5 969.5 c 128,-1,2
 324 1077 324 1077 467 1077 c 2,3,-1
 477 1077 l 1,4,-1
 522 1327 l 1,5,6
 583 1357 583 1357 631 1364 c 1,7,-1
 575 1063 l 1,8,9
 692 1029 692 1029 745 928 c 1,10,11
 709 854 709 854 662 834 c 1,12,13
 621 920 621 920 555 954 c 1,14,-1
 459 432 l 1,15,16
 469 430 469 430 494 430 c 0,17,18
 534 430 534 430 593.5 451 c 128,-1,19
 653 472 653 472 690 496 c 1,20,21
 700 477 700 477 725 438 c 1,22,23
 684 391 684 391 610 357.5 c 128,-1,24
 536 324 536 324 467 324 c 2,25,-1
 438 324 l 1,26,-1
 379 0 l 1,27,-1
 279 0 l 1,28,-1
 342 344 l 1,29,30
 238 379 238 379 179.5 473.5 c 128,-1,31
 121 568 121 568 121 700 c 0,0,1
242 713 m 0,32,33
 242 525 242 525 362 459 c 1,34,-1
 457 975 l 1,35,36
 372 971 372 971 307 888 c 128,-1,37
 242 805 242 805 242 713 c 0,32,33
EndSplineSet
Validated: 1
EndChar

StartChar: sterling
Encoding: 163 163 101
Width: 1116
GlyphClass: 2
Flags: W
LayerCount: 2
Fore
SplineSet
57 616 m 1,0,-1
 57 723 l 1,1,-1
 238 723 l 1,2,-1
 238 1065 l 2,3,4
 238 1199 238 1199 312 1285 c 128,-1,5
 386 1371 386 1371 502 1376 c 0,6,7
 570 1379 570 1379 629 1356 c 128,-1,8
 688 1333 688 1333 713 1300 c 1,9,-1
 694 1208 l 1,10,11
 637 1262 637 1262 518 1262 c 0,12,13
 457 1262 457 1262 419 1193.5 c 128,-1,14
 381 1125 381 1125 381 1030 c 2,15,-1
 381 723 l 1,16,-1
 580 723 l 1,17,-1
 580 616 l 1,18,-1
 381 616 l 1,19,-1
 381 350 l 2,20,21
 381 275 381 275 360.5 217.5 c 128,-1,22
 340 160 340 160 313 133 c 1,23,-1
 932 133 l 1,24,25
 929 88 929 88 920.5 59.5 c 128,-1,26
 912 31 912 31 891 0 c 1,27,-1
 119 0 l 1,28,-1
 98 84 l 1,29,30
 148 129 148 129 193 219.5 c 128,-1,31
 238 310 238 310 238 401 c 2,32,-1
 238 616 l 1,33,-1
 57 616 l 1,0,-1
EndSplineSet
Validated: 33
EndChar

StartChar: yen
Encoding: 165 165 102
Width: 1167
GlyphClass: 2
Flags: W
LayerCount: 2
Fore
SplineSet
18.5 1348 m 128,-1,1
 23 1366 23 1366 43 1366 c 2,2,-1
 193 1366 l 1,3,-1
 575 719 l 1,4,-1
 956 1366 l 1,5,-1
 1061 1366 l 2,6,7
 1079 1366 1079 1366 1085 1351 c 128,-1,8
 1091 1336 1091 1336 1083 1317 c 2,9,-1
 680 670 l 1,10,-1
 965 670 l 1,11,-1
 965 569 l 1,12,-1
 635 569 l 1,13,-1
 635 401 l 1,14,-1
 965 401 l 1,15,-1
 965 297 l 1,16,-1
 635 297 l 1,17,-1
 635 0 l 1,18,-1
 467 0 l 1,19,-1
 471 297 l 1,20,-1
 156 297 l 1,21,-1
 156 401 l 1,22,-1
 473 401 l 1,23,-1
 477 569 l 1,24,-1
 156 569 l 1,25,-1
 156 670 l 1,26,-1
 422 670 l 1,27,-1
 25 1315 l 2,28,0
 14 1330 14 1330 18.5 1348 c 128,-1,1
EndSplineSet
Validated: 1
EndChar

StartChar: brokenbar
Encoding: 166 166 103
Width: 438
GlyphClass: 2
Flags: W
LayerCount: 2
Fore
SplineSet
166 -174 m 1,0,-1
 166 594 l 1,1,-1
 303 594 l 1,2,-1
 303 -174 l 1,3,-1
 166 -174 l 1,0,-1
166 811 m 1,4,-1
 166 1579 l 1,5,-1
 303 1579 l 1,6,-1
 303 811 l 1,7,-1
 166 811 l 1,4,-1
EndSplineSet
Validated: 1
EndChar

StartChar: section
Encoding: 167 167 104
Width: 966
GlyphClass: 2
Flags: W
LayerCount: 2
Fore
SplineSet
121 674 m 0,0,1
 121 854 121 854 266 920 c 1,2,3
 218 944 218 944 186 1001 c 128,-1,4
 154 1058 154 1058 154 1130 c 0,5,6
 154 1240 154 1240 250.5 1306 c 128,-1,7
 347 1372 347 1372 479 1372 c 0,8,9
 574 1372 574 1372 661 1351 c 128,-1,10
 748 1330 748 1330 791 1288 c 0,11,12
 813 1270 813 1270 813 1221 c 0,13,14
 813 1185 813 1185 780 1139 c 1,15,16
 735 1192 735 1192 646.5 1228 c 128,-1,17
 558 1264 558 1264 475 1264 c 0,18,19
 405 1264 405 1264 345 1235.5 c 128,-1,20
 285 1207 285 1207 285 1155 c 0,21,22
 285 1069 285 1069 385 1018 c 0,23,24
 435 993 435 993 556.5 964 c 128,-1,25
 678 935 678 935 729 905 c 0,26,27
 792 870 792 870 817 822.5 c 128,-1,28
 842 775 842 775 842 690 c 0,29,30
 842 513 842 513 694 444 c 1,31,32
 695 444 695 444 697 443 c 128,-1,33
 699 442 699 442 700 442 c 0,34,35
 746 417 746 417 778.5 361 c 128,-1,36
 811 305 811 305 811 238 c 0,37,38
 811 162 811 162 763 105.5 c 128,-1,39
 715 49 715 49 641.5 21.5 c 128,-1,40
 568 -6 568 -6 483 -6 c 0,41,42
 389 -6 389 -6 302.5 15.5 c 128,-1,43
 216 37 216 37 174 76 c 0,44,45
 152 94 152 94 152 143 c 0,46,47
 152 184 152 184 182 227 c 1,48,49
 227 174 227 174 315.5 138 c 128,-1,50
 404 102 404 102 487 102 c 0,51,52
 557 102 557 102 618.5 130.5 c 128,-1,53
 680 159 680 159 680 211 c 0,54,55
 680 318 680 318 582 360 c 0,56,57
 533 380 533 380 422 402.5 c 128,-1,58
 311 425 311 425 252 455 c 0,59,60
 185 490 185 490 153 541.5 c 128,-1,61
 121 593 121 593 121 674 c 0,0,1
264 682 m 0,62,63
 264 626 264 626 302 588 c 128,-1,64
 340 550 340 550 391.5 535 c 128,-1,65
 443 520 443 520 502 520 c 0,66,67
 541 520 541 520 584 537 c 128,-1,68
 627 554 627 554 662.5 592.5 c 128,-1,69
 698 631 698 631 698 682 c 0,70,71
 698 739 698 739 660.5 777.5 c 128,-1,72
 623 816 623 816 571.5 831 c 128,-1,73
 520 846 520 846 461 846 c 0,74,75
 397 846 397 846 330.5 801.5 c 128,-1,76
 264 757 264 757 264 682 c 0,62,63
EndSplineSet
Validated: 1
EndChar

StartChar: dieresis
Encoding: 168 168 105
Width: 954
GlyphClass: 2
Flags: W
LayerCount: 2
Fore
SplineSet
211 1278 m 128,-1,1
 211 1318 211 1318 238 1346 c 128,-1,2
 265 1374 265 1374 305 1374 c 128,-1,3
 345 1374 345 1374 373 1346 c 128,-1,4
 401 1318 401 1318 401 1278 c 128,-1,5
 401 1238 401 1238 373 1211 c 128,-1,6
 345 1184 345 1184 305 1184 c 128,-1,7
 265 1184 265 1184 238 1211 c 128,-1,0
 211 1238 211 1238 211 1278 c 128,-1,1
588 1278 m 128,-1,9
 588 1318 588 1318 615 1346 c 128,-1,10
 642 1374 642 1374 682 1374 c 128,-1,11
 722 1374 722 1374 750 1346 c 128,-1,12
 778 1318 778 1318 778 1278 c 128,-1,13
 778 1238 778 1238 750 1211 c 128,-1,14
 722 1184 722 1184 682 1184 c 128,-1,15
 642 1184 642 1184 615 1211 c 128,-1,8
 588 1238 588 1238 588 1278 c 128,-1,9
EndSplineSet
Validated: 1
EndChar

StartChar: copyright
Encoding: 169 169 106
Width: 1411
GlyphClass: 2
Flags: W
LayerCount: 2
Fore
SplineSet
63 662 m 128,-1,1
 63 787 63 787 112 901 c 128,-1,2
 161 1015 161 1015 243.5 1097.5 c 128,-1,3
 326 1180 326 1180 440.5 1229 c 128,-1,4
 555 1278 555 1278 680 1278 c 0,5,6
 847 1278 847 1278 989 1195.5 c 128,-1,7
 1131 1113 1131 1113 1213.5 971 c 128,-1,8
 1296 829 1296 829 1296 662 c 0,9,10
 1296 537 1296 537 1247 422.5 c 128,-1,11
 1198 308 1198 308 1115.5 225.5 c 128,-1,12
 1033 143 1033 143 919 94 c 128,-1,13
 805 45 805 45 680 45 c 128,-1,14
 555 45 555 45 440.5 94 c 128,-1,15
 326 143 326 143 243.5 225.5 c 128,-1,16
 161 308 161 308 112 422.5 c 128,-1,0
 63 537 63 537 63 662 c 128,-1,1
137 659 m 0,17,18
 137 513 137 513 210.5 388 c 128,-1,19
 284 263 284 263 409.5 190 c 128,-1,20
 535 117 535 117 682 117 c 0,21,22
 791 117 791 117 891.5 160.5 c 128,-1,23
 992 204 992 204 1064.5 276.5 c 128,-1,24
 1137 349 1137 349 1180 449.5 c 128,-1,25
 1223 550 1223 550 1223 659 c 0,26,27
 1223 806 1223 806 1150 931 c 128,-1,28
 1077 1056 1077 1056 952.5 1129 c 128,-1,29
 828 1202 828 1202 682 1202 c 0,30,31
 535 1202 535 1202 409.5 1129 c 128,-1,32
 284 1056 284 1056 210.5 931 c 128,-1,33
 137 806 137 806 137 659 c 0,17,18
365 664 m 0,34,35
 365 804 365 804 454.5 910 c 128,-1,36
 544 1016 544 1016 672 1016 c 0,37,38
 739 1016 739 1016 826 994 c 128,-1,39
 913 972 913 972 913 942 c 2,40,-1
 913 887 l 2,41,42
 913 864 913 864 899 864 c 0,43,44
 889 866 889 866 881 870 c 0,45,46
 857 898 857 898 801 919 c 128,-1,47
 745 940 745 940 676 940 c 0,48,49
 588 940 588 940 522.5 869.5 c 128,-1,50
 457 799 457 799 457 682 c 0,51,52
 457 528 457 528 525 444 c 128,-1,53
 593 360 593 360 682 360 c 0,54,55
 798 360 798 360 874 432 c 1,56,57
 877 442 877 442 891 442 c 0,58,59
 911 442 911 442 911 410 c 2,60,-1
 911 397 l 2,61,62
 911 363 911 363 908.5 352 c 128,-1,63
 906 341 906 341 895 338 c 0,64,65
 856 319 856 319 832.5 309.5 c 128,-1,66
 809 300 809 300 768.5 292.5 c 128,-1,67
 728 285 728 285 678 285 c 0,68,69
 542 285 542 285 453.5 389 c 128,-1,70
 365 493 365 493 365 664 c 0,34,35
EndSplineSet
Validated: 1
EndChar

StartChar: ordfeminine
Encoding: 170 170 107
Width: 798
GlyphClass: 2
Flags: W
LayerCount: 2
Fore
SplineSet
92 1059 m 0,0,1
 92 1198 92 1198 170.5 1289 c 128,-1,2
 249 1380 249 1380 383 1380 c 0,3,4
 454 1380 454 1380 526 1323 c 1,5,6
 569 1381 569 1381 635 1389 c 1,7,-1
 635 932 l 2,8,9
 635 865 635 865 705 803 c 1,10,11
 655 760 655 760 608 754 c 1,12,-1
 606 754 l 1,13,14
 585 763 585 763 549 821 c 1,15,16
 515 787 515 787 469 768.5 c 128,-1,17
 423 750 423 750 381 750 c 0,18,19
 250 750 250 750 171 836.5 c 128,-1,20
 92 923 92 923 92 1059 c 0,0,1
211 1077 m 0,21,22
 211 964 211 964 264.5 911 c 128,-1,23
 318 858 318 858 397 858 c 0,24,25
 435 858 435 858 470.5 877 c 128,-1,26
 506 896 506 896 530 934 c 1,27,-1
 530 1165 l 1,28,29
 520 1216 520 1216 476 1248 c 128,-1,30
 432 1280 432 1280 375 1280 c 0,31,32
 307 1280 307 1280 259 1226 c 128,-1,33
 211 1172 211 1172 211 1077 c 0,21,22
EndSplineSet
Validated: 1
EndChar

StartChar: guillemotleft
Encoding: 171 171 108
Width: 1116
GlyphClass: 2
Flags: W
LayerCount: 2
Fore
SplineSet
109 438 m 1,0,-1
 111 561 l 1,1,-1
 580 879 l 1,2,-1
 625 829 l 1,3,-1
 262 504 l 1,4,-1
 616 152 l 1,5,-1
 573 104 l 1,6,-1
 109 438 l 1,0,-1
494 438 m 1,7,-1
 496 561 l 1,8,-1
 965 879 l 1,9,-1
 1010 829 l 1,10,-1
 647 504 l 1,11,-1
 1001 152 l 1,12,-1
 958 104 l 1,13,-1
 494 438 l 1,7,-1
EndSplineSet
Validated: 1
EndChar

StartChar: logicalnot
Encoding: 172 172 109
Width: 980
GlyphClass: 2
Flags: W
LayerCount: 2
Fore
SplineSet
72 844 m 1,0,-1
 72 975 l 1,1,-1
 877 975 l 1,2,-1
 877 348 l 1,3,-1
 731 350 l 1,4,-1
 731 844 l 1,5,-1
 72 844 l 1,0,-1
EndSplineSet
Validated: 1
EndChar

StartChar: uni00AD
Encoding: 173 173 110
Width: 759
GlyphClass: 2
Flags: W
LayerCount: 2
Fore
SplineSet
94 504 m 1,0,-1
 94 623 l 1,1,-1
 637 623 l 1,2,-1
 637 504 l 1,3,-1
 94 504 l 1,0,-1
EndSplineSet
Validated: 1
EndChar

StartChar: registered
Encoding: 174 174 111
Width: 1411
GlyphClass: 2
Flags: W
LayerCount: 2
Fore
SplineSet
59 662 m 128,-1,1
 59 787 59 787 108 901 c 128,-1,2
 157 1015 157 1015 239.5 1097.5 c 128,-1,3
 322 1180 322 1180 436.5 1229 c 128,-1,4
 551 1278 551 1278 676 1278 c 0,5,6
 843 1278 843 1278 985 1195.5 c 128,-1,7
 1127 1113 1127 1113 1209.5 971 c 128,-1,8
 1292 829 1292 829 1292 662 c 0,9,10
 1292 537 1292 537 1243 422.5 c 128,-1,11
 1194 308 1194 308 1111.5 225.5 c 128,-1,12
 1029 143 1029 143 915 94 c 128,-1,13
 801 45 801 45 676 45 c 128,-1,14
 551 45 551 45 436.5 94 c 128,-1,15
 322 143 322 143 239.5 225.5 c 128,-1,16
 157 308 157 308 108 422.5 c 128,-1,0
 59 537 59 537 59 662 c 128,-1,1
133 659 m 0,17,18
 133 513 133 513 206.5 388 c 128,-1,19
 280 263 280 263 405.5 190 c 128,-1,20
 531 117 531 117 678 117 c 0,21,22
 787 117 787 117 887.5 160.5 c 128,-1,23
 988 204 988 204 1060.5 276.5 c 128,-1,24
 1133 349 1133 349 1176 449.5 c 128,-1,25
 1219 550 1219 550 1219 659 c 0,26,27
 1219 806 1219 806 1146 931 c 128,-1,28
 1073 1056 1073 1056 948.5 1129 c 128,-1,29
 824 1202 824 1202 678 1202 c 0,30,31
 531 1202 531 1202 405.5 1129 c 128,-1,32
 280 1056 280 1056 206.5 931 c 128,-1,33
 133 806 133 806 133 659 c 0,17,18
467 311 m 1,34,-1
 467 1014 l 1,35,-1
 717 1014 l 2,36,37
 807 1014 807 1014 854 959 c 128,-1,38
 901 904 901 904 901 827 c 0,39,40
 901 756 901 756 857 698.5 c 128,-1,41
 813 641 813 641 743 629 c 1,42,43
 802 506 802 506 915 344 c 0,44,45
 915 342 915 342 917.5 336 c 128,-1,46
 920 330 920 330 920 328 c 0,47,48
 920 311 920 311 909 311 c 2,49,-1
 838 311 l 2,50,51
 821 311 821 311 817 326 c 2,52,-1
 649 621 l 1,53,54
 624 621 624 621 596 625 c 0,55,56
 592 625 592 625 581 626 c 128,-1,57
 570 627 570 627 567 627 c 2,58,-1
 557 627 l 1,59,-1
 557 311 l 1,60,-1
 467 311 l 1,34,-1
557 700 m 1,61,62
 622 691 622 691 696 694 c 0,63,64
 737 697 737 697 775 736 c 128,-1,65
 813 775 813 775 813 827 c 0,66,67
 813 876 813 876 777 907 c 128,-1,68
 741 938 741 938 684 938 c 2,69,-1
 557 938 l 1,70,-1
 557 700 l 1,61,62
EndSplineSet
Validated: 33
EndChar

StartChar: macron
Encoding: 175 175 112
Width: 1040
GlyphClass: 2
Flags: W
LayerCount: 2
Fore
SplineSet
180 1239 m 1,0,-1
 180 1366 l 1,1,-1
 850 1366 l 1,2,-1
 850 1239 l 1,3,-1
 180 1239 l 1,0,-1
EndSplineSet
Validated: 1
EndChar

StartChar: degree
Encoding: 176 176 113
Width: 712
GlyphClass: 2
Flags: W
LayerCount: 2
Fore
SplineSet
82 1120 m 0,0,1
 82 1234 82 1234 152 1309 c 128,-1,2
 222 1384 222 1384 346 1384 c 0,3,4
 463 1384 463 1384 536.5 1307.5 c 128,-1,5
 610 1231 610 1231 610 1120 c 0,6,7
 610 1006 610 1006 540 931 c 128,-1,8
 470 856 470 856 346 856 c 0,9,10
 226 856 226 856 154 931.5 c 128,-1,11
 82 1007 82 1007 82 1120 c 0,0,1
193 1120 m 0,12,13
 193 1047 193 1047 236 997.5 c 128,-1,14
 279 948 279 948 346 948 c 0,15,16
 411 948 411 948 454.5 997.5 c 128,-1,17
 498 1047 498 1047 498 1120 c 0,18,19
 498 1191 498 1191 454.5 1241.5 c 128,-1,20
 411 1292 411 1292 346 1292 c 0,21,22
 280 1292 280 1292 236.5 1242 c 128,-1,23
 193 1192 193 1192 193 1120 c 0,12,13
EndSplineSet
Validated: 1
EndChar

StartChar: plusminus
Encoding: 177 177 114
Width: 1097
GlyphClass: 2
Flags: W
LayerCount: 2
Fore
SplineSet
111 53 m 1,0,-1
 111 180 l 1,1,-1
 948 180 l 1,2,-1
 948 53 l 1,3,-1
 111 53 l 1,0,-1
129 616 m 1,4,-1
 129 743 l 1,5,-1
 483 743 l 1,6,-1
 483 1079 l 1,7,-1
 592 1079 l 1,8,-1
 592 743 l 1,9,-1
 948 743 l 1,10,-1
 948 616 l 1,11,-1
 592 616 l 1,12,-1
 592 281 l 1,13,-1
 483 281 l 1,14,-1
 483 616 l 1,15,-1
 129 616 l 1,4,-1
EndSplineSet
Validated: 1
EndChar

StartChar: uni00B2
Encoding: 178 178 115
Width: 765
GlyphClass: 2
Flags: W
LayerCount: 2
Fore
SplineSet
125 578 m 1,0,1
 260 751 260 751 345.5 856 c 128,-1,2
 431 961 431 961 459.5 992.5 c 128,-1,3
 488 1024 488 1024 532 1071 c 1,4,5
 532 1119 532 1119 531.5 1141 c 128,-1,6
 531 1163 531 1163 527.5 1187.5 c 128,-1,7
 524 1212 524 1212 516 1229 c 0,8,9
 514 1231 514 1231 504 1241 c 128,-1,10
 494 1251 494 1251 491 1254 c 128,-1,11
 488 1257 488 1257 479 1265 c 128,-1,12
 470 1273 470 1273 464 1277 c 128,-1,13
 458 1281 458 1281 448.5 1286 c 128,-1,14
 439 1291 439 1291 430 1294 c 0,15,16
 317 1294 317 1294 182 1245 c 1,17,18
 145 1286 145 1286 183 1323 c 128,-1,19
 221 1360 221 1360 305 1382 c 1,20,21
 367 1382 367 1382 392.5 1381.5 c 128,-1,22
 418 1381 418 1381 458 1376 c 128,-1,23
 498 1371 498 1371 530 1360 c 1,24,25
 560 1334 560 1334 576 1319 c 128,-1,26
 592 1304 592 1304 615 1277.5 c 128,-1,27
 638 1251 638 1251 653 1223 c 1,28,-1
 653 1153 l 2,29,30
 653 1112 653 1112 644.5 1078.5 c 128,-1,31
 636 1045 636 1045 613.5 1011.5 c 128,-1,32
 591 978 591 978 574 957.5 c 128,-1,33
 557 937 557 937 520 897 c 2,34,-1
 496 870 l 1,35,-1
 496 872 l 1,36,37
 456 829 456 829 384 749.5 c 128,-1,38
 312 670 312 670 272 627 c 1,39,40
 214 584 214 584 182 569.5 c 128,-1,41
 150 555 150 555 141 559 c 128,-1,42
 132 563 132 563 125 578 c 1,0,1
EndSplineSet
Validated: 33
EndChar

StartChar: uni00B3
Encoding: 179 179 116
Width: 712
GlyphClass: 2
Flags: W
LayerCount: 2
Fore
SplineSet
78 741 m 1,0,1
 217 625 217 625 330 625 c 0,2,3
 409 625 409 625 457.5 671.5 c 128,-1,4
 506 718 506 718 506 807 c 0,5,6
 506 868 506 868 474 904.5 c 128,-1,7
 442 941 442 941 399 956 c 1,8,-1
 256 956 l 2,9,10
 238 956 238 956 227.5 972 c 128,-1,11
 217 988 217 988 217 1001 c 128,-1,12
 217 1014 217 1014 227 1031.5 c 128,-1,13
 237 1049 237 1049 258 1049 c 2,14,-1
 401 1049 l 1,15,16
 438 1055 438 1055 468 1094.5 c 128,-1,17
 498 1134 498 1134 498 1186 c 0,18,19
 498 1240 498 1240 459 1269 c 128,-1,20
 420 1298 420 1298 356 1298 c 0,21,22
 303 1298 303 1298 227.5 1264 c 128,-1,23
 152 1230 152 1230 129 1174 c 1,24,-1
 113 1307 l 1,25,26
 226 1386 226 1386 362 1386 c 0,27,28
 476 1386 476 1386 546 1331 c 128,-1,29
 616 1276 616 1276 616 1184 c 0,30,31
 616 1122 616 1122 582.5 1077 c 128,-1,32
 549 1032 549 1032 502 1006 c 1,33,34
 551 976 551 976 589 926.5 c 128,-1,35
 627 877 627 877 627 811 c 0,36,37
 627 754 627 754 608 706.5 c 128,-1,38
 589 659 589 659 558.5 627.5 c 128,-1,39
 528 596 528 596 488.5 574 c 128,-1,40
 449 552 449 552 408 542 c 128,-1,41
 367 532 367 532 326 532 c 0,42,43
 206 532 206 532 94 608 c 1,44,-1
 78 741 l 1,0,1
EndSplineSet
Validated: 1
EndChar

StartChar: acute
Encoding: 180 180 117
Width: 1028
GlyphClass: 2
Flags: W
LayerCount: 2
Fore
SplineSet
367 1092 m 1,0,-1
 641 1366 l 1,1,-1
 813 1366 l 1,2,-1
 477 1094 l 1,3,-1
 367 1092 l 1,0,-1
EndSplineSet
Validated: 1
EndChar

StartChar: uni00B5
Encoding: 181 181 118
Width: 1024
GlyphClass: 2
Flags: W
LayerCount: 2
Fore
SplineSet
129 -410 m 1,0,-1
 129 950 l 1,1,2
 151 968 151 968 195.5 982.5 c 128,-1,3
 240 997 240 997 274 997 c 1,4,-1
 272 264 l 1,5,6
 278 212 278 212 321 172.5 c 128,-1,7
 364 133 364 133 424 133 c 128,-1,8
 484 133 484 133 554 180 c 128,-1,9
 624 227 624 227 723 324 c 1,10,-1
 723 948 l 1,11,12
 770 983 770 983 862 995 c 1,13,-1
 862 242 l 2,14,15
 862 160 862 160 963 55 c 1,16,17
 909 4 909 4 842 -6 c 1,18,19
 811 10 811 10 773.5 64 c 128,-1,20
 736 118 736 118 723 172 c 1,21,-1
 702 152 l 1,22,23
 566 -10 566 -10 414 -10 c 0,24,25
 335 -10 335 -10 272 41 c 1,26,-1
 272 -410 l 1,27,-1
 129 -410 l 1,0,-1
EndSplineSet
Validated: 1
EndChar

StartChar: paragraph
Encoding: 182 182 119
Width: 1243
GlyphClass: 2
Flags: W
LayerCount: 2
Fore
SplineSet
82 940 m 0,0,1
 82 1020 82 1020 111.5 1095.5 c 128,-1,2
 141 1171 141 1171 195 1232 c 128,-1,3
 249 1293 249 1293 333 1329.5 c 128,-1,4
 417 1366 417 1366 518 1366 c 2,5,-1
 1128 1366 l 1,6,7
 1159 1330 1159 1330 1159 1223 c 1,8,9
 1086 1243 1086 1243 1038 1243 c 2,10,-1
 1008 1243 l 1,11,-1
 1008 0 l 1,12,-1
 891 0 l 1,13,-1
 891 1243 l 1,14,-1
 752 1243 l 1,15,-1
 752 0 l 1,16,-1
 633 0 l 1,17,-1
 633 539 l 1,18,19
 536 514 536 514 496 514 c 0,20,21
 410 514 410 514 336 541 c 128,-1,22
 262 568 262 568 205 619.5 c 128,-1,23
 148 671 148 671 115 753.5 c 128,-1,24
 82 836 82 836 82 940 c 0,0,1
236 932 m 0,25,26
 236 859 236 859 260 801 c 128,-1,27
 284 743 284 743 324 707 c 128,-1,28
 364 671 364 671 413.5 652 c 128,-1,29
 463 633 463 633 516 633 c 0,30,31
 580 633 580 633 633 657 c 1,32,-1
 633 1233 l 1,33,-1
 543 1233 l 2,34,35
 409 1233 409 1233 322.5 1144.5 c 128,-1,36
 236 1056 236 1056 236 932 c 0,25,26
EndSplineSet
Validated: 1
EndChar

StartChar: periodcentered
Encoding: 183 183 120
Width: 403
GlyphClass: 2
Flags: W
LayerCount: 2
Fore
SplineSet
98 520 m 0,0,1
 98 560 98 560 126.5 589 c 128,-1,2
 155 618 155 618 195 618 c 0,3,4
 233 618 233 618 259 589 c 128,-1,5
 285 560 285 560 285 520 c 0,6,7
 285 477 285 477 259 448.5 c 128,-1,8
 233 420 233 420 195 420 c 0,9,10
 155 420 155 420 126.5 449 c 128,-1,11
 98 478 98 478 98 520 c 0,0,1
EndSplineSet
Validated: 1
EndChar

StartChar: cedilla
Encoding: 184 184 121
Width: 940
GlyphClass: 2
Flags: W
LayerCount: 2
Fore
SplineSet
313 -297 m 1,0,-1
 348 -248 l 1,1,2
 426 -270 426 -270 479 -270 c 0,3,4
 590 -270 590 -270 590 -197 c 0,5,6
 590 -169 590 -169 564.5 -153 c 128,-1,7
 539 -137 539 -137 500 -137 c 0,8,9
 478 -137 478 -137 440.5 -143.5 c 128,-1,10
 403 -150 403 -150 376 -157 c 2,11,-1
 350 -164 l 1,12,-1
 324 -127 l 1,13,14
 453 25 453 25 455 25 c 2,15,-1
 489 10 l 1,16,-1
 410 -92 l 1,17,18
 473 -66 473 -66 514 -66 c 0,19,20
 717 -66 717 -66 717 -195 c 0,21,22
 717 -239 717 -239 695.5 -270.5 c 128,-1,23
 674 -302 674 -302 638.5 -317.5 c 128,-1,24
 603 -333 603 -333 568 -339.5 c 128,-1,25
 533 -346 533 -346 496 -346 c 0,26,27
 460 -346 460 -346 414 -334 c 128,-1,28
 368 -322 368 -322 340 -310 c 2,29,-1
 313 -297 l 1,0,-1
EndSplineSet
Validated: 1
EndChar

StartChar: uni00B9
Encoding: 185 185 122
Width: 438
GlyphClass: 2
Flags: W
LayerCount: 2
Fore
SplineSet
80 1110 m 1,0,1
 160 1221 160 1221 258 1389 c 1,2,-1
 317 1358 l 1,3,-1
 317 528 l 1,4,-1
 203 528 l 1,5,-1
 203 1120 l 1,6,-1
 150 1051 l 1,7,-1
 123 1020 l 1,8,-1
 80 1110 l 1,0,1
EndSplineSet
Validated: 1
EndChar

StartChar: ordmasculine
Encoding: 186 186 123
Width: 761
GlyphClass: 2
Flags: W
LayerCount: 2
Fore
SplineSet
92 1073 m 0,0,1
 92 1207 92 1207 168 1295.5 c 128,-1,2
 244 1384 244 1384 379 1384 c 0,3,4
 506 1384 506 1384 586 1294.5 c 128,-1,5
 666 1205 666 1205 666 1073 c 0,6,7
 666 940 666 940 590 852 c 128,-1,8
 514 764 514 764 379 764 c 0,9,10
 250 764 250 764 171 853 c 128,-1,11
 92 942 92 942 92 1073 c 0,0,1
213 1085 m 0,12,13
 213 1000 213 1000 260.5 937 c 128,-1,14
 308 874 308 874 379 874 c 128,-1,15
 450 874 450 874 496.5 928 c 128,-1,16
 543 982 543 982 543 1065 c 0,17,18
 543 1151 543 1151 495.5 1213.5 c 128,-1,19
 448 1276 448 1276 379 1276 c 0,20,21
 307 1276 307 1276 260 1222.5 c 128,-1,22
 213 1169 213 1169 213 1085 c 0,12,13
EndSplineSet
Validated: 1
EndChar

StartChar: guillemotright
Encoding: 187 187 124
Width: 1116
GlyphClass: 2
Flags: W
LayerCount: 2
Fore
SplineSet
109 829 m 1,0,-1
 154 879 l 1,1,-1
 623 561 l 1,2,-1
 625 438 l 1,3,-1
 160 104 l 1,4,-1
 117 152 l 1,5,-1
 471 504 l 1,6,-1
 109 829 l 1,0,-1
494 829 m 1,7,-1
 539 879 l 1,8,-1
 1008 561 l 1,9,-1
 1010 438 l 1,10,-1
 545 104 l 1,11,-1
 502 152 l 1,12,-1
 856 504 l 1,13,-1
 494 829 l 1,7,-1
EndSplineSet
Validated: 1
EndChar

StartChar: onequarter
Encoding: 188 188 125
Width: 1464
GlyphClass: 2
Flags: W
LayerCount: 2
Fore
SplineSet
80 1110 m 1,0,1
 160 1221 160 1221 258 1389 c 1,2,-1
 317 1358 l 1,3,-1
 317 528 l 1,4,-1
 203 528 l 1,5,-1
 203 1120 l 1,6,-1
 150 1051 l 1,7,-1
 123 1020 l 1,8,-1
 80 1110 l 1,0,1
182 0 m 1,9,-1
 981 1366 l 1,10,-1
 1116 1366 l 1,11,-1
 317 0 l 1,12,-1
 182 0 l 1,9,-1
756 319 m 1,13,-1
 1100 842 l 1,14,-1
 1229 842 l 1,15,-1
 1229 342 l 1,16,-1
 1329 342 l 1,17,-1
 1329 227 l 1,18,-1
 1229 227 l 1,19,-1
 1229 0 l 1,20,-1
 1112 0 l 1,21,-1
 1112 229 l 1,22,23
 1062 229 1062 229 958 230 c 128,-1,24
 854 231 854 231 805 231 c 1,25,-1
 756 319 l 1,13,-1
879 342 m 1,26,-1
 1112 342 l 1,27,-1
 1112 684 l 1,28,29
 1084 643 1084 643 1005 527.5 c 128,-1,30
 926 412 926 412 879 342 c 1,26,-1
EndSplineSet
Validated: 1
EndChar

StartChar: onehalf
Encoding: 189 189 126
Width: 1531
GlyphClass: 2
Flags: W
LayerCount: 2
Fore
SplineSet
80 1110 m 1,0,1
 160 1221 160 1221 258 1389 c 1,2,-1
 317 1358 l 1,3,-1
 317 528 l 1,4,-1
 203 528 l 1,5,-1
 203 1120 l 1,6,-1
 150 1051 l 1,7,-1
 123 1020 l 1,8,-1
 80 1110 l 1,0,1
182 0 m 1,9,-1
 981 1366 l 1,10,-1
 1116 1366 l 1,11,-1
 317 0 l 1,12,-1
 182 0 l 1,9,-1
881 82 m 1,13,14
 904 107 904 107 1015 227 c 128,-1,15
 1126 347 1126 347 1184 412 c 1,16,-1
 1184 410 l 1,17,18
 1220 448 1220 448 1240.5 471.5 c 128,-1,19
 1261 495 1261 495 1282 535.5 c 128,-1,20
 1303 576 1303 576 1303 612 c 0,21,22
 1303 675 1303 675 1263 716.5 c 128,-1,23
 1223 758 1223 758 1163 758 c 0,24,25
 1099 758 1099 758 1021 721.5 c 128,-1,26
 943 685 943 685 920 631 c 1,27,-1
 901 766 l 1,28,29
 950 804 950 804 1022.5 825 c 128,-1,30
 1095 846 1095 846 1167 846 c 0,31,32
 1273 846 1273 846 1348 782 c 128,-1,33
 1423 718 1423 718 1423 616 c 0,34,35
 1423 583 1423 583 1415.5 553 c 128,-1,36
 1408 523 1408 523 1399 501.5 c 128,-1,37
 1390 480 1390 480 1369 452 c 128,-1,38
 1348 424 1348 424 1334 408 c 128,-1,39
 1320 392 1320 392 1290 360 c 2,40,-1
 1266 334 l 1,41,-1
 1266 336 l 1,42,43
 1233 300 1233 300 1193.5 256.5 c 128,-1,44
 1154 213 1154 213 1114.5 169.5 c 128,-1,45
 1075 126 1075 126 1042 90 c 1,46,-1
 1419 90 l 1,47,-1
 1419 0 l 1,48,-1
 920 0 l 1,49,50
 900 27 900 27 889 59 c 2,51,-1
 881 82 l 1,13,14
EndSplineSet
Validated: 1
EndChar

StartChar: threequarters
Encoding: 190 190 127
Width: 1536
GlyphClass: 2
Flags: W
LayerCount: 2
Fore
SplineSet
78 741 m 1,0,1
 217 625 217 625 330 625 c 0,2,3
 409 625 409 625 457.5 671.5 c 128,-1,4
 506 718 506 718 506 807 c 0,5,6
 506 868 506 868 474 904.5 c 128,-1,7
 442 941 442 941 399 956 c 1,8,-1
 256 956 l 2,9,10
 238 956 238 956 227.5 972 c 128,-1,11
 217 988 217 988 217 1001 c 128,-1,12
 217 1014 217 1014 227 1031.5 c 128,-1,13
 237 1049 237 1049 258 1049 c 2,14,-1
 401 1049 l 1,15,16
 438 1055 438 1055 468 1094.5 c 128,-1,17
 498 1134 498 1134 498 1186 c 0,18,19
 498 1240 498 1240 459 1269 c 128,-1,20
 420 1298 420 1298 356 1298 c 0,21,22
 303 1298 303 1298 227.5 1264 c 128,-1,23
 152 1230 152 1230 129 1174 c 1,24,-1
 113 1307 l 1,25,26
 226 1386 226 1386 362 1386 c 0,27,28
 476 1386 476 1386 546 1331 c 128,-1,29
 616 1276 616 1276 616 1184 c 0,30,31
 616 1122 616 1122 582.5 1077 c 128,-1,32
 549 1032 549 1032 502 1006 c 1,33,34
 551 976 551 976 589 926.5 c 128,-1,35
 627 877 627 877 627 811 c 0,36,37
 627 754 627 754 608 706.5 c 128,-1,38
 589 659 589 659 558.5 627.5 c 128,-1,39
 528 596 528 596 488.5 574 c 128,-1,40
 449 552 449 552 408 542 c 128,-1,41
 367 532 367 532 326 532 c 0,42,43
 206 532 206 532 94 608 c 1,44,-1
 78 741 l 1,0,1
326 0 m 1,45,-1
 1124 1366 l 1,46,-1
 1260 1366 l 1,47,-1
 461 0 l 1,48,-1
 326 0 l 1,45,-1
838 319 m 1,49,-1
 1182 842 l 1,50,-1
 1311 842 l 1,51,-1
 1311 342 l 1,52,-1
 1411 342 l 1,53,-1
 1411 227 l 1,54,-1
 1311 227 l 1,55,-1
 1311 0 l 1,56,-1
 1194 0 l 1,57,-1
 1194 229 l 1,58,59
 1144 229 1144 229 1040 230 c 128,-1,60
 936 231 936 231 887 231 c 1,61,-1
 838 319 l 1,49,-1
961 342 m 1,62,-1
 1194 342 l 1,63,-1
 1194 684 l 1,64,65
 1166 643 1166 643 1087 527.5 c 128,-1,66
 1008 412 1008 412 961 342 c 1,62,-1
EndSplineSet
Validated: 1
EndChar

StartChar: questiondown
Encoding: 191 191 128
Width: 808
GlyphClass: 2
Flags: W
LayerCount: 2
Fore
SplineSet
55 178 m 0,0,1
 55 252 55 252 96.5 321 c 128,-1,2
 138 390 138 390 197 441 c 128,-1,3
 256 492 256 492 315 538.5 c 128,-1,4
 374 585 374 585 415.5 632 c 128,-1,5
 457 679 457 679 457 721 c 0,6,7
 457 784 457 784 395 784 c 0,8,9
 371 784 371 784 334 770 c 1,10,-1
 334 879 l 1,11,12
 363 901 363 901 414 901 c 0,13,14
 494 901 494 901 551 851.5 c 128,-1,15
 608 802 608 802 608 723 c 0,16,17
 608 656 608 656 567.5 591 c 128,-1,18
 527 526 527 526 469 474.5 c 128,-1,19
 411 423 411 423 353.5 375.5 c 128,-1,20
 296 328 296 328 255.5 276 c 128,-1,21
 215 224 215 224 215 176 c 0,22,23
 215 83 215 83 261.5 30 c 128,-1,24
 308 -23 308 -23 399 -23 c 0,25,26
 502 -23 502 -23 599 35 c 128,-1,27
 696 93 696 93 735 184 c 1,28,-1
 735 -8 l 1,29,30
 673 -63 673 -63 575.5 -98 c 128,-1,31
 478 -133 478 -133 393 -133 c 0,32,33
 243 -133 243 -133 149 -51.5 c 128,-1,34
 55 30 55 30 55 178 c 0,0,1
352 1157 m 128,-1,36
 352 1199 352 1199 380 1228 c 128,-1,37
 408 1257 408 1257 449 1257 c 128,-1,38
 490 1257 490 1257 517.5 1227.5 c 128,-1,39
 545 1198 545 1198 545 1157 c 128,-1,40
 545 1116 545 1116 517.5 1086.5 c 128,-1,41
 490 1057 490 1057 449 1057 c 128,-1,42
 408 1057 408 1057 380 1086 c 128,-1,35
 352 1115 352 1115 352 1157 c 128,-1,36
EndSplineSet
Validated: 1
EndChar

StartChar: Agrave
Encoding: 192 192 129
Width: 1185
GlyphClass: 2
Flags: W
LayerCount: 2
Fore
SplineSet
31 0 m 1,0,-1
 559 1366 l 1,1,-1
 592 1366 l 1,2,-1
 1124 0 l 1,3,-1
 842 0 l 1,4,5
 877 15 877 15 899 52.5 c 128,-1,6
 921 90 921 90 901 141 c 2,7,-1
 821 350 l 1,8,-1
 289 350 l 1,9,-1
 154 0 l 1,10,-1
 31 0 l 1,0,-1
220 1747 m 1,11,-1
 392 1747 l 1,12,-1
 666 1473 l 1,13,-1
 555 1475 l 1,14,-1
 220 1747 l 1,11,-1
330 463 m 1,15,-1
 776 463 l 1,16,-1
 553 1042 l 1,17,-1
 330 463 l 1,15,-1
EndSplineSet
Validated: 33
EndChar

StartChar: Aacute
Encoding: 193 193 130
Width: 1185
GlyphClass: 2
Flags: W
LayerCount: 2
Fore
SplineSet
31 0 m 1,0,-1
 559 1366 l 1,1,-1
 592 1366 l 1,2,-1
 1124 0 l 1,3,-1
 842 0 l 1,4,5
 877 15 877 15 899 52.5 c 128,-1,6
 921 90 921 90 901 141 c 2,7,-1
 821 350 l 1,8,-1
 289 350 l 1,9,-1
 154 0 l 1,10,-1
 31 0 l 1,0,-1
330 463 m 1,11,-1
 776 463 l 1,12,-1
 553 1042 l 1,13,-1
 330 463 l 1,11,-1
461 1483 m 1,14,-1
 735 1757 l 1,15,-1
 907 1757 l 1,16,-1
 571 1485 l 1,17,-1
 461 1483 l 1,14,-1
EndSplineSet
Validated: 33
EndChar

StartChar: Acircumflex
Encoding: 194 194 131
Width: 1185
GlyphClass: 2
Flags: W
LayerCount: 2
Fore
SplineSet
31 0 m 1,0,-1
 559 1366 l 1,1,-1
 592 1366 l 1,2,-1
 1124 0 l 1,3,-1
 842 0 l 1,4,5
 877 15 877 15 899 52.5 c 128,-1,6
 921 90 921 90 901 141 c 2,7,-1
 821 350 l 1,8,-1
 289 350 l 1,9,-1
 154 0 l 1,10,-1
 31 0 l 1,0,-1
303 1446 m 1,11,-1
 571 1799 l 1,12,-1
 840 1446 l 1,13,-1
 719 1446 l 1,14,-1
 576 1645 l 1,15,-1
 426 1446 l 1,16,-1
 303 1446 l 1,11,-1
330 463 m 1,17,-1
 776 463 l 1,18,-1
 553 1042 l 1,19,-1
 330 463 l 1,17,-1
EndSplineSet
Validated: 33
EndChar

StartChar: Atilde
Encoding: 195 195 132
Width: 1185
GlyphClass: 2
Flags: W
LayerCount: 2
Fore
SplineSet
31 0 m 1,0,-1
 559 1366 l 1,1,-1
 592 1366 l 1,2,-1
 1124 0 l 1,3,-1
 842 0 l 1,4,5
 877 15 877 15 899 52.5 c 128,-1,6
 921 90 921 90 901 141 c 2,7,-1
 821 350 l 1,8,-1
 289 350 l 1,9,-1
 154 0 l 1,10,-1
 31 0 l 1,0,-1
229 1481 m 0,11,12
 234 1566 234 1566 279.5 1642 c 128,-1,13
 325 1718 325 1718 395 1718 c 0,14,15
 439 1718 439 1718 486 1697 c 128,-1,16
 533 1676 533 1676 566 1650.5 c 128,-1,17
 599 1625 599 1625 636.5 1604 c 128,-1,18
 674 1583 674 1583 700 1583 c 0,19,20
 728 1583 728 1583 755 1619.5 c 128,-1,21
 782 1656 782 1656 791 1708 c 1,22,-1
 850 1690 l 1,23,24
 847 1640 847 1640 828.5 1591 c 128,-1,25
 810 1542 810 1542 770.5 1504 c 128,-1,26
 731 1466 731 1466 680 1466 c 0,27,28
 635 1466 635 1466 577 1498 c 128,-1,29
 519 1530 519 1530 470 1561.5 c 128,-1,30
 421 1593 421 1593 399 1593 c 0,31,32
 357 1593 357 1593 326 1557.5 c 128,-1,33
 295 1522 295 1522 291 1458 c 1,34,35
 285 1463 285 1463 258 1471.5 c 128,-1,36
 231 1480 231 1480 229 1481 c 0,11,12
330 463 m 1,37,-1
 776 463 l 1,38,-1
 553 1042 l 1,39,-1
 330 463 l 1,37,-1
EndSplineSet
Validated: 33
EndChar

StartChar: Adieresis
Encoding: 196 196 133
Width: 1185
GlyphClass: 2
Flags: W
LayerCount: 2
Fore
SplineSet
31 0 m 1,0,-1
 559 1366 l 1,1,-1
 592 1366 l 1,2,-1
 1124 0 l 1,3,-1
 842 0 l 1,4,5
 877 15 877 15 899 52.5 c 128,-1,6
 921 90 921 90 901 141 c 2,7,-1
 821 350 l 1,8,-1
 289 350 l 1,9,-1
 154 0 l 1,10,-1
 31 0 l 1,0,-1
287 1575 m 128,-1,12
 287 1615 287 1615 314 1643 c 128,-1,13
 341 1671 341 1671 381 1671 c 128,-1,14
 421 1671 421 1671 449 1643 c 128,-1,15
 477 1615 477 1615 477 1575 c 128,-1,16
 477 1535 477 1535 449 1508 c 128,-1,17
 421 1481 421 1481 381 1481 c 128,-1,18
 341 1481 341 1481 314 1508 c 128,-1,11
 287 1535 287 1535 287 1575 c 128,-1,12
330 463 m 1,19,-1
 776 463 l 1,20,-1
 553 1042 l 1,21,-1
 330 463 l 1,19,-1
664 1575 m 128,-1,23
 664 1615 664 1615 691 1643 c 128,-1,24
 718 1671 718 1671 758 1671 c 128,-1,25
 798 1671 798 1671 826 1643 c 128,-1,26
 854 1615 854 1615 854 1575 c 128,-1,27
 854 1535 854 1535 826 1508 c 128,-1,28
 798 1481 798 1481 758 1481 c 128,-1,29
 718 1481 718 1481 691 1508 c 128,-1,22
 664 1535 664 1535 664 1575 c 128,-1,23
EndSplineSet
Validated: 33
EndChar

StartChar: Aring
Encoding: 197 197 134
Width: 1185
GlyphClass: 2
Flags: W
LayerCount: 2
Fore
SplineSet
31 0 m 1,0,-1
 559 1366 l 1,1,-1
 592 1366 l 1,2,-1
 1124 0 l 1,3,-1
 842 0 l 1,4,5
 877 15 877 15 899 52.5 c 128,-1,6
 921 90 921 90 901 141 c 2,7,-1
 821 350 l 1,8,-1
 289 350 l 1,9,-1
 154 0 l 1,10,-1
 31 0 l 1,0,-1
330 463 m 1,11,-1
 776 463 l 1,12,-1
 553 1042 l 1,13,-1
 330 463 l 1,11,-1
362 1614 m 0,14,15
 362 1690 362 1690 414 1742 c 128,-1,16
 466 1794 466 1794 557 1794 c 0,17,18
 644 1794 644 1794 698 1741 c 128,-1,19
 752 1688 752 1688 752 1614 c 0,20,21
 752 1536 752 1536 700 1484 c 128,-1,22
 648 1432 648 1432 557 1432 c 0,23,24
 469 1432 469 1432 415.5 1484.5 c 128,-1,25
 362 1537 362 1537 362 1614 c 0,14,15
459 1616 m 0,26,27
 459 1573 459 1573 486.5 1545.5 c 128,-1,28
 514 1518 514 1518 557 1518 c 0,29,30
 599 1518 599 1518 627 1546 c 128,-1,31
 655 1574 655 1574 655 1616 c 0,32,33
 655 1655 655 1655 626.5 1682.5 c 128,-1,34
 598 1710 598 1710 557 1710 c 0,35,36
 515 1710 515 1710 487 1682.5 c 128,-1,37
 459 1655 459 1655 459 1616 c 0,26,27
EndSplineSet
Validated: 33
EndChar

StartChar: AE
Encoding: 198 198 135
Width: 1826
GlyphClass: 2
Flags: W
LayerCount: 2
Fore
SplineSet
41 0 m 1,0,-1
 977 1368 l 1,1,-1
 979 1366 l 1,2,-1
 979 1368 l 1,3,-1
 1690 1368 l 1,4,-1
 1690 1184 l 1,5,6
 1673 1192 1673 1192 1647.5 1208 c 128,-1,7
 1622 1224 1622 1224 1606.5 1230.5 c 128,-1,8
 1591 1237 1591 1237 1545 1243 c 128,-1,9
 1499 1249 1499 1249 1425 1249 c 2,10,-1
 1128 1249 l 1,11,-1
 1128 641 l 1,12,-1
 1624 641 l 1,13,-1
 1622 524 l 1,14,-1
 1128 524 l 1,15,-1
 1128 115 l 1,16,-1
 1417 115 l 2,17,18
 1619 115 1619 115 1694 186 c 1,19,-1
 1694 0 l 1,20,-1
 979 0 l 1,21,-1
 979 524 l 1,22,-1
 549 524 l 1,23,-1
 190 0 l 1,24,-1
 41 0 l 1,0,-1
629 643 m 1,25,-1
 979 643 l 1,26,-1
 979 1186 l 1,27,-1
 629 643 l 1,25,-1
EndSplineSet
Validated: 1
EndChar

StartChar: Ccedilla
Encoding: 199 199 136
Width: 1302
GlyphClass: 2
Flags: W
LayerCount: 2
Fore
SplineSet
92 713 m 0,0,1
 92 858 92 858 140.5 983 c 128,-1,2
 189 1108 189 1108 272 1194 c 128,-1,3
 355 1280 355 1280 469.5 1329 c 128,-1,4
 584 1378 584 1378 713 1378 c 0,5,6
 807 1378 807 1378 893 1363 c 128,-1,7
 979 1348 979 1348 1037 1325 c 128,-1,8
 1095 1302 1095 1302 1131 1282.5 c 128,-1,9
 1167 1263 1167 1263 1186 1247 c 1,10,-1
 1186 1055 l 1,11,12
 1156 1093 1156 1093 1115 1127.5 c 128,-1,13
 1074 1162 1074 1162 1016.5 1194.5 c 128,-1,14
 959 1227 959 1227 881 1246.5 c 128,-1,15
 803 1266 803 1266 717 1266 c 128,-1,16
 631 1266 631 1266 548 1228 c 128,-1,17
 465 1190 465 1190 398.5 1123 c 128,-1,18
 332 1056 332 1056 291 954 c 128,-1,19
 250 852 250 852 250 733 c 0,20,21
 250 607 250 607 279 500.5 c 128,-1,22
 308 394 308 394 356.5 321.5 c 128,-1,23
 405 249 405 249 468 197.5 c 128,-1,24
 531 146 531 146 597.5 122 c 128,-1,25
 664 98 664 98 731 98 c 0,26,27
 868 98 868 98 958.5 136 c 128,-1,28
 1049 174 1049 174 1124 244 c 0,29,30
 1165 282 1165 282 1188 324 c 1,31,-1
 1157 102 l 1,32,33
 1040 37 1040 37 956.5 11.5 c 128,-1,34
 873 -14 873 -14 721 -14 c 0,35,36
 588 -14 588 -14 474 32.5 c 128,-1,37
 360 79 360 79 274.5 167.5 c 128,-1,38
 189 256 189 256 140.5 396 c 128,-1,39
 92 536 92 536 92 713 c 0,0,1
516 -301 m 1,40,-1
 551 -252 l 1,41,42
 629 -274 629 -274 682 -274 c 0,43,44
 793 -274 793 -274 793 -201 c 0,45,46
 793 -173 793 -173 767.5 -157 c 128,-1,47
 742 -141 742 -141 703 -141 c 0,48,49
 681 -141 681 -141 643.5 -147.5 c 128,-1,50
 606 -154 606 -154 580 -161 c 2,51,-1
 553 -168 l 1,52,-1
 527 -131 l 1,53,54
 656 21 656 21 658 21 c 2,55,-1
 692 6 l 1,56,-1
 613 -96 l 1,57,58
 676 -70 676 -70 717 -70 c 0,59,60
 920 -70 920 -70 920 -199 c 0,61,62
 920 -243 920 -243 898.5 -274.5 c 128,-1,63
 877 -306 877 -306 841.5 -321.5 c 128,-1,64
 806 -337 806 -337 771 -343.5 c 128,-1,65
 736 -350 736 -350 699 -350 c 0,66,67
 663 -350 663 -350 617 -338 c 128,-1,68
 571 -326 571 -326 544 -314 c 2,69,-1
 516 -301 l 1,40,-1
EndSplineSet
Validated: 5
EndChar

StartChar: Egrave
Encoding: 200 200 137
Width: 1021
GlyphClass: 2
Flags: W
LayerCount: 2
Fore
SplineSet
133 0 m 1,0,-1
 133 1366 l 1,1,-1
 899 1366 l 1,2,-1
 899 1163 l 1,3,4
 859 1207 859 1207 807.5 1230 c 128,-1,5
 756 1253 756 1253 657 1253 c 2,6,-1
 287 1253 l 1,7,-1
 287 776 l 1,8,-1
 793 776 l 1,9,-1
 793 573 l 1,10,11
 721 664 721 664 549 664 c 2,12,-1
 287 664 l 1,13,-1
 287 113 l 1,14,-1
 901 113 l 1,15,-1
 899 0 l 1,16,-1
 133 0 l 1,0,-1
199 1757 m 1,17,-1
 371 1757 l 1,18,-1
 645 1483 l 1,19,-1
 535 1485 l 1,20,-1
 199 1757 l 1,17,-1
EndSplineSet
Validated: 1
EndChar

StartChar: Eacute
Encoding: 201 201 138
Width: 1021
GlyphClass: 2
Flags: W
LayerCount: 2
Fore
SplineSet
133 0 m 1,0,-1
 133 1366 l 1,1,-1
 899 1366 l 1,2,-1
 899 1163 l 1,3,4
 859 1207 859 1207 807.5 1230 c 128,-1,5
 756 1253 756 1253 657 1253 c 2,6,-1
 287 1253 l 1,7,-1
 287 776 l 1,8,-1
 793 776 l 1,9,-1
 793 573 l 1,10,11
 721 664 721 664 549 664 c 2,12,-1
 287 664 l 1,13,-1
 287 113 l 1,14,-1
 901 113 l 1,15,-1
 899 0 l 1,16,-1
 133 0 l 1,0,-1
369 1469 m 1,17,-1
 643 1743 l 1,18,-1
 815 1743 l 1,19,-1
 479 1471 l 1,20,-1
 369 1469 l 1,17,-1
EndSplineSet
Validated: 1
EndChar

StartChar: Ecircumflex
Encoding: 202 202 139
Width: 1021
GlyphClass: 2
Flags: W
LayerCount: 2
Fore
SplineSet
133 0 m 1,0,-1
 133 1366 l 1,1,-1
 899 1366 l 1,2,-1
 899 1163 l 1,3,4
 859 1207 859 1207 807.5 1230 c 128,-1,5
 756 1253 756 1253 657 1253 c 2,6,-1
 287 1253 l 1,7,-1
 287 776 l 1,8,-1
 793 776 l 1,9,-1
 793 573 l 1,10,11
 721 664 721 664 549 664 c 2,12,-1
 287 664 l 1,13,-1
 287 113 l 1,14,-1
 901 113 l 1,15,-1
 899 0 l 1,16,-1
 133 0 l 1,0,-1
242 1473 m 1,17,-1
 510 1825 l 1,18,-1
 778 1473 l 1,19,-1
 657 1473 l 1,20,-1
 514 1671 l 1,21,-1
 365 1473 l 1,22,-1
 242 1473 l 1,17,-1
EndSplineSet
Validated: 1
EndChar

StartChar: Edieresis
Encoding: 203 203 140
Width: 1021
GlyphClass: 2
Flags: W
LayerCount: 2
Fore
SplineSet
133 0 m 1,0,-1
 133 1366 l 1,1,-1
 899 1366 l 1,2,-1
 899 1163 l 1,3,4
 859 1207 859 1207 807.5 1230 c 128,-1,5
 756 1253 756 1253 657 1253 c 2,6,-1
 287 1253 l 1,7,-1
 287 776 l 1,8,-1
 793 776 l 1,9,-1
 793 573 l 1,10,11
 721 664 721 664 549 664 c 2,12,-1
 287 664 l 1,13,-1
 287 113 l 1,14,-1
 901 113 l 1,15,-1
 899 0 l 1,16,-1
 133 0 l 1,0,-1
199 1620 m 128,-1,18
 199 1660 199 1660 226 1688 c 128,-1,19
 253 1716 253 1716 293 1716 c 128,-1,20
 333 1716 333 1716 361 1688 c 128,-1,21
 389 1660 389 1660 389 1620 c 128,-1,22
 389 1580 389 1580 361 1553 c 128,-1,23
 333 1526 333 1526 293 1526 c 128,-1,24
 253 1526 253 1526 226 1553 c 128,-1,17
 199 1580 199 1580 199 1620 c 128,-1,18
576 1620 m 128,-1,26
 576 1660 576 1660 603 1688 c 128,-1,27
 630 1716 630 1716 670 1716 c 128,-1,28
 710 1716 710 1716 738 1688 c 128,-1,29
 766 1660 766 1660 766 1620 c 128,-1,30
 766 1580 766 1580 738 1553 c 128,-1,31
 710 1526 710 1526 670 1526 c 128,-1,32
 630 1526 630 1526 603 1553 c 128,-1,25
 576 1580 576 1580 576 1620 c 128,-1,26
EndSplineSet
Validated: 1
EndChar

StartChar: Igrave
Encoding: 204 204 141
Width: 526
GlyphClass: 2
Flags: W
LayerCount: 2
Fore
SplineSet
-117 1745 m 1,0,-1
 55 1745 l 1,1,-1
 330 1470 l 1,2,-1
 219 1473 l 1,3,-1
 -117 1745 l 1,0,-1
74 0 m 1,4,5
 118 30 118 30 141 61.5 c 128,-1,6
 164 93 164 93 164 143 c 2,7,-1
 164 1366 l 1,8,-1
 317 1366 l 1,9,-1
 317 0 l 1,10,-1
 74 0 l 1,4,5
EndSplineSet
Validated: 1
EndChar

StartChar: Iacute
Encoding: 205 205 142
Width: 526
GlyphClass: 2
Flags: W
LayerCount: 2
Fore
SplineSet
74 0 m 1,0,1
 118 30 118 30 141 61.5 c 128,-1,2
 164 93 164 93 164 143 c 2,3,-1
 164 1366 l 1,4,-1
 317 1366 l 1,5,-1
 317 0 l 1,6,-1
 74 0 l 1,0,1
152 1491 m 1,7,-1
 426 1765 l 1,8,-1
 598 1765 l 1,9,-1
 262 1493 l 1,10,-1
 152 1491 l 1,7,-1
EndSplineSet
Validated: 1
EndChar

StartChar: Icircumflex
Encoding: 206 206 143
Width: 526
GlyphClass: 2
Flags: W
LayerCount: 2
Fore
SplineSet
-27 1470 m 1,0,-1
 242 1823 l 1,1,-1
 510 1470 l 1,2,-1
 389 1470 l 1,3,-1
 246 1669 l 1,4,-1
 96 1470 l 1,5,-1
 -27 1470 l 1,0,-1
74 0 m 1,6,7
 118 30 118 30 141 61.5 c 128,-1,8
 164 93 164 93 164 143 c 2,9,-1
 164 1366 l 1,10,-1
 317 1366 l 1,11,-1
 317 0 l 1,12,-1
 74 0 l 1,6,7
EndSplineSet
Validated: 1
EndChar

StartChar: Idieresis
Encoding: 207 207 144
Width: 526
GlyphClass: 2
Flags: W
LayerCount: 2
Fore
SplineSet
-41 1602 m 128,-1,1
 -41 1642 -41 1642 -14 1670 c 128,-1,2
 13 1698 13 1698 53 1698 c 128,-1,3
 93 1698 93 1698 121 1670 c 128,-1,4
 149 1642 149 1642 149 1602 c 128,-1,5
 149 1562 149 1562 121 1535 c 128,-1,6
 93 1508 93 1508 53 1508 c 128,-1,7
 13 1508 13 1508 -14 1535 c 128,-1,0
 -41 1562 -41 1562 -41 1602 c 128,-1,1
74 0 m 1,8,9
 118 30 118 30 141 61.5 c 128,-1,10
 164 93 164 93 164 143 c 2,11,-1
 164 1366 l 1,12,-1
 317 1366 l 1,13,-1
 317 0 l 1,14,-1
 74 0 l 1,8,9
336 1602 m 128,-1,16
 336 1642 336 1642 363 1670 c 128,-1,17
 390 1698 390 1698 430 1698 c 128,-1,18
 470 1698 470 1698 498 1670 c 128,-1,19
 526 1642 526 1642 526 1602 c 128,-1,20
 526 1562 526 1562 498 1535 c 128,-1,21
 470 1508 470 1508 430 1508 c 128,-1,22
 390 1508 390 1508 363 1535 c 128,-1,15
 336 1562 336 1562 336 1602 c 128,-1,16
EndSplineSet
Validated: 1
EndChar

StartChar: Eth
Encoding: 208 208 145
Width: 1302
GlyphClass: 2
Flags: W
LayerCount: 2
Fore
SplineSet
23 657 m 1,0,-1
 23 776 l 1,1,-1
 174 776 l 1,2,-1
 174 1366 l 1,3,-1
 643 1366 l 2,4,5
 907 1366 907 1366 1062 1176 c 128,-1,6
 1217 986 1217 986 1217 682 c 0,7,8
 1217 541 1217 541 1176.5 418 c 128,-1,9
 1136 295 1136 295 1059 201.5 c 128,-1,10
 982 108 982 108 861 54 c 128,-1,11
 740 0 740 0 590 0 c 2,12,-1
 82 0 l 1,13,14
 115 19 115 19 144.5 68 c 128,-1,15
 174 117 174 117 174 164 c 2,16,-1
 174 657 l 1,17,-1
 23 657 l 1,0,-1
328 113 m 1,18,-1
 643 113 l 2,19,20
 742 113 742 113 838 188.5 c 128,-1,21
 934 264 934 264 996.5 397.5 c 128,-1,22
 1059 531 1059 531 1059 684 c 0,23,24
 1059 788 1059 788 1029 890.5 c 128,-1,25
 999 993 999 993 948 1073 c 128,-1,26
 897 1153 897 1153 823.5 1203 c 128,-1,27
 750 1253 750 1253 670 1253 c 2,28,-1
 328 1253 l 1,29,-1
 328 776 l 1,30,-1
 647 776 l 1,31,-1
 647 657 l 1,32,-1
 328 657 l 1,33,-1
 328 113 l 1,18,-1
EndSplineSet
Validated: 1
EndChar

StartChar: Ntilde
Encoding: 209 209 146
Width: 1282
GlyphClass: 2
Flags: W
LayerCount: 2
Fore
SplineSet
41 1366 m 1,0,-1
 260 1366 l 1,1,-1
 1020 258 l 1,2,-1
 1020 1366 l 1,3,-1
 1130 1366 l 1,4,-1
 1133 0 l 1,5,-1
 1014 0 l 1,6,-1
 248 1112 l 1,7,-1
 248 0 l 1,8,-1
 133 0 l 1,9,-1
 133 1239 l 2,10,11
 133 1276 133 1276 103.5 1312.5 c 128,-1,12
 74 1349 74 1349 41 1366 c 1,0,-1
303 1493 m 0,13,14
 308 1578 308 1578 353.5 1654 c 128,-1,15
 399 1730 399 1730 469 1730 c 0,16,17
 513 1730 513 1730 560 1709 c 128,-1,18
 607 1688 607 1688 640 1662.5 c 128,-1,19
 673 1637 673 1637 710.5 1616 c 128,-1,20
 748 1595 748 1595 774 1595 c 0,21,22
 802 1595 802 1595 828.5 1631.5 c 128,-1,23
 855 1668 855 1668 864 1720 c 1,24,-1
 924 1702 l 1,25,26
 921 1652 921 1652 902.5 1603 c 128,-1,27
 884 1554 884 1554 844.5 1516 c 128,-1,28
 805 1478 805 1478 754 1478 c 0,29,30
 709 1478 709 1478 651 1510 c 128,-1,31
 593 1542 593 1542 544 1573.5 c 128,-1,32
 495 1605 495 1605 473 1605 c 0,33,34
 431 1605 431 1605 400 1569.5 c 128,-1,35
 369 1534 369 1534 365 1470 c 1,36,37
 359 1475 359 1475 332 1483.5 c 128,-1,38
 305 1492 305 1492 303 1493 c 0,13,14
EndSplineSet
Validated: 1
EndChar

StartChar: Ograve
Encoding: 210 210 147
Width: 1388
GlyphClass: 2
Flags: W
LayerCount: 2
Fore
SplineSet
61 676 m 0,0,1
 61 838 61 838 109 972 c 128,-1,2
 157 1106 157 1106 240.5 1194 c 128,-1,3
 324 1282 324 1282 435.5 1330 c 128,-1,4
 547 1378 547 1378 674 1378 c 0,5,6
 775 1378 775 1378 868.5 1345.5 c 128,-1,7
 962 1313 962 1313 1038 1250.5 c 128,-1,8
 1114 1188 1114 1188 1171 1103 c 128,-1,9
 1228 1018 1228 1018 1259 908 c 128,-1,10
 1290 798 1290 798 1290 676 c 0,11,12
 1290 511 1290 511 1240.5 378 c 128,-1,13
 1191 245 1191 245 1105.5 160.5 c 128,-1,14
 1020 76 1020 76 909.5 31 c 128,-1,15
 799 -14 799 -14 674 -14 c 0,16,17
 406 -14 406 -14 233.5 178 c 128,-1,18
 61 370 61 370 61 676 c 0,0,1
223 731 m 0,19,20
 223 439 223 439 352.5 269.5 c 128,-1,21
 482 100 482 100 694 100 c 0,22,23
 779 100 779 100 857.5 139 c 128,-1,24
 936 178 936 178 996 247.5 c 128,-1,25
 1056 317 1056 317 1092 421.5 c 128,-1,26
 1128 526 1128 526 1128 649 c 0,27,28
 1128 739 1128 739 1109.5 826.5 c 128,-1,29
 1091 914 1091 914 1052 993.5 c 128,-1,30
 1013 1073 1013 1073 958 1133.5 c 128,-1,31
 903 1194 903 1194 824.5 1230 c 128,-1,32
 746 1266 746 1266 655 1266 c 0,33,34
 570 1266 570 1266 493 1230.5 c 128,-1,35
 416 1195 416 1195 355.5 1129 c 128,-1,36
 295 1063 295 1063 259 960 c 128,-1,37
 223 857 223 857 223 731 c 0,19,20
314 1751 m 1,38,-1
 486 1751 l 1,39,-1
 760 1477 l 1,40,-1
 649 1479 l 1,41,-1
 314 1751 l 1,38,-1
EndSplineSet
Validated: 1
EndChar

StartChar: Oacute
Encoding: 211 211 148
Width: 1388
GlyphClass: 2
Flags: W
LayerCount: 2
Fore
SplineSet
61 676 m 0,0,1
 61 838 61 838 109 972 c 128,-1,2
 157 1106 157 1106 240.5 1194 c 128,-1,3
 324 1282 324 1282 435.5 1330 c 128,-1,4
 547 1378 547 1378 674 1378 c 0,5,6
 775 1378 775 1378 868.5 1345.5 c 128,-1,7
 962 1313 962 1313 1038 1250.5 c 128,-1,8
 1114 1188 1114 1188 1171 1103 c 128,-1,9
 1228 1018 1228 1018 1259 908 c 128,-1,10
 1290 798 1290 798 1290 676 c 0,11,12
 1290 511 1290 511 1240.5 378 c 128,-1,13
 1191 245 1191 245 1105.5 160.5 c 128,-1,14
 1020 76 1020 76 909.5 31 c 128,-1,15
 799 -14 799 -14 674 -14 c 0,16,17
 406 -14 406 -14 233.5 178 c 128,-1,18
 61 370 61 370 61 676 c 0,0,1
223 731 m 0,19,20
 223 439 223 439 352.5 269.5 c 128,-1,21
 482 100 482 100 694 100 c 0,22,23
 779 100 779 100 857.5 139 c 128,-1,24
 936 178 936 178 996 247.5 c 128,-1,25
 1056 317 1056 317 1092 421.5 c 128,-1,26
 1128 526 1128 526 1128 649 c 0,27,28
 1128 739 1128 739 1109.5 826.5 c 128,-1,29
 1091 914 1091 914 1052 993.5 c 128,-1,30
 1013 1073 1013 1073 958 1133.5 c 128,-1,31
 903 1194 903 1194 824.5 1230 c 128,-1,32
 746 1266 746 1266 655 1266 c 0,33,34
 570 1266 570 1266 493 1230.5 c 128,-1,35
 416 1195 416 1195 355.5 1129 c 128,-1,36
 295 1063 295 1063 259 960 c 128,-1,37
 223 857 223 857 223 731 c 0,19,20
564 1481 m 1,38,-1
 838 1755 l 1,39,-1
 1010 1755 l 1,40,-1
 674 1483 l 1,41,-1
 564 1481 l 1,38,-1
EndSplineSet
Validated: 1
EndChar

StartChar: Ocircumflex
Encoding: 212 212 149
Width: 1388
GlyphClass: 2
Flags: W
LayerCount: 2
Fore
SplineSet
61 676 m 0,0,1
 61 838 61 838 109 972 c 128,-1,2
 157 1106 157 1106 240.5 1194 c 128,-1,3
 324 1282 324 1282 435.5 1330 c 128,-1,4
 547 1378 547 1378 674 1378 c 0,5,6
 775 1378 775 1378 868.5 1345.5 c 128,-1,7
 962 1313 962 1313 1038 1250.5 c 128,-1,8
 1114 1188 1114 1188 1171 1103 c 128,-1,9
 1228 1018 1228 1018 1259 908 c 128,-1,10
 1290 798 1290 798 1290 676 c 0,11,12
 1290 511 1290 511 1240.5 378 c 128,-1,13
 1191 245 1191 245 1105.5 160.5 c 128,-1,14
 1020 76 1020 76 909.5 31 c 128,-1,15
 799 -14 799 -14 674 -14 c 0,16,17
 406 -14 406 -14 233.5 178 c 128,-1,18
 61 370 61 370 61 676 c 0,0,1
223 731 m 0,19,20
 223 439 223 439 352.5 269.5 c 128,-1,21
 482 100 482 100 694 100 c 0,22,23
 779 100 779 100 857.5 139 c 128,-1,24
 936 178 936 178 996 247.5 c 128,-1,25
 1056 317 1056 317 1092 421.5 c 128,-1,26
 1128 526 1128 526 1128 649 c 0,27,28
 1128 739 1128 739 1109.5 826.5 c 128,-1,29
 1091 914 1091 914 1052 993.5 c 128,-1,30
 1013 1073 1013 1073 958 1133.5 c 128,-1,31
 903 1194 903 1194 824.5 1230 c 128,-1,32
 746 1266 746 1266 655 1266 c 0,33,34
 570 1266 570 1266 493 1230.5 c 128,-1,35
 416 1195 416 1195 355.5 1129 c 128,-1,36
 295 1063 295 1063 259 960 c 128,-1,37
 223 857 223 857 223 731 c 0,19,20
406 1466 m 1,38,-1
 674 1819 l 1,39,-1
 942 1466 l 1,40,-1
 821 1466 l 1,41,-1
 678 1665 l 1,42,-1
 528 1466 l 1,43,-1
 406 1466 l 1,38,-1
EndSplineSet
Validated: 1
EndChar

StartChar: Otilde
Encoding: 213 213 150
Width: 1388
GlyphClass: 2
Flags: W
LayerCount: 2
Fore
SplineSet
61 676 m 0,0,1
 61 838 61 838 109 972 c 128,-1,2
 157 1106 157 1106 240.5 1194 c 128,-1,3
 324 1282 324 1282 435.5 1330 c 128,-1,4
 547 1378 547 1378 674 1378 c 0,5,6
 775 1378 775 1378 868.5 1345.5 c 128,-1,7
 962 1313 962 1313 1038 1250.5 c 128,-1,8
 1114 1188 1114 1188 1171 1103 c 128,-1,9
 1228 1018 1228 1018 1259 908 c 128,-1,10
 1290 798 1290 798 1290 676 c 0,11,12
 1290 511 1290 511 1240.5 378 c 128,-1,13
 1191 245 1191 245 1105.5 160.5 c 128,-1,14
 1020 76 1020 76 909.5 31 c 128,-1,15
 799 -14 799 -14 674 -14 c 0,16,17
 406 -14 406 -14 233.5 178 c 128,-1,18
 61 370 61 370 61 676 c 0,0,1
223 731 m 0,19,20
 223 439 223 439 352.5 269.5 c 128,-1,21
 482 100 482 100 694 100 c 0,22,23
 779 100 779 100 857.5 139 c 128,-1,24
 936 178 936 178 996 247.5 c 128,-1,25
 1056 317 1056 317 1092 421.5 c 128,-1,26
 1128 526 1128 526 1128 649 c 0,27,28
 1128 739 1128 739 1109.5 826.5 c 128,-1,29
 1091 914 1091 914 1052 993.5 c 128,-1,30
 1013 1073 1013 1073 958 1133.5 c 128,-1,31
 903 1194 903 1194 824.5 1230 c 128,-1,32
 746 1266 746 1266 655 1266 c 0,33,34
 570 1266 570 1266 493 1230.5 c 128,-1,35
 416 1195 416 1195 355.5 1129 c 128,-1,36
 295 1063 295 1063 259 960 c 128,-1,37
 223 857 223 857 223 731 c 0,19,20
307 1487 m 0,38,39
 312 1572 312 1572 357.5 1648 c 128,-1,40
 403 1724 403 1724 473 1724 c 0,41,42
 517 1724 517 1724 564 1703 c 128,-1,43
 611 1682 611 1682 644 1656.5 c 128,-1,44
 677 1631 677 1631 714.5 1610 c 128,-1,45
 752 1589 752 1589 778 1589 c 0,46,47
 806 1589 806 1589 832.5 1625.5 c 128,-1,48
 859 1662 859 1662 868 1714 c 1,49,-1
 928 1696 l 1,50,51
 925 1646 925 1646 906.5 1597 c 128,-1,52
 888 1548 888 1548 848.5 1510 c 128,-1,53
 809 1472 809 1472 758 1472 c 0,54,55
 713 1472 713 1472 655 1504 c 128,-1,56
 597 1536 597 1536 548 1567.5 c 128,-1,57
 499 1599 499 1599 477 1599 c 0,58,59
 435 1599 435 1599 404 1563.5 c 128,-1,60
 373 1528 373 1528 369 1464 c 1,61,62
 363 1469 363 1469 336 1477.5 c 128,-1,63
 309 1486 309 1486 307 1487 c 0,38,39
EndSplineSet
Validated: 1
EndChar

StartChar: Odieresis
Encoding: 214 214 151
Width: 1388
GlyphClass: 2
Flags: W
LayerCount: 2
Fore
SplineSet
61 676 m 0,0,1
 61 838 61 838 109 972 c 128,-1,2
 157 1106 157 1106 240.5 1194 c 128,-1,3
 324 1282 324 1282 435.5 1330 c 128,-1,4
 547 1378 547 1378 674 1378 c 0,5,6
 775 1378 775 1378 868.5 1345.5 c 128,-1,7
 962 1313 962 1313 1038 1250.5 c 128,-1,8
 1114 1188 1114 1188 1171 1103 c 128,-1,9
 1228 1018 1228 1018 1259 908 c 128,-1,10
 1290 798 1290 798 1290 676 c 0,11,12
 1290 511 1290 511 1240.5 378 c 128,-1,13
 1191 245 1191 245 1105.5 160.5 c 128,-1,14
 1020 76 1020 76 909.5 31 c 128,-1,15
 799 -14 799 -14 674 -14 c 0,16,17
 406 -14 406 -14 233.5 178 c 128,-1,18
 61 370 61 370 61 676 c 0,0,1
223 731 m 0,19,20
 223 439 223 439 352.5 269.5 c 128,-1,21
 482 100 482 100 694 100 c 0,22,23
 779 100 779 100 857.5 139 c 128,-1,24
 936 178 936 178 996 247.5 c 128,-1,25
 1056 317 1056 317 1092 421.5 c 128,-1,26
 1128 526 1128 526 1128 649 c 0,27,28
 1128 739 1128 739 1109.5 826.5 c 128,-1,29
 1091 914 1091 914 1052 993.5 c 128,-1,30
 1013 1073 1013 1073 958 1133.5 c 128,-1,31
 903 1194 903 1194 824.5 1230 c 128,-1,32
 746 1266 746 1266 655 1266 c 0,33,34
 570 1266 570 1266 493 1230.5 c 128,-1,35
 416 1195 416 1195 355.5 1129 c 128,-1,36
 295 1063 295 1063 259 960 c 128,-1,37
 223 857 223 857 223 731 c 0,19,20
367 1569 m 128,-1,39
 367 1609 367 1609 394 1637 c 128,-1,40
 421 1665 421 1665 461 1665 c 128,-1,41
 501 1665 501 1665 529 1637 c 128,-1,42
 557 1609 557 1609 557 1569 c 128,-1,43
 557 1529 557 1529 529 1502 c 128,-1,44
 501 1475 501 1475 461 1475 c 128,-1,45
 421 1475 421 1475 394 1502 c 128,-1,38
 367 1529 367 1529 367 1569 c 128,-1,39
744 1569 m 128,-1,47
 744 1609 744 1609 771 1637 c 128,-1,48
 798 1665 798 1665 838 1665 c 128,-1,49
 878 1665 878 1665 906 1637 c 128,-1,50
 934 1609 934 1609 934 1569 c 128,-1,51
 934 1529 934 1529 906 1502 c 128,-1,52
 878 1475 878 1475 838 1475 c 128,-1,53
 798 1475 798 1475 771 1502 c 128,-1,46
 744 1529 744 1529 744 1569 c 128,-1,47
EndSplineSet
Validated: 1
EndChar

StartChar: multiply
Encoding: 215 215 152
Width: 817
GlyphClass: 2
Flags: W
LayerCount: 2
Fore
SplineSet
109 326 m 1,0,-1
 332 547 l 1,1,-1
 111 770 l 1,2,-1
 188 848 l 1,3,-1
 410 627 l 1,4,-1
 631 846 l 1,5,-1
 711 326 l 1,6,-1
 631 248 l 1,7,-1
 410 469 l 1,8,-1
 186 246 l 1,9,-1
 109 326 l 1,0,-1
EndSplineSet
Validated: 1
EndChar

StartChar: Oslash
Encoding: 216 216 153
Width: 1388
GlyphClass: 2
Flags: W
LayerCount: 2
Fore
SplineSet
41 676 m 0,0,1
 41 838 41 838 89 972 c 128,-1,2
 137 1106 137 1106 220.5 1194 c 128,-1,3
 304 1282 304 1282 415 1330 c 128,-1,4
 526 1378 526 1378 653 1378 c 0,5,6
 806 1378 806 1378 936 1305 c 1,7,-1
 1016 1454 l 1,8,-1
 1151 1454 l 1,9,-1
 1034 1237 l 1,10,11
 1144 1140 1144 1140 1207 996 c 128,-1,12
 1270 852 1270 852 1270 676 c 0,13,14
 1270 511 1270 511 1220 378 c 128,-1,15
 1170 245 1170 245 1085 160.5 c 128,-1,16
 1000 76 1000 76 889 31 c 128,-1,17
 778 -14 778 -14 653 -14 c 0,18,19
 513 -14 513 -14 393 43 c 1,20,-1
 303 -125 l 1,21,-1
 168 -125 l 1,22,-1
 291 104 l 1,23,24
 173 194 173 194 107 342.5 c 128,-1,25
 41 491 41 491 41 676 c 0,0,1
203 731 m 0,26,27
 203 406 203 406 360 236 c 1,28,-1
 874 1190 l 1,29,30
 767 1266 767 1266 635 1266 c 0,31,32
 550 1266 550 1266 473 1230.5 c 128,-1,33
 396 1195 396 1195 335.5 1129 c 128,-1,34
 275 1063 275 1063 239 960 c 128,-1,35
 203 857 203 857 203 731 c 0,26,27
455 158 m 1,36,37
 554 100 554 100 674 100 c 0,38,39
 759 100 759 100 837.5 139 c 128,-1,40
 916 178 916 178 976 247.5 c 128,-1,41
 1036 317 1036 317 1072 421.5 c 128,-1,42
 1108 526 1108 526 1108 649 c 0,43,44
 1108 775 1108 775 1070.5 895 c 128,-1,45
 1033 1015 1033 1015 963 1104 c 1,46,-1
 455 158 l 1,36,37
EndSplineSet
Validated: 1
EndChar

StartChar: Ugrave
Encoding: 217 217 154
Width: 1220
GlyphClass: 2
Flags: W
LayerCount: 2
Fore
SplineSet
133 602 m 2,0,-1
 133 1366 l 1,1,-1
 379 1366 l 1,2,3
 343 1350 343 1350 315 1313.5 c 128,-1,4
 287 1277 287 1277 287 1239 c 2,5,-1
 287 567 l 2,6,7
 287 455 287 455 304 372 c 128,-1,8
 321 289 321 289 351 237 c 128,-1,9
 381 185 381 185 428 153.5 c 128,-1,10
 475 122 475 122 528 110 c 128,-1,11
 581 98 581 98 651 98 c 0,12,13
 744 98 744 98 819.5 159 c 128,-1,14
 895 220 895 220 937 321.5 c 128,-1,15
 979 423 979 423 979 541 c 2,16,-1
 979 1366 l 1,17,-1
 1092 1366 l 1,18,-1
 1092 549 l 2,19,20
 1092 385 1092 385 1040 258.5 c 128,-1,21
 988 132 988 132 887 60 c 128,-1,22
 786 -12 786 -12 649 -12 c 0,23,24
 505 -12 505 -12 404 28.5 c 128,-1,25
 303 69 303 69 244 150.5 c 128,-1,26
 185 232 185 232 159 342 c 128,-1,27
 133 452 133 452 133 602 c 2,0,-1
310 1731 m 1,28,-1
 482 1731 l 1,29,-1
 756 1457 l 1,30,-1
 645 1459 l 1,31,-1
 310 1731 l 1,28,-1
EndSplineSet
Validated: 1
EndChar

StartChar: Uacute
Encoding: 218 218 155
Width: 1220
GlyphClass: 2
Flags: W
LayerCount: 2
Fore
SplineSet
133 602 m 2,0,-1
 133 1366 l 1,1,-1
 379 1366 l 1,2,3
 343 1350 343 1350 315 1313.5 c 128,-1,4
 287 1277 287 1277 287 1239 c 2,5,-1
 287 567 l 2,6,7
 287 455 287 455 304 372 c 128,-1,8
 321 289 321 289 351 237 c 128,-1,9
 381 185 381 185 428 153.5 c 128,-1,10
 475 122 475 122 528 110 c 128,-1,11
 581 98 581 98 651 98 c 0,12,13
 744 98 744 98 819.5 159 c 128,-1,14
 895 220 895 220 937 321.5 c 128,-1,15
 979 423 979 423 979 541 c 2,16,-1
 979 1366 l 1,17,-1
 1092 1366 l 1,18,-1
 1092 549 l 2,19,20
 1092 385 1092 385 1040 258.5 c 128,-1,21
 988 132 988 132 887 60 c 128,-1,22
 786 -12 786 -12 649 -12 c 0,23,24
 505 -12 505 -12 404 28.5 c 128,-1,25
 303 69 303 69 244 150.5 c 128,-1,26
 185 232 185 232 159 342 c 128,-1,27
 133 452 133 452 133 602 c 2,0,-1
547 1461 m 1,28,-1
 821 1735 l 1,29,-1
 993 1735 l 1,30,-1
 657 1463 l 1,31,-1
 547 1461 l 1,28,-1
EndSplineSet
Validated: 1
EndChar

StartChar: Ucircumflex
Encoding: 219 219 156
Width: 1220
GlyphClass: 2
Flags: W
LayerCount: 2
Fore
SplineSet
133 602 m 2,0,-1
 133 1366 l 1,1,-1
 379 1366 l 1,2,3
 343 1350 343 1350 315 1313.5 c 128,-1,4
 287 1277 287 1277 287 1239 c 2,5,-1
 287 567 l 2,6,7
 287 455 287 455 304 372 c 128,-1,8
 321 289 321 289 351 237 c 128,-1,9
 381 185 381 185 428 153.5 c 128,-1,10
 475 122 475 122 528 110 c 128,-1,11
 581 98 581 98 651 98 c 0,12,13
 744 98 744 98 819.5 159 c 128,-1,14
 895 220 895 220 937 321.5 c 128,-1,15
 979 423 979 423 979 541 c 2,16,-1
 979 1366 l 1,17,-1
 1092 1366 l 1,18,-1
 1092 549 l 2,19,20
 1092 385 1092 385 1040 258.5 c 128,-1,21
 988 132 988 132 887 60 c 128,-1,22
 786 -12 786 -12 649 -12 c 0,23,24
 505 -12 505 -12 404 28.5 c 128,-1,25
 303 69 303 69 244 150.5 c 128,-1,26
 185 232 185 232 159 342 c 128,-1,27
 133 452 133 452 133 602 c 2,0,-1
383 1464 m 1,28,-1
 651 1817 l 1,29,-1
 920 1464 l 1,30,-1
 799 1464 l 1,31,-1
 655 1663 l 1,32,-1
 506 1464 l 1,33,-1
 383 1464 l 1,28,-1
EndSplineSet
Validated: 1
EndChar

StartChar: Udieresis
Encoding: 220 220 157
Width: 1220
GlyphClass: 2
Flags: W
LayerCount: 2
Fore
SplineSet
133 602 m 2,0,-1
 133 1366 l 1,1,-1
 379 1366 l 1,2,3
 343 1350 343 1350 315 1313.5 c 128,-1,4
 287 1277 287 1277 287 1239 c 2,5,-1
 287 567 l 2,6,7
 287 455 287 455 304 372 c 128,-1,8
 321 289 321 289 351 237 c 128,-1,9
 381 185 381 185 428 153.5 c 128,-1,10
 475 122 475 122 528 110 c 128,-1,11
 581 98 581 98 651 98 c 0,12,13
 744 98 744 98 819.5 159 c 128,-1,14
 895 220 895 220 937 321.5 c 128,-1,15
 979 423 979 423 979 541 c 2,16,-1
 979 1366 l 1,17,-1
 1092 1366 l 1,18,-1
 1092 549 l 2,19,20
 1092 385 1092 385 1040 258.5 c 128,-1,21
 988 132 988 132 887 60 c 128,-1,22
 786 -12 786 -12 649 -12 c 0,23,24
 505 -12 505 -12 404 28.5 c 128,-1,25
 303 69 303 69 244 150.5 c 128,-1,26
 185 232 185 232 159 342 c 128,-1,27
 133 452 133 452 133 602 c 2,0,-1
340 1536 m 128,-1,29
 340 1576 340 1576 367 1604 c 128,-1,30
 394 1632 394 1632 434 1632 c 128,-1,31
 474 1632 474 1632 502 1604 c 128,-1,32
 530 1576 530 1576 530 1536 c 128,-1,33
 530 1496 530 1496 502 1469 c 128,-1,34
 474 1442 474 1442 434 1442 c 128,-1,35
 394 1442 394 1442 367 1469 c 128,-1,28
 340 1496 340 1496 340 1536 c 128,-1,29
717 1536 m 128,-1,37
 717 1576 717 1576 744 1604 c 128,-1,38
 771 1632 771 1632 811 1632 c 128,-1,39
 851 1632 851 1632 879 1604 c 128,-1,40
 907 1576 907 1576 907 1536 c 128,-1,41
 907 1496 907 1496 879 1469 c 128,-1,42
 851 1442 851 1442 811 1442 c 128,-1,43
 771 1442 771 1442 744 1469 c 128,-1,36
 717 1496 717 1496 717 1536 c 128,-1,37
EndSplineSet
Validated: 1
EndChar

StartChar: Yacute
Encoding: 221 221 158
Width: 1142
GlyphClass: 2
Flags: W
LayerCount: 2
Fore
SplineSet
23 1366 m 1,0,-1
 285 1366 l 1,1,2
 229 1317 229 1317 295 1214 c 2,3,-1
 596 715 l 1,4,-1
 981 1366 l 1,5,-1
 1112 1366 l 1,6,-1
 647 580 l 1,7,-1
 647 0 l 1,8,-1
 494 0 l 1,9,-1
 494 578 l 1,10,-1
 23 1366 l 1,0,-1
519 1430 m 1,11,-1
 793 1704 l 1,12,-1
 965 1704 l 1,13,-1
 629 1432 l 1,14,-1
 519 1430 l 1,11,-1
EndSplineSet
Validated: 33
EndChar

StartChar: Thorn
Encoding: 222 222 159
Width: 1085
GlyphClass: 2
Flags: W
LayerCount: 2
Fore
SplineSet
43 0 m 1,0,1
 87 30 87 30 110 61.5 c 128,-1,2
 133 93 133 93 133 143 c 2,3,-1
 133 1366 l 1,4,-1
 287 1366 l 1,5,-1
 287 1100 l 1,6,-1
 557 1100 l 2,7,8
 758 1100 758 1100 872.5 986.5 c 128,-1,9
 987 873 987 873 987 707 c 0,10,11
 987 604 987 604 950.5 524.5 c 128,-1,12
 914 445 914 445 851 397.5 c 128,-1,13
 788 350 788 350 711 326.5 c 128,-1,14
 634 303 634 303 547 303 c 2,15,-1
 287 303 l 1,16,-1
 287 0 l 1,17,-1
 43 0 l 1,0,1
287 416 m 1,18,-1
 514 416 l 2,19,20
 569 416 569 416 621.5 432.5 c 128,-1,21
 674 449 674 449 720 481 c 128,-1,22
 766 513 766 513 794.5 569.5 c 128,-1,23
 823 626 823 626 823 698 c 0,24,25
 823 822 823 822 742.5 904.5 c 128,-1,26
 662 987 662 987 528 987 c 2,27,-1
 287 987 l 1,28,-1
 287 416 l 1,18,-1
EndSplineSet
Validated: 1
EndChar

StartChar: germandbls
Encoding: 223 223 160
Width: 962
GlyphClass: 2
Flags: W
LayerCount: 2
Fore
SplineSet
129 1157 m 2,0,1
 129 1238 129 1238 156.5 1302 c 128,-1,2
 184 1366 184 1366 230.5 1405 c 128,-1,3
 277 1444 277 1444 334.5 1464.5 c 128,-1,4
 392 1485 392 1485 455 1485 c 0,5,6
 504 1485 504 1485 554.5 1463.5 c 128,-1,7
 605 1442 605 1442 648 1403.5 c 128,-1,8
 691 1365 691 1365 718 1303.5 c 128,-1,9
 745 1242 745 1242 745 1169 c 0,10,11
 745 1115 745 1115 724.5 1060.5 c 128,-1,12
 704 1006 704 1006 675 965 c 128,-1,13
 646 924 646 924 606.5 884.5 c 128,-1,14
 567 845 567 845 536.5 821 c 128,-1,15
 506 797 506 797 475 776 c 1,16,17
 659 776 659 776 773 669.5 c 128,-1,18
 887 563 887 563 887 375 c 0,19,20
 887 287 887 287 855 212.5 c 128,-1,21
 823 138 823 138 771 90.5 c 128,-1,22
 719 43 719 43 656 16.5 c 128,-1,23
 593 -10 593 -10 528 -10 c 0,24,25
 485 -10 485 -10 434.5 2.5 c 128,-1,26
 384 15 384 15 362 35 c 1,27,-1
 338 182 l 1,28,29
 463 111 463 111 524 111 c 0,30,31
 553 111 553 111 588.5 127.5 c 128,-1,32
 624 144 624 144 659 173.5 c 128,-1,33
 694 203 694 203 717.5 253 c 128,-1,34
 741 303 741 303 741 362 c 0,35,36
 741 442 741 442 710 503.5 c 128,-1,37
 679 565 679 565 624.5 603.5 c 128,-1,38
 570 642 570 642 500.5 663 c 128,-1,39
 431 684 431 684 348 688 c 1,40,-1
 309 788 l 1,41,42
 352 818 352 818 383.5 842 c 128,-1,43
 415 866 415 866 461 907.5 c 128,-1,44
 507 949 507 949 536 986.5 c 128,-1,45
 565 1024 565 1024 586.5 1072.5 c 128,-1,46
 608 1121 608 1121 608 1167 c 0,47,48
 608 1259 608 1259 566 1311.5 c 128,-1,49
 524 1364 524 1364 459 1364 c 0,50,51
 367 1364 367 1364 321.5 1299.5 c 128,-1,52
 276 1235 276 1235 276 1133 c 2,53,-1
 276 0 l 1,54,-1
 131 0 l 1,55,-1
 129 1157 l 2,0,1
EndSplineSet
Validated: 1
EndChar

StartChar: agrave
Encoding: 224 224 161
Width: 1040
GlyphClass: 2
Flags: W
LayerCount: 2
Fore
SplineSet
94 266 m 0,0,1
 94 402 94 402 198 492.5 c 128,-1,2
 302 583 302 583 479 623 c 2,3,-1
 700 674 l 1,4,5
 703 767 703 767 653.5 819.5 c 128,-1,6
 604 872 604 872 514 872 c 0,7,8
 427 872 427 872 335 830 c 128,-1,9
 243 788 243 788 166 717 c 1,10,11
 162 777 162 777 180 840 c 1,12,13
 224 890 224 890 329 937.5 c 128,-1,14
 434 985 434 985 516 985 c 0,15,16
 848 985 848 985 848 682 c 2,17,-1
 848 164 l 2,18,19
 848 125 848 125 877 72.5 c 128,-1,20
 906 20 906 20 938 0 c 1,21,-1
 694 0 l 1,22,-1
 694 96 l 1,23,24
 540 -12 540 -12 385 -12 c 0,25,26
 253 -10 253 -10 173.5 64 c 128,-1,27
 94 138 94 138 94 266 c 0,0,1
215 1366 m 1,28,-1
 387 1366 l 1,29,-1
 662 1092 l 1,30,-1
 551 1094 l 1,31,-1
 215 1366 l 1,28,-1
248 270 m 0,32,33
 248 202 248 202 294 148 c 128,-1,34
 340 94 340 94 422 102 c 0,35,36
 485 108 485 108 564 137 c 128,-1,37
 643 166 643 166 694 205 c 1,38,-1
 694 557 l 1,39,-1
 535 520 l 2,40,41
 248 456 248 456 248 270 c 0,32,33
EndSplineSet
Validated: 33
EndChar

StartChar: aacute
Encoding: 225 225 162
Width: 1040
GlyphClass: 2
Flags: W
LayerCount: 2
Fore
SplineSet
94 266 m 0,0,1
 94 402 94 402 198 492.5 c 128,-1,2
 302 583 302 583 479 623 c 2,3,-1
 700 674 l 1,4,5
 703 767 703 767 653.5 819.5 c 128,-1,6
 604 872 604 872 514 872 c 0,7,8
 427 872 427 872 335 830 c 128,-1,9
 243 788 243 788 166 717 c 1,10,11
 162 777 162 777 180 840 c 1,12,13
 224 890 224 890 329 937.5 c 128,-1,14
 434 985 434 985 516 985 c 0,15,16
 848 985 848 985 848 682 c 2,17,-1
 848 164 l 2,18,19
 848 125 848 125 877 72.5 c 128,-1,20
 906 20 906 20 938 0 c 1,21,-1
 694 0 l 1,22,-1
 694 96 l 1,23,24
 540 -12 540 -12 385 -12 c 0,25,26
 253 -10 253 -10 173.5 64 c 128,-1,27
 94 138 94 138 94 266 c 0,0,1
248 270 m 0,28,29
 248 202 248 202 294 148 c 128,-1,30
 340 94 340 94 422 102 c 0,31,32
 485 108 485 108 564 137 c 128,-1,33
 643 166 643 166 694 205 c 1,34,-1
 694 557 l 1,35,-1
 535 520 l 2,36,37
 248 456 248 456 248 270 c 0,28,29
338 1092 m 1,38,-1
 612 1366 l 1,39,-1
 784 1366 l 1,40,-1
 448 1094 l 1,41,-1
 338 1092 l 1,38,-1
EndSplineSet
Validated: 33
EndChar

StartChar: acircumflex
Encoding: 226 226 163
Width: 1040
GlyphClass: 2
Flags: W
LayerCount: 2
Fore
SplineSet
94 266 m 0,0,1
 94 402 94 402 198 492.5 c 128,-1,2
 302 583 302 583 479 623 c 2,3,-1
 700 674 l 1,4,5
 703 767 703 767 653.5 819.5 c 128,-1,6
 604 872 604 872 514 872 c 0,7,8
 427 872 427 872 335 830 c 128,-1,9
 243 788 243 788 166 717 c 1,10,11
 162 777 162 777 180 840 c 1,12,13
 224 890 224 890 329 937.5 c 128,-1,14
 434 985 434 985 516 985 c 0,15,16
 848 985 848 985 848 682 c 2,17,-1
 848 164 l 2,18,19
 848 125 848 125 877 72.5 c 128,-1,20
 906 20 906 20 938 0 c 1,21,-1
 694 0 l 1,22,-1
 694 96 l 1,23,24
 540 -12 540 -12 385 -12 c 0,25,26
 253 -10 253 -10 173.5 64 c 128,-1,27
 94 138 94 138 94 266 c 0,0,1
231 1122 m 1,28,-1
 499 1475 l 1,29,-1
 768 1122 l 1,30,-1
 647 1122 l 1,31,-1
 504 1321 l 1,32,-1
 354 1122 l 1,33,-1
 231 1122 l 1,28,-1
248 270 m 0,34,35
 248 202 248 202 294 148 c 128,-1,36
 340 94 340 94 422 102 c 0,37,38
 485 108 485 108 564 137 c 128,-1,39
 643 166 643 166 694 205 c 1,40,-1
 694 557 l 1,41,-1
 535 520 l 2,42,43
 248 456 248 456 248 270 c 0,34,35
EndSplineSet
Validated: 33
EndChar

StartChar: atilde
Encoding: 227 227 164
Width: 1040
GlyphClass: 2
Flags: W
LayerCount: 2
Fore
SplineSet
94 266 m 0,0,1
 94 402 94 402 198 492.5 c 128,-1,2
 302 583 302 583 479 623 c 2,3,-1
 700 674 l 1,4,5
 703 767 703 767 653.5 819.5 c 128,-1,6
 604 872 604 872 514 872 c 0,7,8
 427 872 427 872 335 830 c 128,-1,9
 243 788 243 788 166 717 c 1,10,11
 162 777 162 777 180 840 c 1,12,13
 224 890 224 890 329 937.5 c 128,-1,14
 434 985 434 985 516 985 c 0,15,16
 848 985 848 985 848 682 c 2,17,-1
 848 164 l 2,18,19
 848 125 848 125 877 72.5 c 128,-1,20
 906 20 906 20 938 0 c 1,21,-1
 694 0 l 1,22,-1
 694 96 l 1,23,24
 540 -12 540 -12 385 -12 c 0,25,26
 253 -10 253 -10 173.5 64 c 128,-1,27
 94 138 94 138 94 266 c 0,0,1
168 1145 m 0,28,29
 173 1230 173 1230 218.5 1306 c 128,-1,30
 264 1382 264 1382 334 1382 c 0,31,32
 378 1382 378 1382 425 1361 c 128,-1,33
 472 1340 472 1340 505 1314.5 c 128,-1,34
 538 1289 538 1289 575.5 1268 c 128,-1,35
 613 1247 613 1247 639 1247 c 0,36,37
 667 1247 667 1247 693.5 1283.5 c 128,-1,38
 720 1320 720 1320 729 1372 c 1,39,-1
 789 1354 l 1,40,41
 786 1304 786 1304 767.5 1255 c 128,-1,42
 749 1206 749 1206 709.5 1168 c 128,-1,43
 670 1130 670 1130 619 1130 c 0,44,45
 574 1130 574 1130 516 1162 c 128,-1,46
 458 1194 458 1194 409 1225.5 c 128,-1,47
 360 1257 360 1257 338 1257 c 0,48,49
 296 1257 296 1257 265 1221.5 c 128,-1,50
 234 1186 234 1186 230 1122 c 1,51,52
 224 1127 224 1127 197 1135.5 c 128,-1,53
 170 1144 170 1144 168 1145 c 0,28,29
248 270 m 0,54,55
 248 202 248 202 294 148 c 128,-1,56
 340 94 340 94 422 102 c 0,57,58
 485 108 485 108 564 137 c 128,-1,59
 643 166 643 166 694 205 c 1,60,-1
 694 557 l 1,61,-1
 535 520 l 2,62,63
 248 456 248 456 248 270 c 0,54,55
EndSplineSet
Validated: 33
EndChar

StartChar: adieresis
Encoding: 228 228 165
Width: 1040
GlyphClass: 2
Flags: W
LayerCount: 2
Fore
SplineSet
94 266 m 0,0,1
 94 402 94 402 198 492.5 c 128,-1,2
 302 583 302 583 479 623 c 2,3,-1
 700 674 l 1,4,5
 703 767 703 767 653.5 819.5 c 128,-1,6
 604 872 604 872 514 872 c 0,7,8
 427 872 427 872 335 830 c 128,-1,9
 243 788 243 788 166 717 c 1,10,11
 162 777 162 777 180 840 c 1,12,13
 224 890 224 890 329 937.5 c 128,-1,14
 434 985 434 985 516 985 c 0,15,16
 848 985 848 985 848 682 c 2,17,-1
 848 164 l 2,18,19
 848 125 848 125 877 72.5 c 128,-1,20
 906 20 906 20 938 0 c 1,21,-1
 694 0 l 1,22,-1
 694 96 l 1,23,24
 540 -12 540 -12 385 -12 c 0,25,26
 253 -10 253 -10 173.5 64 c 128,-1,27
 94 138 94 138 94 266 c 0,0,1
236 1278 m 128,-1,29
 236 1318 236 1318 263 1346 c 128,-1,30
 290 1374 290 1374 330 1374 c 128,-1,31
 370 1374 370 1374 398 1346 c 128,-1,32
 426 1318 426 1318 426 1278 c 128,-1,33
 426 1238 426 1238 398 1211 c 128,-1,34
 370 1184 370 1184 330 1184 c 128,-1,35
 290 1184 290 1184 263 1211 c 128,-1,28
 236 1238 236 1238 236 1278 c 128,-1,29
248 270 m 0,36,37
 248 202 248 202 294 148 c 128,-1,38
 340 94 340 94 422 102 c 0,39,40
 485 108 485 108 564 137 c 128,-1,41
 643 166 643 166 694 205 c 1,42,-1
 694 557 l 1,43,-1
 535 520 l 2,44,45
 248 456 248 456 248 270 c 0,36,37
612 1278 m 128,-1,47
 612 1318 612 1318 639.5 1346 c 128,-1,48
 667 1374 667 1374 707 1374 c 128,-1,49
 747 1374 747 1374 775 1346 c 128,-1,50
 803 1318 803 1318 803 1278 c 128,-1,51
 803 1238 803 1238 775 1211 c 128,-1,52
 747 1184 747 1184 707 1184 c 128,-1,53
 667 1184 667 1184 639.5 1211 c 128,-1,46
 612 1238 612 1238 612 1278 c 128,-1,47
EndSplineSet
Validated: 33
EndChar

StartChar: aring
Encoding: 229 229 166
Width: 1040
GlyphClass: 2
Flags: W
LayerCount: 2
Fore
SplineSet
94 266 m 0,0,1
 94 402 94 402 198 492.5 c 128,-1,2
 302 583 302 583 479 623 c 2,3,-1
 700 674 l 1,4,5
 703 767 703 767 653.5 819.5 c 128,-1,6
 604 872 604 872 514 872 c 0,7,8
 427 872 427 872 335 830 c 128,-1,9
 243 788 243 788 166 717 c 1,10,11
 162 777 162 777 180 840 c 1,12,13
 224 890 224 890 329 937.5 c 128,-1,14
 434 985 434 985 516 985 c 0,15,16
 848 985 848 985 848 682 c 2,17,-1
 848 164 l 2,18,19
 848 125 848 125 877 72.5 c 128,-1,20
 906 20 906 20 938 0 c 1,21,-1
 694 0 l 1,22,-1
 694 96 l 1,23,24
 540 -12 540 -12 385 -12 c 0,25,26
 253 -10 253 -10 173.5 64 c 128,-1,27
 94 138 94 138 94 266 c 0,0,1
248 270 m 0,28,29
 248 202 248 202 294 148 c 128,-1,30
 340 94 340 94 422 102 c 0,31,32
 485 108 485 108 564 137 c 128,-1,33
 643 166 643 166 694 205 c 1,34,-1
 694 557 l 1,35,-1
 535 520 l 2,36,37
 248 456 248 456 248 270 c 0,28,29
305 1288 m 0,38,39
 305 1364 305 1364 357 1416 c 128,-1,40
 409 1468 409 1468 500 1468 c 0,41,42
 587 1468 587 1468 640.5 1415.5 c 128,-1,43
 694 1363 694 1363 694 1288 c 0,44,45
 694 1210 694 1210 642.5 1158 c 128,-1,46
 591 1106 591 1106 500 1106 c 0,47,48
 412 1106 412 1106 358.5 1158.5 c 128,-1,49
 305 1211 305 1211 305 1288 c 0,38,39
401 1290 m 0,50,51
 401 1247 401 1247 429 1219.5 c 128,-1,52
 457 1192 457 1192 500 1192 c 0,53,54
 542 1192 542 1192 570 1220 c 128,-1,55
 598 1248 598 1248 598 1290 c 0,56,57
 598 1329 598 1329 569.5 1356.5 c 128,-1,58
 541 1384 541 1384 500 1384 c 0,59,60
 458 1384 458 1384 429.5 1356.5 c 128,-1,61
 401 1329 401 1329 401 1290 c 0,50,51
EndSplineSet
Validated: 33
EndChar

StartChar: ae
Encoding: 230 230 167
Width: 1566
GlyphClass: 2
Flags: W
LayerCount: 2
Fore
SplineSet
88 274 m 0,0,1
 88 399 88 399 194.5 490.5 c 128,-1,2
 301 582 301 582 475 629 c 2,3,-1
 686 686 l 1,4,5
 693 754 693 754 640 805 c 128,-1,6
 587 856 587 856 512 856 c 0,7,8
 330 856 330 856 201 745 c 1,9,-1
 203 745 l 1,10,11
 193 737 193 737 169 742 c 128,-1,12
 145 747 145 747 139 760 c 0,13,14
 115 795 115 795 150 827 c 0,15,16
 220 897 220 897 321.5 941 c 128,-1,17
 423 985 423 985 510 985 c 0,18,19
 729 985 729 985 791 840 c 1,20,21
 904 985 904 985 1094 985 c 0,22,23
 1249 985 1249 985 1350.5 871.5 c 128,-1,24
 1452 758 1452 758 1468 592 c 1,25,-1
 836 342 l 1,26,27
 864 242 864 242 947 185.5 c 128,-1,28
 1030 129 1030 129 1126 129 c 0,29,30
 1193 129 1193 129 1261.5 153.5 c 128,-1,31
 1330 178 1330 178 1374 205 c 1,32,-1
 1417 133 l 1,33,34
 1343 67 1343 67 1270.5 28.5 c 128,-1,35
 1198 -10 1198 -10 1102 -10 c 0,36,37
 861 -10 861 -10 750 180 c 1,38,-1
 631 98 l 2,39,40
 491 3 491 3 375 -10 c 1,41,42
 244 -8 244 -8 166 68.5 c 128,-1,43
 88 145 88 145 88 274 c 0,0,1
236 287 m 0,44,45
 236 221 236 221 282 176 c 128,-1,46
 328 131 328 131 412 139 c 0,47,48
 468 145 468 145 562.5 192.5 c 128,-1,49
 657 240 657 240 707 283 c 1,50,51
 665 436 665 436 678 578 c 1,52,-1
 588 553 l 2,53,54
 530 537 530 537 471.5 512 c 128,-1,55
 413 487 413 487 358.5 453.5 c 128,-1,56
 304 420 304 420 270 376 c 128,-1,57
 236 332 236 332 236 287 c 0,44,45
813 459 m 1,58,-1
 1309 647 l 1,59,60
 1289 748 1289 748 1225 803 c 128,-1,61
 1161 858 1161 858 1073 858 c 0,62,63
 987 858 987 858 922.5 792 c 128,-1,64
 858 726 858 726 831.5 635.5 c 128,-1,65
 805 545 805 545 813 459 c 1,58,-1
EndSplineSet
Validated: 33
EndChar

StartChar: ccedilla
Encoding: 231 231 168
Width: 989
GlyphClass: 2
Flags: W
LayerCount: 2
Fore
SplineSet
90 498 m 0,0,1
 90 651 90 651 153.5 763.5 c 128,-1,2
 217 876 217 876 319.5 930.5 c 128,-1,3
 422 985 422 985 547 985 c 0,4,5
 660 985 660 985 746.5 955 c 128,-1,6
 833 925 833 925 881 889 c 1,7,-1
 881 698 l 1,8,9
 837 771 837 771 743 822.5 c 128,-1,10
 649 874 649 874 547 874 c 0,11,12
 416 874 416 874 333 768.5 c 128,-1,13
 250 663 250 663 250 508 c 0,14,15
 250 321 250 321 330.5 210.5 c 128,-1,16
 411 100 411 100 555 100 c 0,17,18
 645 100 645 100 736 136.5 c 128,-1,19
 827 173 827 173 887 213 c 1,20,21
 866 111 866 111 854 86 c 1,22,23
 801 48 801 48 713 19 c 128,-1,24
 625 -10 625 -10 539 -10 c 0,25,26
 335 -10 335 -10 212.5 118 c 128,-1,27
 90 246 90 246 90 498 c 0,0,1
348 -283 m 1,28,-1
 379 -236 l 1,29,30
 449 -256 449 -256 496 -256 c 0,31,32
 594 -256 594 -256 594 -186 c 0,33,34
 594 -159 594 -159 571 -144 c 128,-1,35
 548 -129 548 -129 514 -129 c 0,36,37
 495 -129 495 -129 461.5 -135.5 c 128,-1,38
 428 -142 428 -142 404 -149 c 2,39,-1
 381 -156 l 1,40,-1
 358 -119 l 1,41,-1
 473 25 l 1,42,-1
 504 12 l 1,43,-1
 434 -86 l 1,44,45
 489 -61 489 -61 526 -61 c 0,46,47
 707 -61 707 -61 707 -184 c 0,48,49
 707 -225 707 -225 688 -255.5 c 128,-1,50
 669 -286 669 -286 637.5 -301 c 128,-1,51
 606 -316 606 -316 574.5 -323 c 128,-1,52
 543 -330 543 -330 510 -330 c 0,53,54
 478 -330 478 -330 437.5 -318 c 128,-1,55
 397 -306 397 -306 372 -294 c 2,56,-1
 348 -283 l 1,28,-1
EndSplineSet
Validated: 5
EndChar

StartChar: egrave
Encoding: 232 232 169
Width: 1062
GlyphClass: 2
Flags: W
LayerCount: 2
Fore
SplineSet
92 496 m 0,0,1
 92 713 92 713 216 849 c 128,-1,2
 340 985 340 985 526 985 c 0,3,4
 724 985 724 985 847.5 862.5 c 128,-1,5
 971 740 971 740 971 520 c 2,6,-1
 971 449 l 1,7,-1
 252 449 l 1,8,9
 266 283 266 283 345.5 191.5 c 128,-1,10
 425 100 425 100 563 100 c 0,11,12
 649 100 649 100 748.5 146 c 128,-1,13
 848 192 848 192 905 236 c 1,14,-1
 928 150 l 1,15,16
 753 -10 753 -10 543 -10 c 0,17,18
 338 -10 338 -10 215 125 c 128,-1,19
 92 260 92 260 92 496 c 0,0,1
254 561 m 1,20,-1
 809 561 l 1,21,22
 803 704 803 704 729 788 c 128,-1,23
 655 872 655 872 528 872 c 0,24,25
 415 872 415 872 342 780 c 128,-1,26
 269 688 269 688 254 561 c 1,20,-1
268 1366 m 1,27,-1
 440 1366 l 1,28,-1
 715 1092 l 1,29,-1
 604 1094 l 1,30,-1
 268 1366 l 1,27,-1
EndSplineSet
Validated: 1
EndChar

StartChar: eacute
Encoding: 233 233 170
Width: 1062
GlyphClass: 2
Flags: W
LayerCount: 2
Fore
SplineSet
92 496 m 0,0,1
 92 713 92 713 216 849 c 128,-1,2
 340 985 340 985 526 985 c 0,3,4
 724 985 724 985 847.5 862.5 c 128,-1,5
 971 740 971 740 971 520 c 2,6,-1
 971 449 l 1,7,-1
 252 449 l 1,8,9
 266 283 266 283 345.5 191.5 c 128,-1,10
 425 100 425 100 563 100 c 0,11,12
 649 100 649 100 748.5 146 c 128,-1,13
 848 192 848 192 905 236 c 1,14,-1
 928 150 l 1,15,16
 753 -10 753 -10 543 -10 c 0,17,18
 338 -10 338 -10 215 125 c 128,-1,19
 92 260 92 260 92 496 c 0,0,1
254 561 m 1,20,-1
 809 561 l 1,21,22
 803 704 803 704 729 788 c 128,-1,23
 655 872 655 872 528 872 c 0,24,25
 415 872 415 872 342 780 c 128,-1,26
 269 688 269 688 254 561 c 1,20,-1
351 1092 m 1,27,-1
 625 1366 l 1,28,-1
 797 1366 l 1,29,-1
 461 1094 l 1,30,-1
 351 1092 l 1,27,-1
EndSplineSet
Validated: 1
EndChar

StartChar: ecircumflex
Encoding: 234 234 171
Width: 1062
GlyphClass: 2
Flags: W
LayerCount: 2
Fore
SplineSet
92 496 m 0,0,1
 92 713 92 713 216 849 c 128,-1,2
 340 985 340 985 526 985 c 0,3,4
 724 985 724 985 847.5 862.5 c 128,-1,5
 971 740 971 740 971 520 c 2,6,-1
 971 449 l 1,7,-1
 252 449 l 1,8,9
 266 283 266 283 345.5 191.5 c 128,-1,10
 425 100 425 100 563 100 c 0,11,12
 649 100 649 100 748.5 146 c 128,-1,13
 848 192 848 192 905 236 c 1,14,-1
 928 150 l 1,15,16
 753 -10 753 -10 543 -10 c 0,17,18
 338 -10 338 -10 215 125 c 128,-1,19
 92 260 92 260 92 496 c 0,0,1
254 561 m 1,20,-1
 809 561 l 1,21,22
 803 704 803 704 729 788 c 128,-1,23
 655 872 655 872 528 872 c 0,24,25
 415 872 415 872 342 780 c 128,-1,26
 269 688 269 688 254 561 c 1,20,-1
262 1081 m 1,27,-1
 530 1434 l 1,28,-1
 799 1081 l 1,29,-1
 678 1081 l 1,30,-1
 535 1280 l 1,31,-1
 385 1081 l 1,32,-1
 262 1081 l 1,27,-1
EndSplineSet
Validated: 1
EndChar

StartChar: edieresis
Encoding: 235 235 172
Width: 1062
GlyphClass: 2
Flags: W
LayerCount: 2
Fore
SplineSet
92 496 m 0,0,1
 92 713 92 713 216 849 c 128,-1,2
 340 985 340 985 526 985 c 0,3,4
 724 985 724 985 847.5 862.5 c 128,-1,5
 971 740 971 740 971 520 c 2,6,-1
 971 449 l 1,7,-1
 252 449 l 1,8,9
 266 283 266 283 345.5 191.5 c 128,-1,10
 425 100 425 100 563 100 c 0,11,12
 649 100 649 100 748.5 146 c 128,-1,13
 848 192 848 192 905 236 c 1,14,-1
 928 150 l 1,15,16
 753 -10 753 -10 543 -10 c 0,17,18
 338 -10 338 -10 215 125 c 128,-1,19
 92 260 92 260 92 496 c 0,0,1
248 1278 m 128,-1,21
 248 1318 248 1318 275 1346 c 128,-1,22
 302 1374 302 1374 342 1374 c 128,-1,23
 382 1374 382 1374 410 1346 c 128,-1,24
 438 1318 438 1318 438 1278 c 128,-1,25
 438 1238 438 1238 410 1211 c 128,-1,26
 382 1184 382 1184 342 1184 c 128,-1,27
 302 1184 302 1184 275 1211 c 128,-1,20
 248 1238 248 1238 248 1278 c 128,-1,21
254 561 m 1,28,-1
 809 561 l 1,29,30
 803 704 803 704 729 788 c 128,-1,31
 655 872 655 872 528 872 c 0,32,33
 415 872 415 872 342 780 c 128,-1,34
 269 688 269 688 254 561 c 1,28,-1
625 1278 m 128,-1,36
 625 1318 625 1318 652 1346 c 128,-1,37
 679 1374 679 1374 719 1374 c 128,-1,38
 759 1374 759 1374 787 1346 c 128,-1,39
 815 1318 815 1318 815 1278 c 128,-1,40
 815 1238 815 1238 787 1211 c 128,-1,41
 759 1184 759 1184 719 1184 c 128,-1,42
 679 1184 679 1184 652 1211 c 128,-1,35
 625 1238 625 1238 625 1278 c 128,-1,36
EndSplineSet
Validated: 1
EndChar

StartChar: igrave
Encoding: 236 236 173
Width: 520
GlyphClass: 2
Flags: W
LayerCount: 2
Fore
SplineSet
-86 1366 m 1,0,-1
 86 1366 l 1,1,-1
 360 1092 l 1,2,-1
 250 1094 l 1,3,-1
 -86 1366 l 1,0,-1
174 0 m 1,4,-1
 174 932 l 1,5,-1
 391 1014 l 1,6,7
 368 977 368 977 348 919.5 c 128,-1,8
 328 862 328 862 328 827 c 2,9,-1
 328 0 l 1,10,-1
 174 0 l 1,4,-1
EndSplineSet
Validated: 1
EndChar

StartChar: iacute
Encoding: 237 237 174
Width: 520
GlyphClass: 2
Flags: W
LayerCount: 2
Fore
SplineSet
140 1092 m 1,0,-1
 414 1366 l 1,1,-1
 586 1366 l 1,2,-1
 250 1094 l 1,3,-1
 140 1092 l 1,0,-1
174 0 m 1,4,-1
 174 932 l 1,5,-1
 391 1014 l 1,6,7
 368 977 368 977 348 919.5 c 128,-1,8
 328 862 328 862 328 827 c 2,9,-1
 328 0 l 1,10,-1
 174 0 l 1,4,-1
EndSplineSet
Validated: 1
EndChar

StartChar: icircumflex
Encoding: 238 238 175
Width: 520
GlyphClass: 2
Flags: W
LayerCount: 2
Fore
SplineSet
0 1083 m 1,0,-1
 268 1436 l 1,1,-1
 537 1083 l 1,2,-1
 416 1083 l 1,3,-1
 273 1282 l 1,4,-1
 123 1083 l 1,5,-1
 0 1083 l 1,0,-1
174 0 m 1,6,-1
 174 932 l 1,7,-1
 391 1014 l 1,8,9
 368 977 368 977 348 919.5 c 128,-1,10
 328 862 328 862 328 827 c 2,11,-1
 328 0 l 1,12,-1
 174 0 l 1,6,-1
EndSplineSet
Validated: 1
EndChar

StartChar: idieresis
Encoding: 239 239 176
Width: 520
GlyphClass: 2
Flags: W
LayerCount: 2
Fore
SplineSet
-14 1288 m 128,-1,1
 -14 1328 -14 1328 13 1356 c 128,-1,2
 40 1384 40 1384 80 1384 c 128,-1,3
 120 1384 120 1384 148 1356 c 128,-1,4
 176 1328 176 1328 176 1288 c 128,-1,5
 176 1248 176 1248 148 1221 c 128,-1,6
 120 1194 120 1194 80 1194 c 128,-1,7
 40 1194 40 1194 13 1221 c 128,-1,0
 -14 1248 -14 1248 -14 1288 c 128,-1,1
174 0 m 1,8,-1
 174 932 l 1,9,-1
 391 1014 l 1,10,11
 368 977 368 977 348 919.5 c 128,-1,12
 328 862 328 862 328 827 c 2,13,-1
 328 0 l 1,14,-1
 174 0 l 1,8,-1
362 1288 m 128,-1,16
 362 1328 362 1328 389.5 1356 c 128,-1,17
 417 1384 417 1384 457 1384 c 128,-1,18
 497 1384 497 1384 525 1356 c 128,-1,19
 553 1328 553 1328 553 1288 c 128,-1,20
 553 1248 553 1248 525 1221 c 128,-1,21
 497 1194 497 1194 457 1194 c 128,-1,22
 417 1194 417 1194 389.5 1221 c 128,-1,15
 362 1248 362 1248 362 1288 c 128,-1,16
EndSplineSet
Validated: 1
EndChar

StartChar: eth
Encoding: 240 240 177
Width: 1067
GlyphClass: 2
Flags: W
LayerCount: 2
Fore
SplineSet
88 481 m 0,0,1
 88 714 88 714 209.5 849.5 c 128,-1,2
 331 985 331 985 520 985 c 0,3,4
 676 985 676 985 780 895 c 1,5,6
 733 1050 733 1050 629 1157 c 1,7,-1
 465 1024 l 1,8,-1
 391 1116 l 1,9,-1
 530 1229 l 1,10,11
 452 1272 452 1272 367 1272 c 2,12,-1
 272 1272 l 1,13,-1
 301 1380 l 1,14,15
 515 1380 515 1380 633 1313 c 1,16,-1
 784 1436 l 1,17,-1
 860 1343 l 1,18,-1
 729 1239 l 1,19,20
 764 1204 764 1204 788 1174 c 0,21,22
 850 1097 850 1097 890.5 969.5 c 128,-1,23
 931 842 931 842 946 721.5 c 128,-1,24
 961 601 961 601 961 481 c 0,25,26
 961 258 961 258 838 124 c 128,-1,27
 715 -10 715 -10 530 -10 c 0,28,29
 333 -10 333 -10 210.5 124.5 c 128,-1,30
 88 259 88 259 88 481 c 0,0,1
244 514 m 0,31,32
 244 333 244 333 335 224 c 128,-1,33
 426 115 426 115 557 115 c 0,34,35
 602 115 602 115 646 135.5 c 128,-1,36
 690 156 690 156 728 196.5 c 128,-1,37
 766 237 766 237 789.5 307 c 128,-1,38
 813 377 813 377 813 467 c 0,39,40
 813 580 813 580 780 668 c 128,-1,41
 747 756 747 756 676 811 c 128,-1,42
 605 866 605 866 504 866 c 0,43,44
 454 866 454 866 410 847.5 c 128,-1,45
 366 829 366 829 327.5 790.5 c 128,-1,46
 289 752 289 752 266.5 680.5 c 128,-1,47
 244 609 244 609 244 514 c 0,31,32
EndSplineSet
Validated: 1
EndChar

StartChar: ntilde
Encoding: 241 241 178
Width: 1032
GlyphClass: 2
Flags: W
LayerCount: 2
Fore
SplineSet
27 874 m 1,0,-1
 287 995 l 1,1,-1
 287 915 l 1,2,3
 441 985 441 985 582 985 c 0,4,5
 730 985 730 985 808.5 908 c 128,-1,6
 887 831 887 831 887 711 c 2,7,-1
 887 0 l 1,8,-1
 733 0 l 1,9,-1
 733 692 l 2,10,11
 733 732 733 732 718 771.5 c 128,-1,12
 703 811 703 811 666 841.5 c 128,-1,13
 629 872 629 872 578 872 c 0,14,15
 459 872 459 872 287 795 c 1,16,-1
 287 0 l 1,17,-1
 133 0 l 1,18,-1
 133 750 l 2,19,20
 133 787 133 787 97 829 c 128,-1,21
 61 871 61 871 27 874 c 1,0,-1
164 1145 m 0,22,23
 169 1230 169 1230 214.5 1306 c 128,-1,24
 260 1382 260 1382 330 1382 c 0,25,26
 374 1382 374 1382 421 1361 c 128,-1,27
 468 1340 468 1340 501 1314.5 c 128,-1,28
 534 1289 534 1289 571.5 1268 c 128,-1,29
 609 1247 609 1247 635 1247 c 0,30,31
 663 1247 663 1247 689.5 1283.5 c 128,-1,32
 716 1320 716 1320 725 1372 c 1,33,-1
 785 1354 l 1,34,35
 782 1304 782 1304 763.5 1255 c 128,-1,36
 745 1206 745 1206 705.5 1168 c 128,-1,37
 666 1130 666 1130 615 1130 c 0,38,39
 570 1130 570 1130 512 1162 c 128,-1,40
 454 1194 454 1194 405 1225.5 c 128,-1,41
 356 1257 356 1257 334 1257 c 0,42,43
 292 1257 292 1257 261 1221.5 c 128,-1,44
 230 1186 230 1186 226 1122 c 1,45,46
 220 1127 220 1127 193 1135.5 c 128,-1,47
 166 1144 166 1144 164 1145 c 0,22,23
EndSplineSet
Validated: 1
EndChar

StartChar: ograve
Encoding: 242 242 179
Width: 1075
GlyphClass: 2
Flags: W
LayerCount: 2
Fore
SplineSet
92 481 m 128,-1,1
 92 601 92 601 127.5 697.5 c 128,-1,2
 163 794 163 794 224 856.5 c 128,-1,3
 285 919 285 919 366 952 c 128,-1,4
 447 985 447 985 539 985 c 0,5,6
 739 985 739 985 861 856 c 128,-1,7
 983 727 983 727 983 481 c 0,8,9
 983 362 983 362 944.5 266 c 128,-1,10
 906 170 906 170 841 111 c 128,-1,11
 776 52 776 52 696 21 c 128,-1,12
 616 -10 616 -10 528 -10 c 0,13,14
 437 -10 437 -10 359 21 c 128,-1,15
 281 52 281 52 221 112 c 128,-1,16
 161 172 161 172 126.5 266.5 c 128,-1,0
 92 361 92 361 92 481 c 128,-1,1
248 498 m 0,17,18
 248 311 248 311 329.5 205.5 c 128,-1,19
 411 100 411 100 545 100 c 0,20,21
 594 100 594 100 643 123.5 c 128,-1,22
 692 147 692 147 733.5 191 c 128,-1,23
 775 235 775 235 801 308 c 128,-1,24
 827 381 827 381 827 471 c 0,25,26
 827 658 827 658 753 765 c 128,-1,27
 679 872 679 872 522 872 c 0,28,29
 410 872 410 872 329 773 c 128,-1,30
 248 674 248 674 248 498 c 0,17,18
254 1366 m 1,31,-1
 426 1366 l 1,32,-1
 700 1092 l 1,33,-1
 590 1094 l 1,34,-1
 254 1366 l 1,31,-1
EndSplineSet
Validated: 1
EndChar

StartChar: oacute
Encoding: 243 243 180
Width: 1075
GlyphClass: 2
Flags: W
LayerCount: 2
Fore
SplineSet
92 481 m 128,-1,1
 92 601 92 601 127.5 697.5 c 128,-1,2
 163 794 163 794 224 856.5 c 128,-1,3
 285 919 285 919 366 952 c 128,-1,4
 447 985 447 985 539 985 c 0,5,6
 739 985 739 985 861 856 c 128,-1,7
 983 727 983 727 983 481 c 0,8,9
 983 362 983 362 944.5 266 c 128,-1,10
 906 170 906 170 841 111 c 128,-1,11
 776 52 776 52 696 21 c 128,-1,12
 616 -10 616 -10 528 -10 c 0,13,14
 437 -10 437 -10 359 21 c 128,-1,15
 281 52 281 52 221 112 c 128,-1,16
 161 172 161 172 126.5 266.5 c 128,-1,0
 92 361 92 361 92 481 c 128,-1,1
248 498 m 0,17,18
 248 311 248 311 329.5 205.5 c 128,-1,19
 411 100 411 100 545 100 c 0,20,21
 594 100 594 100 643 123.5 c 128,-1,22
 692 147 692 147 733.5 191 c 128,-1,23
 775 235 775 235 801 308 c 128,-1,24
 827 381 827 381 827 471 c 0,25,26
 827 658 827 658 753 765 c 128,-1,27
 679 872 679 872 522 872 c 0,28,29
 410 872 410 872 329 773 c 128,-1,30
 248 674 248 674 248 498 c 0,17,18
377 1092 m 1,31,-1
 651 1366 l 1,32,-1
 823 1366 l 1,33,-1
 487 1094 l 1,34,-1
 377 1092 l 1,31,-1
EndSplineSet
Validated: 1
EndChar

StartChar: ocircumflex
Encoding: 244 244 181
Width: 1075
GlyphClass: 2
Flags: W
LayerCount: 2
Fore
SplineSet
92 481 m 128,-1,1
 92 601 92 601 127.5 697.5 c 128,-1,2
 163 794 163 794 224 856.5 c 128,-1,3
 285 919 285 919 366 952 c 128,-1,4
 447 985 447 985 539 985 c 0,5,6
 739 985 739 985 861 856 c 128,-1,7
 983 727 983 727 983 481 c 0,8,9
 983 362 983 362 944.5 266 c 128,-1,10
 906 170 906 170 841 111 c 128,-1,11
 776 52 776 52 696 21 c 128,-1,12
 616 -10 616 -10 528 -10 c 0,13,14
 437 -10 437 -10 359 21 c 128,-1,15
 281 52 281 52 221 112 c 128,-1,16
 161 172 161 172 126.5 266.5 c 128,-1,0
 92 361 92 361 92 481 c 128,-1,1
248 498 m 0,17,18
 248 311 248 311 329.5 205.5 c 128,-1,19
 411 100 411 100 545 100 c 0,20,21
 594 100 594 100 643 123.5 c 128,-1,22
 692 147 692 147 733.5 191 c 128,-1,23
 775 235 775 235 801 308 c 128,-1,24
 827 381 827 381 827 471 c 0,25,26
 827 658 827 658 753 765 c 128,-1,27
 679 872 679 872 522 872 c 0,28,29
 410 872 410 872 329 773 c 128,-1,30
 248 674 248 674 248 498 c 0,17,18
268 1081 m 1,31,-1
 536 1434 l 1,32,-1
 805 1081 l 1,33,-1
 684 1081 l 1,34,-1
 541 1280 l 1,35,-1
 391 1081 l 1,36,-1
 268 1081 l 1,31,-1
EndSplineSet
Validated: 1
EndChar

StartChar: otilde
Encoding: 245 245 182
Width: 1075
GlyphClass: 2
Flags: W
LayerCount: 2
Fore
SplineSet
92 481 m 128,-1,1
 92 601 92 601 127.5 697.5 c 128,-1,2
 163 794 163 794 224 856.5 c 128,-1,3
 285 919 285 919 366 952 c 128,-1,4
 447 985 447 985 539 985 c 0,5,6
 739 985 739 985 861 856 c 128,-1,7
 983 727 983 727 983 481 c 0,8,9
 983 362 983 362 944.5 266 c 128,-1,10
 906 170 906 170 841 111 c 128,-1,11
 776 52 776 52 696 21 c 128,-1,12
 616 -10 616 -10 528 -10 c 0,13,14
 437 -10 437 -10 359 21 c 128,-1,15
 281 52 281 52 221 112 c 128,-1,16
 161 172 161 172 126.5 266.5 c 128,-1,0
 92 361 92 361 92 481 c 128,-1,1
182 1145 m 0,17,18
 187 1230 187 1230 232.5 1306 c 128,-1,19
 278 1382 278 1382 348 1382 c 0,20,21
 392 1382 392 1382 439 1361 c 128,-1,22
 486 1340 486 1340 519 1314.5 c 128,-1,23
 552 1289 552 1289 589.5 1268 c 128,-1,24
 627 1247 627 1247 653 1247 c 0,25,26
 681 1247 681 1247 707.5 1283.5 c 128,-1,27
 734 1320 734 1320 743 1372 c 1,28,-1
 803 1354 l 1,29,30
 800 1304 800 1304 781.5 1255 c 128,-1,31
 763 1206 763 1206 723.5 1168 c 128,-1,32
 684 1130 684 1130 633 1130 c 0,33,34
 588 1130 588 1130 530 1162 c 128,-1,35
 472 1194 472 1194 423 1225.5 c 128,-1,36
 374 1257 374 1257 352 1257 c 0,37,38
 310 1257 310 1257 279 1221.5 c 128,-1,39
 248 1186 248 1186 244 1122 c 1,40,41
 238 1127 238 1127 211 1135.5 c 128,-1,42
 184 1144 184 1144 182 1145 c 0,17,18
248 498 m 0,43,44
 248 311 248 311 329.5 205.5 c 128,-1,45
 411 100 411 100 545 100 c 0,46,47
 594 100 594 100 643 123.5 c 128,-1,48
 692 147 692 147 733.5 191 c 128,-1,49
 775 235 775 235 801 308 c 128,-1,50
 827 381 827 381 827 471 c 0,51,52
 827 658 827 658 753 765 c 128,-1,53
 679 872 679 872 522 872 c 0,54,55
 410 872 410 872 329 773 c 128,-1,56
 248 674 248 674 248 498 c 0,43,44
EndSplineSet
Validated: 1
EndChar

StartChar: odieresis
Encoding: 246 246 183
Width: 1075
GlyphClass: 2
Flags: W
LayerCount: 2
Fore
SplineSet
92 481 m 128,-1,1
 92 601 92 601 127.5 697.5 c 128,-1,2
 163 794 163 794 224 856.5 c 128,-1,3
 285 919 285 919 366 952 c 128,-1,4
 447 985 447 985 539 985 c 0,5,6
 739 985 739 985 861 856 c 128,-1,7
 983 727 983 727 983 481 c 0,8,9
 983 362 983 362 944.5 266 c 128,-1,10
 906 170 906 170 841 111 c 128,-1,11
 776 52 776 52 696 21 c 128,-1,12
 616 -10 616 -10 528 -10 c 0,13,14
 437 -10 437 -10 359 21 c 128,-1,15
 281 52 281 52 221 112 c 128,-1,16
 161 172 161 172 126.5 266.5 c 128,-1,0
 92 361 92 361 92 481 c 128,-1,1
223 1278 m 128,-1,18
 223 1318 223 1318 250 1346 c 128,-1,19
 277 1374 277 1374 317 1374 c 128,-1,20
 357 1374 357 1374 385.5 1346 c 128,-1,21
 414 1318 414 1318 414 1278 c 0,22,23
 414 1239 414 1239 385.5 1211.5 c 128,-1,24
 357 1184 357 1184 317 1184 c 128,-1,25
 277 1184 277 1184 250 1211 c 128,-1,17
 223 1238 223 1238 223 1278 c 128,-1,18
248 498 m 0,26,27
 248 311 248 311 329.5 205.5 c 128,-1,28
 411 100 411 100 545 100 c 0,29,30
 594 100 594 100 643 123.5 c 128,-1,31
 692 147 692 147 733.5 191 c 128,-1,32
 775 235 775 235 801 308 c 128,-1,33
 827 381 827 381 827 471 c 0,34,35
 827 658 827 658 753 765 c 128,-1,36
 679 872 679 872 522 872 c 0,37,38
 410 872 410 872 329 773 c 128,-1,39
 248 674 248 674 248 498 c 0,26,27
600 1278 m 128,-1,41
 600 1318 600 1318 627 1346 c 128,-1,42
 654 1374 654 1374 694 1374 c 128,-1,43
 734 1374 734 1374 762.5 1346 c 128,-1,44
 791 1318 791 1318 791 1278 c 0,45,46
 791 1239 791 1239 762.5 1211.5 c 128,-1,47
 734 1184 734 1184 694 1184 c 128,-1,48
 654 1184 654 1184 627 1211 c 128,-1,40
 600 1238 600 1238 600 1278 c 128,-1,41
EndSplineSet
Validated: 1
EndChar

StartChar: divide
Encoding: 247 247 184
Width: 911
GlyphClass: 2
Flags: W
LayerCount: 2
Fore
SplineSet
86 434 m 1,0,-1
 86 561 l 1,1,-1
 817 561 l 1,2,-1
 817 434 l 1,3,-1
 86 434 l 1,0,-1
354 823 m 0,4,5
 354 867 354 867 382.5 895.5 c 128,-1,6
 411 924 411 924 451 924 c 128,-1,7
 491 924 491 924 518 895 c 128,-1,8
 545 866 545 866 545 823 c 0,9,10
 545 782 545 782 518 753.5 c 128,-1,11
 491 725 491 725 451 725 c 128,-1,12
 411 725 411 725 382.5 753 c 128,-1,13
 354 781 354 781 354 823 c 0,4,5
358 170 m 0,14,15
 358 210 358 210 386.5 239 c 128,-1,16
 415 268 415 268 455 268 c 0,17,18
 493 268 493 268 519 239 c 128,-1,19
 545 210 545 210 545 170 c 0,20,21
 545 127 545 127 519 98.5 c 128,-1,22
 493 70 493 70 455 70 c 0,23,24
 415 70 415 70 386.5 99 c 128,-1,25
 358 128 358 128 358 170 c 0,14,15
EndSplineSet
Validated: 1
EndChar

StartChar: oslash
Encoding: 248 248 185
Width: 1067
GlyphClass: 2
Flags: W
LayerCount: 2
Fore
SplineSet
92 481 m 0,0,1
 92 601 92 601 127.5 697.5 c 128,-1,2
 163 794 163 794 224 856.5 c 128,-1,3
 285 919 285 919 366 952 c 128,-1,4
 447 985 447 985 539 985 c 0,5,6
 642 985 642 985 721 952 c 1,7,-1
 834 1159 l 1,8,-1
 963 1159 l 1,9,-1
 821 895 l 1,10,11
 983 762 983 762 983 481 c 0,12,13
 983 362 983 362 944.5 266 c 128,-1,14
 906 170 906 170 841 111 c 128,-1,15
 776 52 776 52 696 21 c 128,-1,16
 616 -10 616 -10 528 -10 c 0,17,18
 430 -10 430 -10 354 23 c 1,19,-1
 229 -211 l 1,20,-1
 94 -211 l 1,21,-1
 254 84 l 1,22,23
 92 216 92 216 92 481 c 0,0,1
248 498 m 0,24,25
 248 318 248 318 324 213 c 1,26,-1
 664 842 l 1,27,28
 606 872 606 872 522 872 c 0,29,30
 410 872 410 872 329 773 c 128,-1,31
 248 674 248 674 248 498 c 0,24,25
254 84 m 1,32,33
 301 43 301 43 354 23 c 1,34,-1
 414 133 l 1,35,36
 362 160 362 160 324 213 c 1,37,-1
 254 84 l 1,32,33
414 133 m 1,38,39
 470 100 470 100 545 100 c 0,40,41
 594 100 594 100 643 123.5 c 128,-1,42
 692 147 692 147 733.5 191 c 128,-1,43
 775 235 775 235 801 308 c 128,-1,44
 827 381 827 381 827 471 c 0,45,46
 827 664 827 664 752 766 c 1,47,-1
 414 133 l 1,38,39
664 842 m 1,48,49
 715 818 715 818 752 766 c 1,50,-1
 821 895 l 1,51,52
 768 934 768 934 721 952 c 1,53,-1
 664 842 l 1,48,49
EndSplineSet
Validated: 5
EndChar

StartChar: ugrave
Encoding: 249 249 186
Width: 1024
GlyphClass: 2
Flags: W
LayerCount: 2
Fore
SplineSet
25 868 m 1,0,-1
 287 995 l 1,1,-1
 287 274 l 2,2,3
 287 209 287 209 329 150.5 c 128,-1,4
 371 92 371 92 446 92 c 0,5,6
 544 92 544 92 733 172 c 1,7,-1
 733 975 l 1,8,-1
 887 975 l 1,9,-1
 887 0 l 1,10,-1
 733 0 l 1,11,-1
 733 51 l 1,12,13
 576 -18 576 -18 438 -18 c 0,14,15
 290 -18 290 -18 211.5 59 c 128,-1,16
 133 136 133 136 133 256 c 2,17,-1
 133 764 l 2,18,19
 133 792 133 792 98.5 828 c 128,-1,20
 64 864 64 864 25 868 c 1,0,-1
166 1366 m 1,21,-1
 338 1366 l 1,22,-1
 612 1092 l 1,23,-1
 502 1094 l 1,24,-1
 166 1366 l 1,21,-1
EndSplineSet
Validated: 1
EndChar

StartChar: uacute
Encoding: 250 250 187
Width: 1024
GlyphClass: 2
Flags: W
LayerCount: 2
Fore
SplineSet
25 868 m 1,0,-1
 287 995 l 1,1,-1
 287 274 l 2,2,3
 287 209 287 209 329 150.5 c 128,-1,4
 371 92 371 92 446 92 c 0,5,6
 544 92 544 92 733 172 c 1,7,-1
 733 975 l 1,8,-1
 887 975 l 1,9,-1
 887 0 l 1,10,-1
 733 0 l 1,11,-1
 733 51 l 1,12,13
 576 -18 576 -18 438 -18 c 0,14,15
 290 -18 290 -18 211.5 59 c 128,-1,16
 133 136 133 136 133 256 c 2,17,-1
 133 764 l 2,18,19
 133 792 133 792 98.5 828 c 128,-1,20
 64 864 64 864 25 868 c 1,0,-1
392 1092 m 1,21,-1
 666 1366 l 1,22,-1
 838 1366 l 1,23,-1
 502 1094 l 1,24,-1
 392 1092 l 1,21,-1
EndSplineSet
Validated: 1
EndChar

StartChar: ucircumflex
Encoding: 251 251 188
Width: 1024
GlyphClass: 2
Flags: W
LayerCount: 2
Fore
SplineSet
25 868 m 1,0,-1
 287 995 l 1,1,-1
 287 274 l 2,2,3
 287 209 287 209 329 150.5 c 128,-1,4
 371 92 371 92 446 92 c 0,5,6
 544 92 544 92 733 172 c 1,7,-1
 733 975 l 1,8,-1
 887 975 l 1,9,-1
 887 0 l 1,10,-1
 733 0 l 1,11,-1
 733 51 l 1,12,13
 576 -18 576 -18 438 -18 c 0,14,15
 290 -18 290 -18 211.5 59 c 128,-1,16
 133 136 133 136 133 256 c 2,17,-1
 133 764 l 2,18,19
 133 792 133 792 98.5 828 c 128,-1,20
 64 864 64 864 25 868 c 1,0,-1
244 1081 m 1,21,-1
 512 1434 l 1,22,-1
 781 1081 l 1,23,-1
 660 1081 l 1,24,-1
 517 1280 l 1,25,-1
 367 1081 l 1,26,-1
 244 1081 l 1,21,-1
EndSplineSet
Validated: 1
EndChar

StartChar: udieresis
Encoding: 252 252 189
Width: 1024
GlyphClass: 2
Flags: W
LayerCount: 2
Fore
SplineSet
25 868 m 1,0,-1
 287 995 l 1,1,-1
 287 274 l 2,2,3
 287 209 287 209 329 150.5 c 128,-1,4
 371 92 371 92 446 92 c 0,5,6
 544 92 544 92 733 172 c 1,7,-1
 733 975 l 1,8,-1
 887 975 l 1,9,-1
 887 0 l 1,10,-1
 733 0 l 1,11,-1
 733 51 l 1,12,13
 576 -18 576 -18 438 -18 c 0,14,15
 290 -18 290 -18 211.5 59 c 128,-1,16
 133 136 133 136 133 256 c 2,17,-1
 133 764 l 2,18,19
 133 792 133 792 98.5 828 c 128,-1,20
 64 864 64 864 25 868 c 1,0,-1
227 1278 m 128,-1,22
 227 1318 227 1318 254.5 1346 c 128,-1,23
 282 1374 282 1374 322 1374 c 128,-1,24
 362 1374 362 1374 390 1346 c 128,-1,25
 418 1318 418 1318 418 1278 c 128,-1,26
 418 1238 418 1238 390 1211 c 128,-1,27
 362 1184 362 1184 322 1184 c 128,-1,28
 282 1184 282 1184 254.5 1211 c 128,-1,21
 227 1238 227 1238 227 1278 c 128,-1,22
604 1278 m 128,-1,30
 604 1318 604 1318 631 1346 c 128,-1,31
 658 1374 658 1374 698 1374 c 128,-1,32
 738 1374 738 1374 766.5 1346 c 128,-1,33
 795 1318 795 1318 795 1278 c 0,34,35
 795 1239 795 1239 766.5 1211.5 c 128,-1,36
 738 1184 738 1184 698 1184 c 128,-1,37
 658 1184 658 1184 631 1211 c 128,-1,29
 604 1238 604 1238 604 1278 c 128,-1,30
EndSplineSet
Validated: 1
EndChar

StartChar: yacute
Encoding: 253 253 190
Width: 987
GlyphClass: 2
Flags: W
LayerCount: 2
Fore
SplineSet
37 975 m 1,0,-1
 207 975 l 1,1,-1
 489 250 l 1,2,-1
 715 784 l 2,3,4
 738 844 738 844 722.5 898 c 128,-1,5
 707 952 707 952 668 975 c 1,6,-1
 915 975 l 1,7,-1
 344 -410 l 1,8,-1
 215 -410 l 1,9,-1
 403 49 l 1,10,-1
 37 975 l 1,0,-1
379 1090 m 1,11,-1
 653 1364 l 1,12,-1
 825 1364 l 1,13,-1
 489 1092 l 1,14,-1
 379 1090 l 1,11,-1
EndSplineSet
Validated: 33
EndChar

StartChar: thorn
Encoding: 254 254 191
Width: 1071
GlyphClass: 2
Flags: W
LayerCount: 2
Fore
SplineSet
27 1430 m 1,0,-1
 287 1556 l 1,1,-1
 287 913 l 1,2,3
 409 985 409 985 539 985 c 0,4,5
 739 985 739 985 855 853.5 c 128,-1,6
 971 722 971 722 971 487 c 0,7,8
 971 271 971 271 849.5 130.5 c 128,-1,9
 728 -10 728 -10 539 -10 c 0,10,11
 440 -10 440 -10 287 27 c 1,12,-1
 287 -410 l 1,13,-1
 133 -410 l 1,14,-1
 133 1311 l 2,15,16
 133 1347 133 1347 97 1387 c 128,-1,17
 61 1427 61 1427 27 1430 c 1,0,-1
287 158 m 1,18,19
 440 104 440 104 547 104 c 0,20,21
 648 104 648 104 730.5 209.5 c 128,-1,22
 813 315 813 315 813 481 c 0,23,24
 813 667 813 667 741 769.5 c 128,-1,25
 669 872 669 872 532 872 c 0,26,27
 466 872 466 872 398 845 c 128,-1,28
 330 818 330 818 287 772 c 1,29,-1
 287 158 l 1,18,19
EndSplineSet
Validated: 1
EndChar

StartChar: ydieresis
Encoding: 255 255 192
Width: 987
GlyphClass: 2
Flags: W
LayerCount: 2
Fore
SplineSet
37 975 m 1,0,-1
 207 975 l 1,1,-1
 489 250 l 1,2,-1
 715 784 l 2,3,4
 738 844 738 844 722.5 898 c 128,-1,5
 707 952 707 952 668 975 c 1,6,-1
 915 975 l 1,7,-1
 344 -410 l 1,8,-1
 215 -410 l 1,9,-1
 403 49 l 1,10,-1
 37 975 l 1,0,-1
211 1278 m 128,-1,12
 211 1318 211 1318 238 1346 c 128,-1,13
 265 1374 265 1374 305 1374 c 128,-1,14
 345 1374 345 1374 373 1346 c 128,-1,15
 401 1318 401 1318 401 1278 c 128,-1,16
 401 1238 401 1238 373 1211 c 128,-1,17
 345 1184 345 1184 305 1184 c 128,-1,18
 265 1184 265 1184 238 1211 c 128,-1,11
 211 1238 211 1238 211 1278 c 128,-1,12
588 1278 m 128,-1,20
 588 1318 588 1318 615 1346 c 128,-1,21
 642 1374 642 1374 682 1374 c 128,-1,22
 722 1374 722 1374 750 1346 c 128,-1,23
 778 1318 778 1318 778 1278 c 128,-1,24
 778 1238 778 1238 750 1211 c 128,-1,25
 722 1184 722 1184 682 1184 c 128,-1,26
 642 1184 642 1184 615 1211 c 128,-1,19
 588 1238 588 1238 588 1278 c 128,-1,20
EndSplineSet
Validated: 33
EndChar

StartChar: OE
Encoding: 338 338 193
Width: 1937
GlyphClass: 2
Flags: W
LayerCount: 2
Fore
SplineSet
68 676 m 0,0,1
 68 834 68 834 115.5 967 c 128,-1,2
 163 1100 163 1100 244.5 1190.5 c 128,-1,3
 326 1281 326 1281 437 1331.5 c 128,-1,4
 548 1382 548 1382 674 1382 c 0,5,6
 811 1382 811 1382 926.5 1319 c 128,-1,7
 1042 1256 1042 1256 1122 1143 c 1,8,-1
 1122 1368 l 1,9,-1
 1823 1368 l 1,10,-1
 1829 1184 l 1,11,12
 1812 1192 1812 1192 1787 1208 c 128,-1,13
 1762 1224 1762 1224 1746 1230.5 c 128,-1,14
 1730 1237 1730 1237 1684.5 1243 c 128,-1,15
 1639 1249 1639 1249 1565 1249 c 2,16,-1
 1268 1249 l 1,17,-1
 1268 780 l 1,18,-1
 1769 780 l 1,19,-1
 1767 664 l 1,20,-1
 1268 664 l 1,21,-1
 1268 115 l 1,22,-1
 1556 115 l 2,23,24
 1579 115 1579 115 1601 116.5 c 128,-1,25
 1623 118 1623 118 1640.5 119.5 c 128,-1,26
 1658 121 1658 121 1676 125 c 128,-1,27
 1694 129 1694 129 1705.5 131 c 128,-1,28
 1717 133 1717 133 1733.5 139 c 128,-1,29
 1750 145 1750 145 1757 147.5 c 128,-1,30
 1764 150 1764 150 1779 157.5 c 128,-1,31
 1794 165 1794 165 1797.5 166.5 c 128,-1,32
 1801 168 1801 168 1816 176.5 c 128,-1,33
 1831 185 1831 185 1833 186 c 1,34,-1
 1835 0 l 1,35,-1
 1122 0 l 1,36,-1
 1122 205 l 1,37,38
 1043 97 1043 97 927 39.5 c 128,-1,39
 811 -18 811 -18 674 -18 c 0,40,41
 543 -18 543 -18 429.5 35.5 c 128,-1,42
 316 89 316 89 237 181.5 c 128,-1,43
 158 274 158 274 113 402 c 128,-1,44
 68 530 68 530 68 676 c 0,0,1
244 731 m 0,45,46
 244 550 244 550 297.5 409 c 128,-1,47
 351 268 351 268 454 187 c 128,-1,48
 557 106 557 106 694 106 c 0,49,50
 869 106 869 106 989.5 259 c 128,-1,51
 1110 412 1110 412 1110 659 c 0,52,53
 1110 744 1110 744 1093.5 827 c 128,-1,54
 1077 910 1077 910 1040.5 988 c 128,-1,55
 1004 1066 1004 1066 952 1125 c 128,-1,56
 900 1184 900 1184 823 1219.5 c 128,-1,57
 746 1255 746 1255 655 1255 c 0,58,59
 570 1255 570 1255 496.5 1221 c 128,-1,60
 423 1187 423 1187 366 1123 c 128,-1,61
 309 1059 309 1059 276.5 958 c 128,-1,62
 244 857 244 857 244 731 c 0,45,46
EndSplineSet
Validated: 1
EndChar

StartChar: oe
Encoding: 339 339 194
Width: 1755
GlyphClass: 2
Flags: W
LayerCount: 2
Fore
SplineSet
88 481 m 0,0,1
 88 708 88 708 210 846.5 c 128,-1,2
 332 985 332 985 520 985 c 0,3,4
 643 985 643 985 736 936 c 128,-1,5
 829 887 829 887 885 795 c 1,6,7
 1007 987 1007 987 1243 987 c 0,8,9
 1354 987 1354 987 1443 932.5 c 128,-1,10
 1532 878 1532 878 1582.5 789.5 c 128,-1,11
 1633 701 1633 701 1645 594 c 1,12,-1
 971 346 l 1,13,14
 1001 244 1001 244 1090 179.5 c 128,-1,15
 1179 115 1179 115 1278 115 c 0,16,17
 1296 115 1296 115 1314.5 117 c 128,-1,18
 1333 119 1333 119 1351.5 124 c 128,-1,19
 1370 129 1370 129 1385.5 133 c 128,-1,20
 1401 137 1401 137 1420 145.5 c 128,-1,21
 1439 154 1439 154 1450.5 158.5 c 128,-1,22
 1462 163 1462 163 1480.5 172.5 c 128,-1,23
 1499 182 1499 182 1505 185 c 128,-1,24
 1511 188 1511 188 1528 198 c 2,25,-1
 1544 207 l 1,26,-1
 1589 135 l 1,27,28
 1512 70 1512 70 1433.5 31 c 128,-1,29
 1355 -8 1355 -8 1253 -8 c 0,30,31
 1000 -8 1000 -8 879 176 c 1,32,33
 821 86 821 86 729.5 38 c 128,-1,34
 638 -10 638 -10 530 -10 c 0,35,36
 335 -10 335 -10 211.5 127.5 c 128,-1,37
 88 265 88 265 88 481 c 0,0,1
238 500 m 0,38,39
 238 320 238 320 328 217.5 c 128,-1,40
 418 115 418 115 551 115 c 0,41,42
 596 115 596 115 641 137.5 c 128,-1,43
 686 160 686 160 725 203.5 c 128,-1,44
 764 247 764 247 788.5 319.5 c 128,-1,45
 813 392 813 392 813 481 c 0,46,47
 813 653 813 653 734 759.5 c 128,-1,48
 655 866 655 866 504 866 c 0,49,50
 455 866 455 866 409.5 845.5 c 128,-1,51
 364 825 364 825 324.5 783.5 c 128,-1,52
 285 742 285 742 261.5 668.5 c 128,-1,53
 238 595 238 595 238 500 c 0,38,39
946 463 m 1,54,-1
 1483 653 l 1,55,56
 1464 753 1464 753 1391 806.5 c 128,-1,57
 1318 860 1318 860 1223 860 c 0,58,59
 1153 860 1153 860 1095.5 821.5 c 128,-1,60
 1038 783 1038 783 1004.5 723.5 c 128,-1,61
 971 664 971 664 955.5 595 c 128,-1,62
 940 526 940 526 946 463 c 1,54,-1
EndSplineSet
Validated: 33
EndChar

StartChar: Ydieresis
Encoding: 376 376 195
Width: 1142
GlyphClass: 2
Flags: W
LayerCount: 2
Fore
SplineSet
23 1366 m 1,0,-1
 285 1366 l 1,1,2
 229 1317 229 1317 295 1214 c 2,3,-1
 596 715 l 1,4,-1
 981 1366 l 1,5,-1
 1112 1366 l 1,6,-1
 647 580 l 1,7,-1
 647 0 l 1,8,-1
 494 0 l 1,9,-1
 494 578 l 1,10,-1
 23 1366 l 1,0,-1
287 1669 m 128,-1,12
 287 1709 287 1709 314 1737 c 128,-1,13
 341 1765 341 1765 381 1765 c 128,-1,14
 421 1765 421 1765 449 1737 c 128,-1,15
 477 1709 477 1709 477 1669 c 128,-1,16
 477 1629 477 1629 449 1602 c 128,-1,17
 421 1575 421 1575 381 1575 c 128,-1,18
 341 1575 341 1575 314 1602 c 128,-1,11
 287 1629 287 1629 287 1669 c 128,-1,12
664 1669 m 128,-1,20
 664 1709 664 1709 691 1737 c 128,-1,21
 718 1765 718 1765 758 1765 c 128,-1,22
 798 1765 798 1765 826 1737 c 128,-1,23
 854 1709 854 1709 854 1669 c 128,-1,24
 854 1629 854 1629 826 1602 c 128,-1,25
 798 1575 798 1575 758 1575 c 128,-1,26
 718 1575 718 1575 691 1602 c 128,-1,19
 664 1629 664 1629 664 1669 c 128,-1,20
EndSplineSet
Validated: 33
EndChar

StartChar: circumflex
Encoding: 710 710 196
Width: 958
GlyphClass: 2
Flags: W
LayerCount: 2
Fore
SplineSet
219 1081 m 1,0,-1
 487 1434 l 1,1,-1
 756 1081 l 1,2,-1
 635 1081 l 1,3,-1
 492 1280 l 1,4,-1
 342 1081 l 1,5,-1
 219 1081 l 1,0,-1
EndSplineSet
Validated: 1
EndChar

StartChar: tilde
Encoding: 732 732 197
Width: 987
GlyphClass: 2
Flags: W
LayerCount: 2
Fore
SplineSet
182 1145 m 0,0,1
 187 1230 187 1230 232.5 1306 c 128,-1,2
 278 1382 278 1382 348 1382 c 0,3,4
 392 1382 392 1382 439 1361 c 128,-1,5
 486 1340 486 1340 519 1314.5 c 128,-1,6
 552 1289 552 1289 589.5 1268 c 128,-1,7
 627 1247 627 1247 653 1247 c 0,8,9
 681 1247 681 1247 707.5 1283.5 c 128,-1,10
 734 1320 734 1320 743 1372 c 1,11,-1
 803 1354 l 1,12,13
 800 1304 800 1304 781.5 1255 c 128,-1,14
 763 1206 763 1206 723.5 1168 c 128,-1,15
 684 1130 684 1130 633 1130 c 0,16,17
 588 1130 588 1130 530 1162 c 128,-1,18
 472 1194 472 1194 423 1225.5 c 128,-1,19
 374 1257 374 1257 352 1257 c 0,20,21
 310 1257 310 1257 279 1221.5 c 128,-1,22
 248 1186 248 1186 244 1122 c 1,23,24
 238 1127 238 1127 211 1135.5 c 128,-1,25
 184 1144 184 1144 182 1145 c 0,0,1
EndSplineSet
Validated: 1
EndChar

StartChar: uni2010
Encoding: 8208 8208 209
Width: 759
GlyphClass: 2
Flags: W
LayerCount: 2
Fore
SplineSet
94 504 m 1,0,-1
 94 623 l 1,1,-1
 637 623 l 1,2,-1
 637 504 l 1,3,-1
 94 504 l 1,0,-1
EndSplineSet
Validated: 1
EndChar

StartChar: uni2011
Encoding: 8209 8209 210
Width: 759
GlyphClass: 2
Flags: W
LayerCount: 2
Fore
SplineSet
94 504 m 1,0,-1
 94 623 l 1,1,-1
 637 623 l 1,2,-1
 637 504 l 1,3,-1
 94 504 l 1,0,-1
EndSplineSet
Validated: 1
EndChar

StartChar: figuredash
Encoding: 8210 8210 211
Width: 759
GlyphClass: 2
Flags: W
LayerCount: 2
Fore
SplineSet
94 504 m 1,0,-1
 94 623 l 1,1,-1
 637 623 l 1,2,-1
 637 504 l 1,3,-1
 94 504 l 1,0,-1
EndSplineSet
Validated: 1
EndChar

StartChar: endash
Encoding: 8211 8211 212
Width: 966
GlyphClass: 2
Flags: W
LayerCount: 2
Fore
SplineSet
131 496 m 1,0,-1
 131 623 l 1,1,-1
 862 623 l 1,2,-1
 862 496 l 1,3,-1
 131 496 l 1,0,-1
EndSplineSet
Validated: 1
EndChar

StartChar: emdash
Encoding: 8212 8212 213
Width: 1529
GlyphClass: 2
Flags: W
LayerCount: 2
Fore
SplineSet
129 496 m 1,0,-1
 129 623 l 1,1,-1
 1430 623 l 1,2,-1
 1430 496 l 1,3,-1
 129 496 l 1,0,-1
EndSplineSet
Validated: 1
EndChar

StartChar: quoteleft
Encoding: 8216 8216 214
Width: 350
GlyphClass: 2
Flags: W
LayerCount: 2
Fore
SplineSet
53 1020 m 0,0,1
 53 1090 53 1090 91.5 1186.5 c 128,-1,2
 130 1283 130 1283 180 1370 c 1,3,-1
 289 1348 l 1,4,5
 256 1283 256 1283 232.5 1184 c 128,-1,6
 209 1085 209 1085 209 1038 c 0,7,8
 209 963 209 963 236 915 c 1,9,10
 162 887 162 887 70 887 c 1,11,12
 53 939 53 939 53 1020 c 0,0,1
EndSplineSet
Validated: 1
EndChar

StartChar: quoteright
Encoding: 8217 8217 215
Width: 370
GlyphClass: 2
Flags: W
LayerCount: 2
Fore
SplineSet
66 909 m 1,0,1
 98 974 98 974 121.5 1072.5 c 128,-1,2
 145 1171 145 1171 145 1219 c 0,3,4
 145 1295 145 1295 119 1341 c 1,5,6
 196 1370 196 1370 285 1370 c 1,7,8
 301 1321 301 1321 301 1237 c 0,9,10
 301 1167 301 1167 262.5 1070.5 c 128,-1,11
 224 974 224 974 174 887 c 1,12,-1
 66 909 l 1,0,1
EndSplineSet
Validated: 1
EndChar

StartChar: quotesinglbase
Encoding: 8218 8218 216
Width: 346
GlyphClass: 2
Flags: W
LayerCount: 2
Fore
SplineSet
70 12 m 0,0,1
 70 17 70 17 74 29 c 0,2,3
 97 75 97 75 117 149 c 128,-1,4
 137 223 137 223 137 252 c 128,-1,5
 137 281 137 281 113 305 c 0,6,7
 94 324 94 324 94 344 c 0,8,9
 94 353 94 353 101 362.5 c 128,-1,10
 108 372 108 372 117 375 c 2,11,-1
 223 389 l 1,12,-1
 254 365 l 1,13,14
 276 310 276 310 276 272 c 0,15,16
 276 235 276 235 247 166.5 c 128,-1,17
 218 98 218 98 172 40 c 128,-1,18
 126 -18 126 -18 88 -18 c 0,19,20
 70 -18 70 -18 70 12 c 0,0,1
EndSplineSet
Validated: 1
EndChar

StartChar: quotedblleft
Encoding: 8220 8220 217
Width: 686
GlyphClass: 2
Flags: W
LayerCount: 2
Fore
SplineSet
53 1020 m 0,0,1
 53 1090 53 1090 91.5 1186.5 c 128,-1,2
 130 1283 130 1283 180 1370 c 1,3,-1
 289 1348 l 1,4,5
 256 1283 256 1283 232.5 1184 c 128,-1,6
 209 1085 209 1085 209 1038 c 0,7,8
 209 963 209 963 236 915 c 1,9,10
 162 887 162 887 70 887 c 1,11,12
 53 939 53 939 53 1020 c 0,0,1
365 1020 m 0,13,14
 365 1090 365 1090 403.5 1186.5 c 128,-1,15
 442 1283 442 1283 492 1370 c 1,16,-1
 600 1348 l 1,17,18
 567 1283 567 1283 543.5 1184 c 128,-1,19
 520 1085 520 1085 520 1038 c 0,20,21
 520 963 520 963 547 915 c 1,22,23
 473 887 473 887 381 887 c 1,24,25
 365 936 365 936 365 1020 c 0,13,14
EndSplineSet
Validated: 1
EndChar

StartChar: quotedblright
Encoding: 8221 8221 218
Width: 686
GlyphClass: 2
Flags: W
LayerCount: 2
Fore
SplineSet
53 909 m 1,0,1
 86 974 86 974 109.5 1073 c 128,-1,2
 133 1172 133 1172 133 1219 c 0,3,4
 133 1293 133 1293 106 1341 c 1,5,6
 183 1370 183 1370 272 1370 c 1,7,8
 289 1318 289 1318 289 1237 c 0,9,10
 289 1167 289 1167 250.5 1070.5 c 128,-1,11
 212 974 212 974 162 887 c 1,12,-1
 53 909 l 1,0,1
365 909 m 1,13,14
 397 974 397 974 420.5 1072.5 c 128,-1,15
 444 1171 444 1171 444 1219 c 0,16,17
 444 1295 444 1295 418 1341 c 1,18,19
 495 1370 495 1370 584 1370 c 1,20,21
 600 1321 600 1321 600 1237 c 0,22,23
 600 1167 600 1167 561.5 1070.5 c 128,-1,24
 523 974 523 974 473 887 c 1,25,-1
 365 909 l 1,13,14
EndSplineSet
Validated: 1
EndChar

StartChar: quotedblbase
Encoding: 8222 8222 219
Width: 651
GlyphClass: 2
Flags: W
LayerCount: 2
Fore
SplineSet
70 12 m 0,0,1
 70 17 70 17 74 29 c 0,2,3
 97 75 97 75 117 149 c 128,-1,4
 137 223 137 223 137 252 c 128,-1,5
 137 281 137 281 113 305 c 0,6,7
 94 324 94 324 94 344 c 0,8,9
 94 353 94 353 101 362.5 c 128,-1,10
 108 372 108 372 117 375 c 2,11,-1
 221 389 l 1,12,-1
 252 365 l 1,13,14
 274 310 274 310 274 272 c 0,15,16
 274 235 274 235 245.5 166.5 c 128,-1,17
 217 98 217 98 171.5 40 c 128,-1,18
 126 -18 126 -18 88 -18 c 0,19,20
 70 -18 70 -18 70 12 c 0,0,1
354 12 m 0,21,22
 354 17 354 17 358 29 c 0,23,24
 381 76 381 76 401.5 149.5 c 128,-1,25
 422 223 422 223 422 252 c 0,26,27
 422 280 422 280 397 305 c 0,28,29
 379 323 379 323 379 344 c 0,30,31
 379 353 379 353 385.5 362.5 c 128,-1,32
 392 372 392 372 401 375 c 2,33,-1
 506 389 l 1,34,-1
 539 365 l 1,35,36
 561 310 561 310 561 272 c 0,37,38
 561 235 561 235 532 166.5 c 128,-1,39
 503 98 503 98 457 40 c 128,-1,40
 411 -18 411 -18 373 -18 c 0,41,42
 365 -18 365 -18 359.5 -8.5 c 128,-1,43
 354 1 354 1 354 12 c 0,21,22
EndSplineSet
Validated: 1
EndChar

StartChar: bullet
Encoding: 8226 8226 220
Width: 489
GlyphClass: 2
Flags: W
LayerCount: 2
Fore
SplineSet
98 520 m 0,0,1
 98 583 98 583 142.5 628.5 c 128,-1,2
 187 674 187 674 248 674 c 0,3,4
 307 674 307 674 348 629 c 128,-1,5
 389 584 389 584 389 520 c 0,6,7
 389 453 389 453 348.5 409 c 128,-1,8
 308 365 308 365 248 365 c 0,9,10
 186 365 186 365 142 409 c 128,-1,11
 98 453 98 453 98 520 c 0,0,1
EndSplineSet
Validated: 1
EndChar

StartChar: ellipsis
Encoding: 8230 8230 221
Width: 1210
GlyphClass: 2
Flags: W
LayerCount: 2
Fore
SplineSet
98 88 m 0,0,1
 98 128 98 128 126.5 157 c 128,-1,2
 155 186 155 186 195 186 c 0,3,4
 233 186 233 186 259 157 c 128,-1,5
 285 128 285 128 285 88 c 0,6,7
 285 45 285 45 259 16.5 c 128,-1,8
 233 -12 233 -12 195 -12 c 0,9,10
 155 -12 155 -12 126.5 17 c 128,-1,11
 98 46 98 46 98 88 c 0,0,1
502 88 m 0,12,13
 502 128 502 128 530 157 c 128,-1,14
 558 186 558 186 598 186 c 0,15,16
 636 186 636 186 662 157 c 128,-1,17
 688 128 688 128 688 88 c 0,18,19
 688 45 688 45 662 16.5 c 128,-1,20
 636 -12 636 -12 598 -12 c 0,21,22
 558 -12 558 -12 530 17 c 128,-1,23
 502 46 502 46 502 88 c 0,12,13
905 88 m 0,24,25
 905 128 905 128 933 157 c 128,-1,26
 961 186 961 186 1001 186 c 0,27,28
 1039 186 1039 186 1065.5 157 c 128,-1,29
 1092 128 1092 128 1092 88 c 0,30,31
 1092 45 1092 45 1065.5 16.5 c 128,-1,32
 1039 -12 1039 -12 1001 -12 c 0,33,34
 961 -12 961 -12 933 17 c 128,-1,35
 905 46 905 46 905 88 c 0,24,25
EndSplineSet
Validated: 1
EndChar

StartChar: guilsinglleft
Encoding: 8249 8249 223
Width: 759
GlyphClass: 2
Flags: W
LayerCount: 2
Fore
SplineSet
109 432 m 1,0,-1
 111 567 l 1,1,-1
 580 879 l 1,2,-1
 625 829 l 1,3,-1
 262 504 l 1,4,-1
 616 152 l 1,5,-1
 573 104 l 1,6,-1
 109 432 l 1,0,-1
EndSplineSet
Validated: 1
EndChar

StartChar: guilsinglright
Encoding: 8250 8250 224
Width: 759
GlyphClass: 2
Flags: W
LayerCount: 2
Fore
SplineSet
109 829 m 1,0,-1
 154 879 l 1,1,-1
 623 567 l 1,2,-1
 625 432 l 1,3,-1
 160 104 l 1,4,-1
 117 152 l 1,5,-1
 471 504 l 1,6,-1
 109 829 l 1,0,-1
EndSplineSet
Validated: 1
EndChar

StartChar: Euro
Encoding: 8364 8364 226
Width: 1382
GlyphClass: 2
Flags: W
LayerCount: 2
Fore
SplineSet
39 496 m 1,0,-1
 106 612 l 1,1,-1
 240 612 l 1,2,3
 236 678 236 678 236 713 c 0,4,5
 236 756 236 756 238 776 c 1,6,-1
 49 776 l 1,7,-1
 104 889 l 1,8,-1
 254 889 l 1,9,10
 299 1108 299 1108 449.5 1243 c 128,-1,11
 600 1378 600 1378 815 1378 c 0,12,13
 1082 1378 1082 1378 1247 1237 c 1,14,-1
 1247 1044 l 1,15,16
 1220 1079 1220 1079 1198 1103.5 c 128,-1,17
 1176 1128 1176 1128 1135.5 1161 c 128,-1,18
 1095 1194 1095 1194 1053 1215 c 128,-1,19
 1011 1236 1011 1236 949.5 1251 c 128,-1,20
 888 1266 888 1266 819 1266 c 0,21,22
 675 1266 675 1266 561 1164.5 c 128,-1,23
 447 1063 447 1063 408 889 c 1,24,-1
 807 889 l 1,25,-1
 750 776 l 1,26,-1
 393 776 l 1,27,28
 391 762 391 762 391 733 c 0,29,30
 391 671 391 671 397 612 c 1,31,-1
 807 612 l 1,32,-1
 750 496 l 1,33,-1
 418 496 l 1,34,35
 465 303 465 303 581 200.5 c 128,-1,36
 697 98 697 98 834 98 c 0,37,38
 901 98 901 98 951.5 108 c 128,-1,39
 1002 118 1002 118 1044 142 c 128,-1,40
 1086 166 1086 166 1108.5 184 c 128,-1,41
 1131 202 1131 202 1171 240 c 0,42,43
 1174 242 1174 242 1175 243.5 c 128,-1,44
 1176 245 1176 245 1178.5 247 c 128,-1,45
 1181 249 1181 249 1182.5 250.5 c 128,-1,46
 1184 252 1184 252 1186 254 c 0,47,48
 1225 290 1225 290 1249 334 c 1,49,-1
 1219 113 l 1,50,51
 1197 101 1197 101 1150 72.5 c 128,-1,52
 1103 44 1103 44 1083 35 c 128,-1,53
 1063 26 1063 26 1022 11 c 128,-1,54
 981 -4 981 -4 934 -9 c 128,-1,55
 887 -14 887 -14 823 -14 c 0,56,57
 601 -14 601 -14 451 119 c 128,-1,58
 301 252 301 252 256 496 c 1,59,-1
 39 496 l 1,0,-1
EndSplineSet
Validated: 1
EndChar

StartChar: trademark
Encoding: 8482 8482 227
Width: 1806
GlyphClass: 2
Flags: W
LayerCount: 2
Fore
SplineSet
45 1264 m 1,0,1
 45 1284 45 1284 51.5 1316 c 128,-1,2
 58 1348 58 1348 68 1362 c 1,3,-1
 715 1362 l 1,4,5
 737 1338 737 1338 737 1264 c 1,6,7
 688 1278 688 1278 664 1278 c 2,8,-1
 436 1278 l 1,9,-1
 436 567 l 1,10,-1
 340 567 l 1,11,-1
 340 1278 l 1,12,-1
 125 1278 l 2,13,14
 108 1278 108 1278 45 1264 c 1,0,1
827 567 m 1,15,-1
 887 1362 l 1,16,-1
 944 1362 l 2,17,18
 966 1362 966 1362 984.5 1349.5 c 128,-1,19
 1003 1337 1003 1337 1012 1313 c 2,20,-1
 1227 768 l 1,21,22
 1253 829 1253 829 1401 1198 c 2,23,-1
 1466 1362 l 1,24,-1
 1567 1362 l 1,25,-1
 1628 567 l 1,26,-1
 1532 567 l 1,27,-1
 1483 1200 l 1,28,-1
 1364 887 l 2,29,30
 1340 824 1340 824 1296.5 711.5 c 128,-1,31
 1253 599 1253 599 1241 567 c 1,32,-1
 1202 567 l 1,33,-1
 969 1169 l 1,34,-1
 924 567 l 1,35,-1
 827 567 l 1,15,-1
EndSplineSet
Validated: 1
EndChar

StartChar: uniE000
Encoding: 57344 57344 228
Width: 972
GlyphClass: 2
Flags: W
LayerCount: 2
Fore
SplineSet
0 0 m 1,0,-1
 0 973 l 1,1,-1
 973 973 l 1,2,-1
 973 0 l 1,3,-1
 0 0 l 1,0,-1
EndSplineSet
Validated: 1
EndChar
